<svg id="Tag_Line" data-name="Tag Line" xmlns="http://www.w3.org/2000/svg" viewBox="0 0 1085.4 70.48"><defs><style>.cls-1{fill:#ff8821;}</style></defs><title>FreedomTreeTagOnly</title><path class="cls-1" d="M408.93,810.05c-.51,2.72-1.1,5.1-1.7,7.56-.17,1-.42,2-.59,3.06-.6,2.47-1.11,4.76-1.53,7.23,3.23-.68,7.56-1.53,11.39-2.13a63.86,63.86,0,0,1-.59,8.76s-7.06,1-12.5,2.12a9.09,9.09,0,0,0-.26,1.28c-1.19,5.61-1.95,11.13-3.31,16.74a36.21,36.21,0,0,1-10,1.62c.25-1.27.76-2.72,1-4,1-4.16,2.29-8.41,3.14-12.75,1.19-5.44,2.38-10.88,3.57-16.4.34-1.79.77-3.66,1.11-5.44s.76-3.66,1.1-5.53c-1.44.34-2.8.77-4.16,1a75.76,75.76,0,0,1,.34-8.5c6.54-2.46,15.55-3.74,18.45-4.16,3.74-.6,7.39-1.45,11.13-2l2-.26a33.72,33.72,0,0,1-.6,3.74c-.34,1.53-.85,3.49-1.44,5.27C419.9,808.18,414.46,808.69,408.93,810.05Z" transform="translate(-389.81 -797.48)"/><path class="cls-1" d="M439.62,827.22a51.45,51.45,0,0,0-6.29,4.93c-.43,1.7-.77,3.48-1.11,5.27-1.36,5.86-2.12,11.73-3.31,17.51-3.57.77-7.91,1.28-10,1.53.26-1.27.6-2.63.94-3.83,1-4.42,2.29-8.92,3.31-13.43,1.28-5.78,2.47-11.56,3.66-17.34.51-2.29,1.1-4.5,1.61-6.8,2-.34,5.27-.93,8.59-1.27-.17.68-.34,1.44-.51,2.29-.34,1.28-.6,2.64-.94,3.91,1.53-1.1,3.15-2.21,4.68-3.23,2.13-1.44,4.68-3.48,7.06-4.25a18.08,18.08,0,0,1,2.12,8.84A77.64,77.64,0,0,0,439.62,827.22Z" transform="translate(-389.81 -797.48)"/><path class="cls-1" d="M472.09,844.05c.34,1.61.6,5.44.94,8.41-1.62.77-3.49,1.54-5.1,2.13a34.55,34.55,0,0,1-8.34,1.95,15.42,15.42,0,0,1-2.72.26,15,15,0,0,1-4.76-.76,6.2,6.2,0,0,1-3.74-3.83,21.8,21.8,0,0,1-1.87-7.4,16.28,16.28,0,0,1,.34-4.93c.26-1.1.6-2.38,1.11-4a51.08,51.08,0,0,1,4.59-9.86,72.26,72.26,0,0,1,4.42-5.78,28.53,28.53,0,0,1,4.76-4.42,11.24,11.24,0,0,1,5.86-2.55,11.7,11.7,0,0,1,3.92.51c4.42,1.27,7.22,7.22,6.12,12.24a104.06,104.06,0,0,1-3.91,13.43l-18.2,1.95c.09,1.11.09,2.55.17,3,.51,1.7,1.45,3.32,3.15,3.65C460.36,848.21,462.91,848.13,472.09,844.05Zm-13.77-11.56,9.18-.77a20,20,0,0,0,1.36-4.33,3.14,3.14,0,0,0-2.63-3.49c-1.54-.34-4.17,2.13-5.28,3.74A33.09,33.09,0,0,0,458.32,832.49Z" transform="translate(-389.81 -797.48)"/><path class="cls-1" d="M506.26,844.05c.34,1.61.6,5.44.94,8.41-1.62.77-3.49,1.54-5.1,2.13a34.55,34.55,0,0,1-8.34,1.95,15.42,15.42,0,0,1-2.72.26,15,15,0,0,1-4.76-.76,6.2,6.2,0,0,1-3.74-3.83,21.8,21.8,0,0,1-1.87-7.4,16.28,16.28,0,0,1,.34-4.93c.26-1.1.6-2.38,1.11-4a51.08,51.08,0,0,1,4.59-9.86,72.26,72.26,0,0,1,4.42-5.78,28.53,28.53,0,0,1,4.76-4.42,11.24,11.24,0,0,1,5.86-2.55,11.7,11.7,0,0,1,3.92.51c4.42,1.27,7.22,7.22,6.12,12.24a104.06,104.06,0,0,1-3.91,13.43l-18.2,1.95c.09,1.11.09,2.55.17,3,.51,1.7,1.45,3.32,3.15,3.65C494.53,848.21,497.08,848.13,506.26,844.05Zm-13.77-11.56,9.18-.77a20,20,0,0,0,1.36-4.33,3.14,3.14,0,0,0-2.63-3.49c-1.54-.34-4.17,2.13-5.28,3.74A33.09,33.09,0,0,0,492.49,832.49Z" transform="translate(-389.81 -797.48)"/><path class="cls-1" d="M549,854.42c.51-1.79.77-3.06,1.11-4.34,1-4.08,2.12-8.16,3.06-12.15-3.06.51-7,1.19-10,1.78-.34,1.62-.6,3.23-.85,4.76-.51,2.89-1,6-1.7,9-.17,1-.34,2-.51,2.8a31.74,31.74,0,0,1-6,.68,11.84,11.84,0,0,1-3.48-.43,26.61,26.61,0,0,1,.59-4.16c.51-2.55,1.28-5.44,1.87-7.65,1-3.74,1.87-7.4,2.64-11.14,1-4.25,2.12-8.67,3.06-13,.34-1.36.51-2.64.76-4,.68-3.65,1.45-7.31,2.13-10.88.17-.93.34-2,.59-3a79,79,0,0,1,10.12-1.19c-.09.93-.26,2-.43,3-.34,1.7-.76,3.23-1.19,4.76-.93,3.91-2,7.82-3.06,11.82-.93,3.23-1.53,6.54-2.29,9.77,2.38-.51,6-1.36,9.77-2,.94-4.42,1.79-8.84,2.72-13.09.51-2.38,1-4.76,1.45-7.14s1.1-4.68,1.44-7c.09-.85.26-1.7.34-2.64,2.38-.42,6.47-1.1,9.44-1.36a29.52,29.52,0,0,1-.68,3c-.42,2.63-1,5.1-1.87,8.58-.25,1.45-.59,2.72-.85,4.08-1.19,5.61-2.29,11.22-3.49,16.92-.17.93-.34,2-.59,2.89-1.36,6.54-2.3,13-3.74,19.46A97.85,97.85,0,0,1,549,854.42Z" transform="translate(-389.81 -797.48)"/><path class="cls-1" d="M593.55,844.05c.34,1.61.6,5.44.94,8.41-1.62.77-3.49,1.54-5.1,2.13a34.58,34.58,0,0,1-8.33,1.95,15.51,15.51,0,0,1-2.72.26,14.93,14.93,0,0,1-4.76-.76,6.18,6.18,0,0,1-3.74-3.83,21.34,21.34,0,0,1-1.87-7.4,16.28,16.28,0,0,1,.34-4.93c.25-1.1.59-2.38,1.1-4A51.68,51.68,0,0,1,574,826a72.26,72.26,0,0,1,4.42-5.78,29.33,29.33,0,0,1,4.76-4.42,11.27,11.27,0,0,1,5.87-2.55,11.67,11.67,0,0,1,3.91.51c4.42,1.27,7.22,7.22,6.12,12.24a104.06,104.06,0,0,1-3.91,13.43L577,841.41c.08,1.11.08,2.55.17,3,.51,1.7,1.44,3.32,3.14,3.65C581.82,848.21,584.37,848.13,593.55,844.05Zm-13.77-11.56,9.18-.77a20,20,0,0,0,1.36-4.33,3.14,3.14,0,0,0-2.63-3.49c-1.53-.34-4.17,2.13-5.27,3.74A32.38,32.38,0,0,0,579.78,832.49Z" transform="translate(-389.81 -797.48)"/><path class="cls-1" d="M611,854.42c-3.57.94-8.08,1.7-10.12,2,.34-1.79.85-3.66,1.19-5.19,1.36-6.12,3.15-12.24,4.42-18.36,1.62-7.9,3.4-15.81,5-23.71.68-3,1.27-6.12,2-9.1,2.13-.51,5.44-1.36,9-1.87-.25,1-.51,2-.68,3.15-.51,2-.93,4-1.36,6-1.7,7.73-3,15.3-4.67,23.12C613.87,838.52,612.68,846.43,611,854.42Z" transform="translate(-389.81 -797.48)"/><path class="cls-1" d="M651.86,832.91a35.72,35.72,0,0,1-20.23,16.41c-1,4.34-1.44,7.82-2.46,11.48-.09.42-.85,3.82-1.28,5.44a48.78,48.78,0,0,1-9.26.76c.51-3.57,3.14-13.09,3.65-15,0,0,1.7-7,3.15-13.6.76-3.66,1.1-7.06,1.87-10.54a31.11,31.11,0,0,0,.85-5.53c-.09,0-1.7.09-3,.09a51.41,51.41,0,0,1,2.81-9.61c1.19,0,2.72-.08,4.08-.08s2.55.08,3,.08a22.51,22.51,0,0,1,7.23,1.53c4.84,2.3,8.24,5.53,9.86,10.88C652.88,827.81,653.31,830.19,651.86,832.91ZM643.28,830a11.93,11.93,0,0,0-3.66-4.93,16.67,16.67,0,0,0-3-1.61c-.34,1.36-.51,2.8-.85,4.16-.6,2.89-2.13,11.82-2.13,11.82C635.63,838.78,644.72,833.59,643.28,830Z" transform="translate(-389.81 -797.48)"/><path class="cls-1" d="M710.94,823.73c-1.36,5-4.34,9.44-8.93,14.54a60.93,60.93,0,0,1-14.53,12.07c-2.21,1.45-4.51,2.29-7.14,3.74-1.11.59-3.49,1.36-4.59,1.79a27.27,27.27,0,0,1-2.9.84,18.75,18.75,0,0,1,.26-3.31,33.89,33.89,0,0,1,.77-4.17c.67-2.63,1.27-5.27,2-7.9,1.19-5.19,2.55-10.12,3.74-15.22.26-1.36.6-2.8.77-4.16.76-4.25,1.53-8.67,2.29-12.84-1.19-.34-2.55-.17-4-.42,1-3.57,2.63-8,3.4-10.12,3.57.17,5.69-.08,9.6,1.36a45.78,45.78,0,0,1,4.34,1.7,17.7,17.7,0,0,1,2.12,1.11,20.71,20.71,0,0,1,4.85,3.65,40,40,0,0,1,4.84,6.29,15.29,15.29,0,0,1,2.55,5.44C710.68,819.74,711.53,821.78,710.94,823.73Zm-10.71,3.74a6.37,6.37,0,0,0,1.1-2.46c1.19-5.87-5.35-12.5-9.77-14.28-.34,1.1-1,4-1.28,5.27-.42,2.63-1.1,5.44-1.53,8.07-.25,1.45-.68,3.49-.93,4.93-.43,2.72-1.19,4.85-1.79,7.48-.34,1.79-.59,3.15-1.19,5.36A40.25,40.25,0,0,0,700.23,827.47Z" transform="translate(-389.81 -797.48)"/><path class="cls-1" d="M737.12,844.05c.34,1.61.59,5.44.93,8.41-1.61.77-3.48,1.54-5.1,2.13a34.36,34.36,0,0,1-8.33,1.95,15.42,15.42,0,0,1-2.72.26,15,15,0,0,1-4.76-.76,6.2,6.2,0,0,1-3.74-3.83,21.8,21.8,0,0,1-1.87-7.4,16.28,16.28,0,0,1,.34-4.93c.26-1.1.6-2.38,1.11-4a51.08,51.08,0,0,1,4.59-9.86,72.26,72.26,0,0,1,4.42-5.78,28.53,28.53,0,0,1,4.76-4.42,11.24,11.24,0,0,1,5.86-2.55,11.6,11.6,0,0,1,3.91.51c4.42,1.27,7.23,7.22,6.12,12.24a104.06,104.06,0,0,1-3.91,13.43l-18.19,1.95c.09,1.11.09,2.55.17,3,.51,1.7,1.45,3.32,3.15,3.65C725.39,848.21,727.94,848.13,737.12,844.05Zm-13.77-11.56,9.18-.77a20,20,0,0,0,1.36-4.33,3.15,3.15,0,0,0-2.64-3.49c-1.53-.34-4.16,2.13-5.27,3.74A33.09,33.09,0,0,0,723.35,832.49Z" transform="translate(-389.81 -797.48)"/><path class="cls-1" d="M761,838.18c-.85,4.59-2.29,12.16-3,16.84a81.25,81.25,0,0,1-8.92,1.36c.51-5.36,1.95-12.93,2.8-17.94.17-1.36.51-2.89.77-4.34-1.19.43-2.13.68-3,.94-.25-3.15-.42-6.55-.42-8.5a25.38,25.38,0,0,1,5.44-1.87c.34-1.7.76-3.4,1.19-4.93,1.27-4.93,2.12-9.18,4.76-13.6,2.21-3.83,7.91-9.35,12.33-8.59a19.75,19.75,0,0,1,10.28,5.61,62.18,62.18,0,0,1-5.86,7.57c-1.87-.94-3.91-2.72-5.87-2.72a3.8,3.8,0,0,0-3.06,1.7c-2.8,3.57-3.4,8.75-4,12.58,2.38-.6,4.76-1.19,7.31-1.7a16.66,16.66,0,0,1,3-.34,53.76,53.76,0,0,1-.85,8.92c-2.89.34-8.92,1.19-11.56,2.3C761.94,833.51,761.51,835.55,761,838.18Z" transform="translate(-389.81 -797.48)"/><path class="cls-1" d="M802.57,844.05c.34,1.61.59,5.44.93,8.41-1.61.77-3.48,1.54-5.1,2.13a34.36,34.36,0,0,1-8.33,1.95,15.51,15.51,0,0,1-2.72.26,14.93,14.93,0,0,1-4.76-.76,6.18,6.18,0,0,1-3.74-3.83,21.34,21.34,0,0,1-1.87-7.4,16.28,16.28,0,0,1,.34-4.93c.25-1.1.59-2.38,1.1-4A51.68,51.68,0,0,1,783,826a72.26,72.26,0,0,1,4.42-5.78,29.33,29.33,0,0,1,4.76-4.42,11.31,11.31,0,0,1,5.87-2.55,11.6,11.6,0,0,1,3.91.51c4.42,1.27,7.23,7.22,6.12,12.24a104.06,104.06,0,0,1-3.91,13.43L786,841.41c.08,1.11.08,2.55.17,3,.51,1.7,1.44,3.32,3.14,3.65C790.83,848.21,793.38,848.13,802.57,844.05Zm-13.78-11.56,9.19-.77a20,20,0,0,0,1.36-4.33,3.15,3.15,0,0,0-2.64-3.49c-1.53-.34-4.17,2.13-5.27,3.74A32.38,32.38,0,0,0,788.79,832.49Z" transform="translate(-389.81 -797.48)"/><path class="cls-1" d="M828.06,857.4c-.17-4.17,1.19-10.12,1.79-14.29.85-5.52,2.38-11.05,3.15-16.83.42-2.46-3.15,1.19-4.26,2a25.18,25.18,0,0,0-6,7.31c-1.53,7.14-2.38,13.18-3.65,19.3-3.57.68-7.82,1.28-9.95,1.53.26-1.36.77-2.72,1-4,1-4.58,2.47-9.26,3.49-14q1.9-8.93,3.82-18.11c.51-2.29,1-4.59,1.53-7,2-.42,5.27-.93,8.67-1.36-1,3.23-1.53,6.63-2.21,9.86a40.26,40.26,0,0,1,5.19-4.93c2.81-2.21,6.89-5.1,10-4.59a4.38,4.38,0,0,1,3.32,2.64c.59,2.46-.77,6.46-1.28,8.84-.51,2.8-1.27,5.52-1.95,8.33-.43,1.61-.85,3.23-1.28,5a78.35,78.35,0,0,0-1.87,17.09C835.8,855,832.23,856,828.06,857.4Z" transform="translate(-389.81 -797.48)"/><path class="cls-1" d="M865.8,857s.09-3.4.43-7.91c-3.15,1.79-6.12,3.32-9.27,4.94a14.29,14.29,0,0,1-5.78,1.44,4.61,4.61,0,0,1-3.82-1.44c-2-2.47-1.28-6.47-.6-9.7.85-4,2.21-7.9,3.4-11.73a34.55,34.55,0,0,1,5.61-11.3c2.64-3.32,5.36-5.44,9.44-6.12a11.38,11.38,0,0,1,5.35.42,9.45,9.45,0,0,1,1.45.6c1.11-4.08,2.21-8.08,3.49-12.16.25-.93,1-3.74,1.44-4.93,1.79-.25,6.63-.93,9.44-.51-.34,1.7-1.79,4.76-2.13,6.12-1.1,4.34-2.55,9.27-3.74,13.69-1,4.33-2.21,8.67-3.06,12.92-1.1,5.78-2.8,16.15-1.87,21.93C873.54,854.5,869,855.87,865.8,857ZM863,842.09a44.77,44.77,0,0,0,3.91-2.29c.76-4.59,1.53-9.27,2.63-13.86-1.35-.93-2.89-2-4.08-1.7-2,.51-3.06,2-4,3.49a63.27,63.27,0,0,0-3.49,7.9,26.39,26.39,0,0,0-2,7.06c-.34,2.12-.09,2.72,2.21,1.87A37.1,37.1,0,0,0,863,842.09Z" transform="translate(-389.81 -797.48)"/><path class="cls-1" d="M891.81,855.1c-3.48.68-7.82,1.11-9.94,1.36.25-1.1.68-2.29.93-3.4.94-3.91,2.21-7.91,3.06-11.82,1-5.1,2.13-10.2,3.15-15.3.42-2,.85-3.91,1.36-6,2-.34,5.27-.76,8.67-1.1q-.25.89-.51,2c-.26,1.1-.51,2.12-.68,3.14-1.11,5.27-2,10.37-3.23,15.64C893.51,844.9,892.83,850,891.81,855.1Zm11.48-51.6c-.17,0-3.83.51-5.87.94a60.24,60.24,0,0,0-6.46,1.95l-.42,8.67,3.06-.85c.93-.34,8.58-1.78,8.58-1.78C902.44,811.32,903.29,803.5,903.29,803.5Z" transform="translate(-389.81 -797.48)"/><path class="cls-1" d="M918.76,857.4c-.17-4.17,1.19-10.12,1.78-14.29.85-5.52,2.38-11.05,3.15-16.83.42-2.46-3.15,1.19-4.25,2a25.18,25.18,0,0,0-6,7.31c-1.53,7.14-2.38,13.18-3.66,19.3-3.57.68-7.82,1.28-9.94,1.53.25-1.36.76-2.72,1-4,1-4.58,2.46-9.26,3.48-14q1.92-8.93,3.83-18.11c.51-2.29,1-4.59,1.53-7,2-.42,5.27-.93,8.67-1.36-1,3.23-1.53,6.63-2.21,9.86a39.59,39.59,0,0,1,5.18-4.93c2.81-2.21,6.89-5.1,10-4.59a4.38,4.38,0,0,1,3.32,2.64c.59,2.46-.77,6.46-1.28,8.84-.51,2.8-1.27,5.52-2,8.33-.43,1.61-.85,3.23-1.28,5a78.35,78.35,0,0,0-1.87,17.09C926.49,855,922.92,856,918.76,857.4Z" transform="translate(-389.81 -797.48)"/><path class="cls-1" d="M974.26,814.89A51.82,51.82,0,0,0,971.2,821c-.85,2.3-1.36,4.17-2.38,7.91-1.53,5.35-2.21,8.58-3.23,12.83-.34,1.53-.59,3.06-1,4.85-.42,2-.76,3.74-1.19,5.69a12.27,12.27,0,0,1-3.31,6c-3.15,3.91-9.44,8.5-13.94,9.52-4,1-7.14-2.21-9.44-4.59a7.46,7.46,0,0,1-1.53-3.06,71.15,71.15,0,0,1,6.8-6c.26.33.43.76.68,1.1a10.12,10.12,0,0,0,3,3.06c1.27.94,3.57-.68,5-1.62,3.49-2.38,4.51-3.39,5.19-7.31.25-1.44.51-3,.76-4.42-2.38,1.28-4.76,2.47-7.31,3.74a13.36,13.36,0,0,1-5.78,1.45,4.42,4.42,0,0,1-3.74-1.45c-2.12-2.46-1.27-6.46-.51-9.69a40.54,40.54,0,0,1,2.81-9.26,35.38,35.38,0,0,1,5.18-9.44c2.72-3.31,5.36-5.52,9.44-6.12a12.77,12.77,0,0,1,5.35.34,17.78,17.78,0,0,1,2.81,1.53,22.75,22.75,0,0,1,1.87-3.48A25.71,25.71,0,0,1,974.26,814.89Zm-18.87,21.93c1.36-.76,2.64-1.53,3.66-2.12.85-3,1.87-6.12,2.63-9.18-1.53-1-3.31-2.64-4.76-2.21a6.62,6.62,0,0,0-4,3.57,23.48,23.48,0,0,0-2.72,5.27,23.78,23.78,0,0,0-1.79,5.27c-.51,2.12-.17,2.72,2.21,1.87A42.35,42.35,0,0,0,955.39,836.82Z" transform="translate(-389.81 -797.48)"/><path class="cls-1" d="M1028.24,804.52c-1.28,2.3-2.47,4.59-3.66,7-1.1,1.87-2.63,4.68-3.65,6.55-2.72,4.84-4.85,8.75-7.4,13.68-4.42,8.42-8.67,16.58-12.92,24.82a39.9,39.9,0,0,1-9.44-2.63,15.39,15.39,0,0,1,1.2-2.12c3-5.36,6.12-10.72,9.09-16.07.51-2.21-.42-6.55-.59-8.25-.34-3.31-.68-6.54-1.28-9.86A110.49,110.49,0,0,0,997,805.37a108.3,108.3,0,0,1,10.29-4.76,7,7,0,0,1,.17,1.28c.93,5.1,1.53,10.37,2.29,15.55.09.77.26,1.62.43,2.47,2.46-4.68,4.67-9.44,7.14-14.11,1.27-2.38,2.38-4.93,3.82-7.4a67.29,67.29,0,0,1,8.93,2.81C1029.51,802.31,1028.75,803.5,1028.24,804.52Z" transform="translate(-389.81 -797.48)"/><path class="cls-1" d="M1051,834.27a55.7,55.7,0,0,1-2.89,8,43,43,0,0,1-3.91,6.29,29.9,29.9,0,0,1-5.78,5.45,11.65,11.65,0,0,1-6.55,2.12,14.79,14.79,0,0,1-2.8-.34c-7.65-1.45-11.39-9.78-9-17.6,1.7-5.35,3.74-10.79,7.31-15.64,2.8-3.91,8-8.67,12.66-9.26,4-.51,6.8,1.53,8.76,4.16a15.15,15.15,0,0,1,2.38,6.8C1051.61,827.73,1052,829.94,1051,834.27Zm-9-.51c.17-.93.34-1.87.51-2.89.34-2.29-1.28-8.92-4.93-7-3,1.62-5,5.78-6.29,8.5a18.7,18.7,0,0,0-1.79,4.85,11.9,11.9,0,0,0-.08,4.25c.25,2,2,6.12,4.67,5.1s4.76-5.1,5.87-7.4A47.4,47.4,0,0,0,1042,833.76Z" transform="translate(-389.81 -797.48)"/><path class="cls-1" d="M1073,856.8c-.94-1.7-.85-4.42-.77-6.38-3.48,2.38-7.22,4.68-11,4.94-2.38.17-4.93-.17-6.2-2-1.11-1.78-.77-5.19-.43-7.23.77-4.16,1.45-7.48,2.3-10.79,1.53-6.12,2.89-12.41,5.1-18.36a24.68,24.68,0,0,1,1.27-3.06,67,67,0,0,1,9.18.93,224.76,224.76,0,0,0-8.16,28.05c-.08.6-.59,2.64.51,2.72a3.49,3.49,0,0,0,1.53-.59,40.54,40.54,0,0,0,7.57-5.61l2.89-14.54c1-4.76,2.21-9.6,2.29-10.37a40.11,40.11,0,0,1,10-1.78c-.26,1-1.45,5.52-2.47,10-2,8.84-2,8.58-3,13.09a41.82,41.82,0,0,0-1.11,6.88c-.08,1.62-.34,3.06-.42,4.59a15.67,15.67,0,0,0,.76,5.1C1081.45,853.83,1076.43,855.87,1073,856.8Z" transform="translate(-389.81 -797.48)"/><path class="cls-1" d="M1108.9,827.22a52.23,52.23,0,0,0-6.29,4.93c-.42,1.7-.76,3.48-1.1,5.27-1.36,5.86-2.13,11.73-3.32,17.51-3.57.77-7.9,1.28-9.94,1.53.25-1.27.59-2.63.93-3.83,1-4.42,2.3-8.92,3.32-13.43,1.27-5.78,2.46-11.56,3.65-17.34.51-2.29,1.11-4.5,1.62-6.8,2-.34,5.27-.93,8.58-1.27-.17.68-.34,1.44-.51,2.29-.34,1.28-.59,2.64-.93,3.91,1.53-1.1,3.14-2.21,4.67-3.23,2.13-1.44,4.68-3.48,7.06-4.25a18.08,18.08,0,0,1,2.12,8.84A77.64,77.64,0,0,0,1108.9,827.22Z" transform="translate(-389.81 -797.48)"/><path class="cls-1" d="M1170.27,848.89c-1.27,1.62-6.46,4.94-8.41,6-2.55,1.45-4.85,1.7-7.4,2-3.48.43-7.65-1.36-10.2-3.74a21.41,21.41,0,0,1-6-11.22,15.84,15.84,0,0,1,0-7.74,29.34,29.34,0,0,1,1.87-5.69,105.74,105.74,0,0,1,6.2-12,61.72,61.72,0,0,1,7.66-9.77,35.78,35.78,0,0,1,11.3-7.74,10.49,10.49,0,0,1,6-.34c1.53.51,3.74,1.53,3.82,4.68a37.52,37.52,0,0,1-1.27,11.3c-.17.77-.43,2.13-.77,3.91-.59,2.72-1.36,6.29-2.46,9.86-3,.17-7.23.26-9.27.51,1.11-4.08,2.13-8.84,3-12.32.59-1.87,1.7-8.25-1.45-6.21a21.38,21.38,0,0,0-5.18,4.42,75,75,0,0,0-7.82,12.24,29.48,29.48,0,0,0-2.64,6.63c-.42,1.87-.51,4.93.26,6.38,1.44,2.89,3.06,6.2,5.69,7.39,2.3.94,4.76.09,7.23-1.53a35.65,35.65,0,0,0,4.84-3.57A21.81,21.81,0,0,1,1170.27,848.89Z" transform="translate(-389.81 -797.48)"/><path class="cls-1" d="M1184.55,855.1c-3.49.68-7.82,1.11-10,1.36.26-1.1.68-2.29.94-3.4.93-3.91,2.21-7.91,3.06-11.82,1-5.1,2.12-10.2,3.14-15.3.43-2,.85-3.91,1.36-6,2-.34,5.28-.76,8.67-1.1q-.26.89-.51,2c-.25,1.1-.51,2.12-.68,3.14-1.1,5.27-1.95,10.37-3.23,15.64C1186.25,844.9,1185.57,850,1184.55,855.1ZM1196,803.5c-.17,0-3.83.51-5.87.94a60.24,60.24,0,0,0-6.46,1.95l-.43,8.67,3.06-.85c.94-.34,8.59-1.78,8.59-1.78C1195.17,811.32,1196,803.5,1196,803.5Z" transform="translate(-389.81 -797.48)"/><path class="cls-1" d="M1231.05,815.15c-1.53,2.29-5.1,8.67-6.38,11-2.8,4.59-4.93,9.52-7.23,14.2-1.36,2.8-2.55,5.52-3.74,8.33l-2.46,6.46c-1.36.26-4.76.34-6.12.51a47.5,47.5,0,0,0-5,.6c0-2.64.26-5.36.34-8.08,0-5.1.17-10.29.34-15.39.09-2.89-.08-5.52-.17-8.33,0-1.95-.42-5.78-.34-8.84.77-.34,9.61-2.63,9.61-2.72a74.54,74.54,0,0,1,.17,12.16c-.09,3.48,0,9.86-.26,13.34,1.19-3.31,4.17-8.92,5.36-12.07.93-2.21,2-4.25,3.06-6.37.42-.94,3.4-7,4.25-8.42A60.78,60.78,0,0,1,1231.05,815.15Z" transform="translate(-389.81 -797.48)"/><path class="cls-1" d="M1239,855.1c-3.48.68-7.82,1.11-9.94,1.36.25-1.1.68-2.29.93-3.4.94-3.91,2.21-7.91,3.06-11.82,1-5.1,2.13-10.2,3.15-15.3.42-2,.85-3.91,1.36-6,2-.34,5.27-.76,8.67-1.1q-.26.89-.51,2c-.26,1.1-.51,2.12-.68,3.14-1.11,5.27-2,10.37-3.23,15.64C1240.73,844.9,1240.05,850,1239,855.1Zm11.48-51.6c-.17,0-3.83.51-5.87.94a60.24,60.24,0,0,0-6.46,1.95l-.42,8.67,3.06-.85c.93-.34,8.58-1.78,8.58-1.78C1249.66,811.32,1250.51,803.5,1250.51,803.5Z" transform="translate(-389.81 -797.48)"/><path class="cls-1" d="M1257.9,854.42c-3.57.94-8.07,1.7-10.11,2,.33-1.79.84-3.66,1.18-5.19,1.36-6.12,3.15-12.24,4.43-18.36,1.61-7.9,3.4-15.81,5-23.71.68-3,1.28-6.12,2-9.1,2.12-.51,5.44-1.36,9-1.87-.26,1-.51,2-.68,3.15-.51,2-.94,4-1.36,6-1.7,7.73-3,15.3-4.68,23.12C1260.79,838.52,1259.6,846.43,1257.9,854.42Z" transform="translate(-389.81 -797.48)"/><path class="cls-1" d="M1317.83,851.87a51.75,51.75,0,0,1-9.18,6.12c-.51-.76-1-1.7-1.53-2.55a62.07,62.07,0,0,1-4-11.82,65.11,65.11,0,0,1-1.45-7.48c-.42.17-2.46,1.11-3,1.28-.68,3.31-1.36,6.63-2,9.86-.17.93-.43,2.12-.68,3.4a35.23,35.23,0,0,1-1.19,4.51,72.1,72.1,0,0,1-7.4.42,24.45,24.45,0,0,1-2.63-.08c.93-3.32,2-6.47,2.8-10.12.51-2.47.77-3.66,1.28-5.61.93-4.17,1.78-8.33,2.72-12.5,1.1-5.44,1.7-10.88,2.72-16.32a21.56,21.56,0,0,0,.42-2.38c-.93,0-2-.08-3.06,0,.85-4.59,2.21-9.77,2.21-9.77.85.08,1.7,0,3.49,0,1,0,2.29,0,4,.08a39.17,39.17,0,0,1,8.51,1.19c5.52,1.79,9,3.83,11,7.06a19.77,19.77,0,0,1,2.3,4.08,13.44,13.44,0,0,1,.85,6,16.44,16.44,0,0,1-5.19,8.84,38,38,0,0,1-8.24,5.95,35.67,35.67,0,0,0,2.63,11C1314.51,846,1315.7,849.32,1317.83,851.87Zm-13.35-42.93a31.28,31.28,0,0,1-.68,4.08c-.34,1.62-.76,3.4-1.19,5.1-.77,3.15-1.44,6.21-1.95,9.35a23.74,23.74,0,0,0,4.5-2c3.06-1.36,8.16-3.66,9.1-7.14.85-3.23-2.81-6.46-5.1-7.74A12.51,12.51,0,0,0,1304.48,808.94Z" transform="translate(-389.81 -797.48)"/><path class="cls-1" d="M1333.12,855.1c-3.48.68-7.82,1.11-9.94,1.36.25-1.1.68-2.29.93-3.4.94-3.91,2.21-7.91,3.06-11.82,1-5.1,2.13-10.2,3.15-15.3.42-2,.85-3.91,1.36-6,2-.34,5.27-.76,8.67-1.1q-.25.89-.51,2c-.26,1.1-.51,2.12-.68,3.14-1.11,5.27-2,10.37-3.23,15.64C1334.82,844.9,1334.14,850,1333.12,855.1Zm11.48-51.6c-.17,0-3.83.51-5.87.94a60.24,60.24,0,0,0-6.46,1.95l-.42,8.67,3.06-.85c.93-.34,8.58-1.78,8.58-1.78C1343.75,811.32,1344.6,803.5,1344.6,803.5Z" transform="translate(-389.81 -797.48)"/><path class="cls-1" d="M1380.13,814.89a50.31,50.31,0,0,0-3.06,6.12c-.85,2.3-1.36,4.17-2.38,7.91-1.53,5.35-2.21,8.58-3.23,12.83-.34,1.53-.6,3.06-1,4.85-.43,2-.77,3.74-1.19,5.69a12.29,12.29,0,0,1-3.32,6c-3.14,3.91-9.43,8.5-13.94,9.52-4,1-7.14-2.21-9.43-4.59a7.46,7.46,0,0,1-1.53-3.06,69.91,69.91,0,0,1,6.8-6c.25.33.42.76.68,1.1a10.2,10.2,0,0,0,3,3.06c1.28.94,3.57-.68,5-1.62,3.48-2.38,4.5-3.39,5.18-7.31.26-1.44.51-3,.77-4.42-2.38,1.28-4.76,2.47-7.31,3.74a13.39,13.39,0,0,1-5.78,1.45,4.42,4.42,0,0,1-3.74-1.45c-2.13-2.46-1.28-6.46-.51-9.69a41,41,0,0,1,2.8-9.26,35.7,35.7,0,0,1,5.19-9.44c2.72-3.31,5.35-5.52,9.43-6.12a12.82,12.82,0,0,1,5.36.34,18.13,18.13,0,0,1,2.8,1.53,23.65,23.65,0,0,1,1.87-3.48A25.77,25.77,0,0,1,1380.13,814.89Zm-18.87,21.93c1.36-.76,2.63-1.53,3.65-2.12.85-3,1.87-6.12,2.64-9.18-1.53-1-3.32-2.64-4.76-2.21a6.66,6.66,0,0,0-4,3.57,23.9,23.9,0,0,0-2.72,5.27,24.22,24.22,0,0,0-1.78,5.27c-.51,2.12-.17,2.72,2.21,1.87A44.14,44.14,0,0,0,1361.26,836.82Z" transform="translate(-389.81 -797.48)"/><path class="cls-1" d="M1396.45,858.67c-.09-.51-.17-.85-.26-1.27a42.62,42.62,0,0,1,1-13.35c1-5.78,2.64-11.82,3.23-17.34-1.44.17-4,2.46-4.84,3.4-1.45,1.61-3.23,3.14-4.25,4.84-1.28,6.46-2.38,13-3.74,19.47-3.57.94-7.91,1.7-9.95,2,.34-1.79.77-3.66,1.19-5.19,1.36-6.12,3.06-12.24,4.34-18.36l5.1-23.71c.59-3,1.36-6.12,2-9.1a90.13,90.13,0,0,1,8.84-1.87c-.25,1-.42,2-.68,3.15-.51,2-.93,4.25-1.44,6.29-1,4.59-1.87,9.18-2.72,13.77a18.87,18.87,0,0,1,2.38-2.13,53.85,53.85,0,0,1,7-4.5,11.12,11.12,0,0,1,5.18-1.28,3.46,3.46,0,0,1,3,3.23,16.59,16.59,0,0,1-.34,4.51c-.43,2-1.11,3.91-1.53,6-.77,3.91-2.3,8-2.89,12a69.76,69.76,0,0,0-1.11,10c0,2.3-.17,4,.34,5.53A49,49,0,0,1,1396.45,858.67Z" transform="translate(-389.81 -797.48)"/><path class="cls-1" d="M1419.65,856.12c-.08-6.46,1.36-13.43,2.72-20,.17-.76.34-1.61.6-2.63.08-.43.42-1.87.85-3.91-2.21.76-4,1.53-5.87,2.21a75.72,75.72,0,0,1-1.7-8.08,52.09,52.09,0,0,1,9.61-3.48c1-4.68,2.46-11.9,2.46-11.9l9.61-1.79c-.26,1-1.62,7-2.64,11.56,1.45-.25,2.81-.51,4.17-.68a34.14,34.14,0,0,1,3.74-.42,67.42,67.42,0,0,1,.08,8.41c-3.4.68-6.63,1.19-9.94,1.87-.77,3.32-.94,3.91-1.11,4.85-.42,1.61-.85,3.23-1.27,5a80.84,80.84,0,0,0-2,16.24C1427.13,854.59,1423.31,855.61,1419.65,856.12Z" transform="translate(-389.81 -797.48)"/><path class="cls-1" d="M1473.29,844.64c-1,4.34-5.53,8.85-10,10.63a22,22,0,0,1-6.71,1.44c-2.47.18-6.89-.08-8.59-.93a10.16,10.16,0,0,1-4.84-5.27,7.64,7.64,0,0,1,.08-3.91,14.13,14.13,0,0,1,2.21-5.36,45,45,0,0,1,8.42.77c-.85,1.87-1.53,3.14-.26,4.67.43.68,2,1.2,3.83,1.2a9.37,9.37,0,0,0,5.44-1.62c1.7-1.45-2.64-4-4.93-5.53a52.69,52.69,0,0,1-7.14-5.78,7.09,7.09,0,0,1-2.13-7.14,12.84,12.84,0,0,1,1.19-3.14c3.4-5.78,11-12.67,19-12.67,2.63,0,5.44.85,6.12,3.74.85,3.23-.94,8.76-1.87,12.75a19.14,19.14,0,0,1-4.76.51c-1.79,0-3.23-.17-4.08-.17.51-2.38,1.36-4.84,1.44-7.31-1.61,0-6.12,2.64-7,4.85-.76,2,3,4.84,5.36,6.71,1.44.94,2.8,2,4.16,3C1471.08,838.61,1474.22,840.05,1473.29,844.64Z" transform="translate(-389.81 -797.48)"/></svg>