<svg id="Tree" xmlns="http://www.w3.org/2000/svg" viewBox="0 0 1324.26 761.85"><defs><style>.cls-1,.cls-3{fill:#ff8821;}.cls-2,.cls-5{fill:#8a7538;}.cls-2,.cls-3,.cls-4{fill-rule:evenodd;}.cls-4{fill:#ffc029;}.cls-6{fill:#929497;}</style></defs><title>FreedomTreeLogoTag</title><path class="cls-1" d="M313.29,858c-.6,3.2-1.3,6-2,8.9-.2,1.2-.5,2.4-.7,3.6-.7,2.9-1.3,5.6-1.8,8.5,3.8-.8,8.9-1.8,13.4-2.5a74.35,74.35,0,0,1-.7,10.3s-8.3,1.21-14.7,2.5a10.17,10.17,0,0,0-.3,1.5c-1.4,6.61-2.3,13.11-3.9,19.71a42.81,42.81,0,0,1-11.8,1.9c.3-1.5.9-3.2,1.2-4.7,1.2-4.9,2.7-9.9,3.7-15,1.4-6.41,2.8-12.81,4.2-19.31.4-2.1.9-4.3,1.3-6.4s.9-4.3,1.3-6.5c-1.7.4-3.3.9-4.9,1.2a90.57,90.57,0,0,1,.4-10c7.7-2.9,18.3-4.4,21.7-4.9,4.4-.7,8.7-1.7,13.1-2.4l2.3-.3a38.05,38.05,0,0,1-.7,4.4c-.4,1.8-1,4.1-1.7,6.2C326.19,855.83,319.79,856.43,313.29,858Z" transform="translate(-289.79 -164.32)"/><path class="cls-1" d="M349.39,878.23A60.2,60.2,0,0,0,342,884c-.5,2-.9,4.09-1.3,6.2-1.6,6.9-2.5,13.8-3.9,20.6-4.2.9-9.3,1.5-11.7,1.8.3-1.5.7-3.1,1.1-4.5,1.2-5.2,2.7-10.5,3.9-15.81,1.5-6.79,2.9-13.6,4.3-20.4.6-2.7,1.3-5.3,1.9-8,2.3-.4,6.2-1.1,10.1-1.5q-.3,1.2-.6,2.7c-.4,1.5-.7,3.1-1.1,4.6,1.8-1.3,3.7-2.6,5.5-3.8,2.5-1.7,5.5-4.1,8.3-5a21.33,21.33,0,0,1,2.5,10.4A90.89,90.89,0,0,0,349.39,878.23Z" transform="translate(-289.79 -164.32)"/><path class="cls-1" d="M387.59,898c.4,1.9.7,6.4,1.1,9.9-1.9.9-4.1,1.8-6,2.5a41.12,41.12,0,0,1-9.8,2.3,18.16,18.16,0,0,1-3.2.3,17.3,17.3,0,0,1-5.6-.9,7.28,7.28,0,0,1-4.4-4.5,25.34,25.34,0,0,1-2.2-8.7,19.15,19.15,0,0,1,.4-5.8c.3-1.31.7-2.81,1.3-4.7a60.86,60.86,0,0,1,5.4-11.61c1.6-2.3,3.4-4.7,5.2-6.8a34.54,34.54,0,0,1,5.6-5.2,13.34,13.34,0,0,1,6.9-3,13.84,13.84,0,0,1,4.6.6c5.2,1.5,8.5,8.5,7.2,14.4a123,123,0,0,1-4.6,15.81l-21.4,2.3c.1,1.3.1,3,.2,3.5.6,2,1.7,3.9,3.7,4.3C373.79,902.94,376.79,902.84,387.59,898Zm-16.2-13.61,10.8-.89a23.7,23.7,0,0,0,1.6-5.11,3.69,3.69,0,0,0-3.1-4.1c-1.8-.4-4.9,2.5-6.2,4.4A38.21,38.21,0,0,0,371.39,884.43Z" transform="translate(-289.79 -164.32)"/><path class="cls-1" d="M427.79,898c.4,1.9.7,6.4,1.1,9.9-1.9.9-4.1,1.8-6,2.5a41.12,41.12,0,0,1-9.8,2.3,18.16,18.16,0,0,1-3.2.3,17.3,17.3,0,0,1-5.6-.9,7.28,7.28,0,0,1-4.4-4.5,25.34,25.34,0,0,1-2.2-8.7,19.15,19.15,0,0,1,.4-5.8c.3-1.31.7-2.81,1.3-4.7a60.86,60.86,0,0,1,5.4-11.61c1.6-2.3,3.4-4.7,5.2-6.8a34.54,34.54,0,0,1,5.6-5.2,13.34,13.34,0,0,1,6.9-3,13.84,13.84,0,0,1,4.6.6c5.2,1.5,8.5,8.5,7.2,14.4a123,123,0,0,1-4.6,15.81l-21.4,2.3c.1,1.3.1,3,.2,3.5.6,2,1.7,3.9,3.7,4.3C414,902.94,417,902.84,427.79,898Zm-16.2-13.61,10.8-.89a23.7,23.7,0,0,0,1.6-5.11,3.69,3.69,0,0,0-3.1-4.1c-1.8-.4-4.9,2.5-6.2,4.4A38.21,38.21,0,0,0,411.59,884.43Z" transform="translate(-289.79 -164.32)"/><path class="cls-1" d="M478.09,910.24c.6-2.1.9-3.6,1.3-5.1,1.2-4.8,2.5-9.6,3.6-14.31-3.6.61-8.2,1.41-11.8,2.11-.4,1.9-.7,3.8-1,5.6-.6,3.4-1.2,7.1-2,10.6q-.3,1.8-.6,3.3a36.77,36.77,0,0,1-7.1.8,14.21,14.21,0,0,1-4.1-.5,32,32,0,0,1,.7-4.9c.6-3,1.5-6.4,2.2-9,1.2-4.4,2.2-8.71,3.1-13.1,1.2-5,2.5-10.21,3.6-15.31.4-1.6.6-3.1.9-4.7.8-4.3,1.7-8.6,2.5-12.8.2-1.1.4-2.4.7-3.5A95.08,95.08,0,0,1,482,848c-.1,1.1-.3,2.3-.5,3.5-.4,2-.9,3.8-1.4,5.6-1.1,4.6-2.3,9.2-3.6,13.9-1.1,3.8-1.8,7.7-2.7,11.51,2.8-.61,7.1-1.61,11.5-2.31,1.1-5.2,2.1-10.4,3.2-15.4.6-2.8,1.2-5.6,1.7-8.4s1.3-5.5,1.7-8.2c.1-1,.3-2,.4-3.1,2.8-.5,7.6-1.3,11.1-1.6a35.89,35.89,0,0,1-.8,3.5c-.5,3.1-1.2,6-2.2,10.1-.3,1.7-.7,3.2-1,4.8-1.4,6.6-2.7,13.2-4.1,19.9-.2,1.1-.4,2.3-.7,3.41-1.6,7.7-2.7,15.3-4.4,22.9A119.61,119.61,0,0,1,478.09,910.24Z" transform="translate(-289.79 -164.32)"/><path class="cls-1" d="M530.49,898c.4,1.9.7,6.4,1.1,9.9-1.9.9-4.1,1.8-6,2.5a41.12,41.12,0,0,1-9.8,2.3,18.16,18.16,0,0,1-3.2.3,17.3,17.3,0,0,1-5.6-.9,7.28,7.28,0,0,1-4.4-4.5,25.34,25.34,0,0,1-2.2-8.7,19.15,19.15,0,0,1,.4-5.8c.3-1.31.7-2.81,1.3-4.7a60.86,60.86,0,0,1,5.4-11.61c1.6-2.3,3.4-4.7,5.2-6.8a34.54,34.54,0,0,1,5.6-5.2,13.34,13.34,0,0,1,6.9-3,13.84,13.84,0,0,1,4.6.6c5.2,1.5,8.5,8.5,7.2,14.4a123,123,0,0,1-4.6,15.81l-21.4,2.3c.1,1.3.1,3,.2,3.5.6,2,1.7,3.9,3.7,4.3C516.69,902.94,519.69,902.84,530.49,898Zm-16.2-13.61,10.8-.89a23.7,23.7,0,0,0,1.6-5.11,3.69,3.69,0,0,0-3.1-4.1c-1.8-.4-4.9,2.5-6.2,4.4A38.21,38.21,0,0,0,514.29,884.43Z" transform="translate(-289.79 -164.32)"/><path class="cls-1" d="M551,910.24c-4.2,1.1-9.5,2-11.9,2.4.4-2.1,1-4.3,1.4-6.1,1.6-7.2,3.7-14.4,5.2-21.61,1.9-9.3,4-18.6,5.9-27.9.8-3.5,1.5-7.2,2.3-10.7,2.5-.6,6.4-1.6,10.6-2.2-.3,1.2-.6,2.4-.8,3.7-.6,2.3-1.1,4.7-1.6,7-2,9.1-3.5,18-5.5,27.21C554.39,891.54,553,900.84,551,910.24Z" transform="translate(-289.79 -164.32)"/><path class="cls-1" d="M599.09,884.93c-4.5,8.51-14.1,16.51-23.8,19.31-1.2,5.1-1.7,9.2-2.9,13.5-.1.5-1,4.5-1.5,6.4a57.1,57.1,0,0,1-10.9.9c.6-4.2,3.7-15.4,4.3-17.6,0,0,2-8.2,3.7-16,.9-4.31,1.3-8.31,2.2-12.41a36.54,36.54,0,0,0,1-6.5c-.1,0-2,.1-3.5.1a60,60,0,0,1,3.3-11.3c1.4,0,3.2-.1,4.8-.1s3,.1,3.5.1a26.29,26.29,0,0,1,8.5,1.8c5.7,2.7,9.7,6.5,11.6,12.8C600.29,878.93,600.79,881.73,599.09,884.93Zm-10.1-3.4c-.6-2.1-2.8-4.6-4.3-5.8a20.09,20.09,0,0,0-3.5-1.9c-.4,1.6-.6,3.3-1,4.9-.7,3.4-2.5,13.91-2.5,13.91C580,891.83,590.69,885.74,589,881.53Z" transform="translate(-289.79 -164.32)"/><path class="cls-1" d="M668.59,874.13c-1.6,5.9-5.1,11.11-10.5,17.11A71.3,71.3,0,0,1,641,905.44c-2.59,1.7-5.29,2.7-8.4,4.4-1.3.7-4.1,1.6-5.4,2.1a33.74,33.74,0,0,1-3.4,1,22.09,22.09,0,0,1,.3-3.9,42.09,42.09,0,0,1,.9-4.9c.8-3.1,1.5-6.2,2.3-9.3,1.4-6.1,3-11.91,4.41-17.91.29-1.6.69-3.3.89-4.9.9-5,1.81-10.2,2.7-15.1-1.39-.4-3-.2-4.7-.5,1.2-4.2,3.11-9.4,4-11.9,4.2.2,6.71-.1,11.31,1.6a53.75,53.75,0,0,1,5.1,2,19.65,19.65,0,0,1,2.5,1.3,24.12,24.12,0,0,1,5.7,4.3,46.87,46.87,0,0,1,5.7,7.4,18,18,0,0,1,3,6.4C668.29,869.43,669.29,871.83,668.59,874.13Zm-12.6,4.4a7.45,7.45,0,0,0,1.3-2.9c1.4-6.9-6.3-14.7-11.5-16.8-.4,1.3-1.2,4.7-1.5,6.2-.5,3.1-1.3,6.4-1.8,9.5-.3,1.7-.8,4.1-1.1,5.8-.5,3.21-1.41,5.71-2.1,8.8-.4,2.11-.7,3.7-1.4,6.31A47.3,47.3,0,0,0,656,878.53Z" transform="translate(-289.79 -164.32)"/><path class="cls-1" d="M699.39,898c.4,1.9.7,6.4,1.1,9.9-1.9.9-4.1,1.8-6,2.5a41.12,41.12,0,0,1-9.8,2.3,18.16,18.16,0,0,1-3.2.3,17.3,17.3,0,0,1-5.6-.9,7.32,7.32,0,0,1-4.41-4.5,25.8,25.8,0,0,1-2.2-8.7,19.16,19.16,0,0,1,.41-5.8c.29-1.31.7-2.81,1.29-4.7a61.52,61.52,0,0,1,5.41-11.61c1.6-2.3,3.4-4.7,5.2-6.8a34.54,34.54,0,0,1,5.6-5.2,13.34,13.34,0,0,1,6.9-3,13.84,13.84,0,0,1,4.6.6c5.2,1.5,8.5,8.5,7.2,14.4a123,123,0,0,1-4.6,15.81l-21.4,2.3c.1,1.3.1,3,.2,3.5.6,2,1.7,3.9,3.7,4.3C685.59,902.94,688.59,902.84,699.39,898Zm-16.2-13.61,10.8-.89a23.7,23.7,0,0,0,1.6-5.11,3.69,3.69,0,0,0-3.1-4.1c-1.8-.4-4.9,2.5-6.2,4.4A38.21,38.21,0,0,0,683.19,884.43Z" transform="translate(-289.79 -164.32)"/><path class="cls-1" d="M727.48,891.14c-1,5.4-2.7,14.3-3.5,19.8a94.23,94.23,0,0,1-10.5,1.6c.6-6.3,2.3-15.2,3.3-21.1.2-1.61.6-3.4.9-5.11-1.4.5-2.5.8-3.5,1.1-.3-3.7-.5-7.7-.5-10a30.3,30.3,0,0,1,6.4-2.2c.4-2,.9-4,1.4-5.8,1.5-5.8,2.5-10.8,5.6-16,2.6-4.5,9.3-11,14.5-10.1a23.21,23.21,0,0,1,12.11,6.6,72.6,72.6,0,0,1-6.91,8.9c-2.2-1.1-4.59-3.2-6.9-3.2a4.49,4.49,0,0,0-3.6,2c-3.3,4.2-4,10.3-4.7,14.8,2.8-.7,5.6-1.4,8.61-2a19.51,19.51,0,0,1,3.5-.4,64.43,64.43,0,0,1-1,10.5c-3.41.4-10.51,1.4-13.61,2.7C728.58,885.63,728.08,888,727.48,891.14Z" transform="translate(-289.79 -164.32)"/><path class="cls-1" d="M776.39,898c.39,1.9.7,6.4,1.09,9.9-1.89.9-4.09,1.8-6,2.5a41.12,41.12,0,0,1-9.8,2.3,18.16,18.16,0,0,1-3.2.3,17.3,17.3,0,0,1-5.6-.9,7.28,7.28,0,0,1-4.4-4.5,25.34,25.34,0,0,1-2.2-8.7,19.15,19.15,0,0,1,.4-5.8c.3-1.31.7-2.81,1.3-4.7a60.86,60.86,0,0,1,5.4-11.61c1.6-2.3,3.4-4.7,5.2-6.8a34.54,34.54,0,0,1,5.6-5.2,13.34,13.34,0,0,1,6.9-3,13.9,13.9,0,0,1,4.61.6c5.2,1.5,8.5,8.5,7.2,14.4a121.55,121.55,0,0,1-4.61,15.81l-21.4,2.3c.1,1.3.1,3,.2,3.5.6,2,1.7,3.9,3.7,4.3C762.58,902.94,765.58,902.84,776.39,898Zm-16.21-13.61,10.8-.89a23.7,23.7,0,0,0,1.6-5.11,3.69,3.69,0,0,0-3.1-4.1c-1.8-.4-4.9,2.5-6.2,4.4A38.21,38.21,0,0,0,760.18,884.43Z" transform="translate(-289.79 -164.32)"/><path class="cls-1" d="M806.38,913.74c-.2-4.9,1.4-11.9,2.1-16.8,1-6.5,2.8-13,3.7-19.81.5-2.9-3.7,1.4-5,2.4a29.67,29.67,0,0,0-7,8.6c-1.8,8.41-2.8,15.51-4.3,22.71-4.2.8-9.2,1.5-11.7,1.8.3-1.6.9-3.2,1.2-4.7,1.2-5.4,2.9-10.9,4.1-16.5q2.25-10.52,4.5-21.31c.6-2.7,1.2-5.4,1.8-8.2,2.4-.5,6.2-1.1,10.2-1.6-1.2,3.8-1.8,7.8-2.6,11.6a46.18,46.18,0,0,1,6.1-5.8c3.3-2.6,8.1-6,11.8-5.4,1.41.2,3.5,1.5,3.91,3.1.7,2.9-.91,7.6-1.5,10.4-.61,3.3-1.5,6.5-2.31,9.81-.5,1.89-1,3.79-1.5,5.9a91.44,91.44,0,0,0-2.2,20.1C815.48,910.94,811.28,912,806.38,913.74Z" transform="translate(-289.79 -164.32)"/><path class="cls-1" d="M850.78,913.24s.1-4,.5-9.3c-3.7,2.1-7.2,3.9-10.9,5.8a16.65,16.65,0,0,1-6.8,1.7c-1.8,0-3.5-.4-4.5-1.7-2.3-2.9-1.5-7.6-.7-11.4,1-4.7,2.6-9.3,4-13.8a40.34,40.34,0,0,1,6.6-13.31c3.1-3.9,6.3-6.4,11.1-7.2a13.44,13.44,0,0,1,6.3.5,12.2,12.2,0,0,1,1.7.7c1.3-4.8,2.6-9.5,4.1-14.3.3-1.1,1.2-4.4,1.7-5.8,2.1-.3,7.8-1.1,11.1-.6-.4,2-2.1,5.6-2.5,7.2-1.3,5.1-3,10.9-4.4,16.1-1.2,5.1-2.6,10.2-3.6,15.21-1.3,6.79-3.3,19-2.2,25.8C859.88,910.34,854.58,911.94,850.78,913.24Zm-3.3-17.5c1.9-1,3.4-1.91,4.6-2.7.9-5.41,1.8-10.91,3.1-16.31-1.6-1.1-3.4-2.4-4.8-2-2.4.6-3.6,2.4-4.7,4.1-1.7,2.8-2.9,6.5-4.1,9.3a30.8,30.8,0,0,0-2.3,8.31c-.4,2.5-.1,3.2,2.6,2.2A42.49,42.49,0,0,0,847.48,895.74Z" transform="translate(-289.79 -164.32)"/><path class="cls-1" d="M881.38,911c-4.1.8-9.2,1.3-11.7,1.6.3-1.3.8-2.7,1.1-4,1.1-4.6,2.6-9.3,3.6-13.9,1.2-6,2.5-12,3.7-18,.5-2.3,1-4.6,1.6-7,2.4-.4,6.2-.9,10.2-1.3q-.3,1.05-.6,2.4c-.3,1.3-.6,2.5-.8,3.7-1.3,6.2-2.3,12.21-3.8,18.41C883.38,899,882.58,905,881.38,911Zm13.5-60.71c-.2,0-4.5.6-6.9,1.1a71.87,71.87,0,0,0-7.6,2.3l-.5,10.2,3.6-1c1.1-.4,10.1-2.1,10.1-2.1C893.88,859.53,894.88,850.33,894.88,850.33Z" transform="translate(-289.79 -164.32)"/><path class="cls-1" d="M913.08,913.74c-.2-4.9,1.4-11.9,2.1-16.8,1-6.5,2.8-13,3.7-19.81.5-2.9-3.7,1.4-5,2.4a29.67,29.67,0,0,0-7,8.6c-1.8,8.41-2.8,15.51-4.3,22.71-4.2.8-9.2,1.5-11.7,1.8.3-1.6.9-3.2,1.2-4.7,1.2-5.4,2.9-10.9,4.1-16.5q2.25-10.52,4.5-21.31c.6-2.7,1.2-5.4,1.8-8.2,2.4-.5,6.2-1.1,10.2-1.6-1.2,3.8-1.8,7.8-2.6,11.6a46.18,46.18,0,0,1,6.1-5.8c3.3-2.6,8.1-6,11.8-5.4,1.4.2,3.5,1.5,3.9,3.1.7,2.9-.9,7.6-1.5,10.4-.6,3.3-1.5,6.5-2.3,9.81-.5,1.89-1,3.79-1.5,5.9a91.44,91.44,0,0,0-2.2,20.1C922.18,910.94,918,912,913.08,913.74Z" transform="translate(-289.79 -164.32)"/><path class="cls-1" d="M978.38,863.73a60.06,60.06,0,0,0-3.6,7.2c-1,2.7-1.6,4.9-2.8,9.3-1.8,6.31-2.6,10.1-3.8,15.11-.4,1.8-.7,3.6-1.2,5.7-.5,2.4-.9,4.4-1.4,6.7a14.41,14.41,0,0,1-3.9,7c-3.7,4.6-11.1,10-16.4,11.2-4.7,1.2-8.4-2.6-11.1-5.4a8.7,8.7,0,0,1-1.8-3.6,83.79,83.79,0,0,1,8-7c.3.4.5.9.8,1.3a12,12,0,0,0,3.5,3.6c1.5,1.1,4.2-.8,5.9-1.9,4.1-2.8,5.3-4,6.1-8.6.3-1.7.6-3.5.9-5.2-2.8,1.5-5.6,2.9-8.6,4.4a15.9,15.9,0,0,1-6.8,1.7c-1.8,0-3.4-.4-4.4-1.7-2.5-2.9-1.5-7.6-.6-11.4a48,48,0,0,1,3.3-10.91,41.87,41.87,0,0,1,6.1-11.1c3.2-3.9,6.3-6.5,11.1-7.2a15,15,0,0,1,6.3.4,21.12,21.12,0,0,1,3.3,1.8,27.34,27.34,0,0,1,2.2-4.1C971.78,861.13,976.08,862.63,978.38,863.73Zm-22.2,25.81c1.6-.91,3.1-1.8,4.3-2.5,1-3.5,2.2-7.21,3.1-10.81-1.8-1.2-3.9-3.1-5.6-2.6-2.4.7-3.6,2.3-4.7,4.2a45.38,45.38,0,0,0-5.3,12.41c-.6,2.5-.2,3.2,2.6,2.2A49.8,49.8,0,0,0,956.18,889.54Z" transform="translate(-289.79 -164.32)"/><path class="cls-1" d="M1041.88,851.53c-1.5,2.7-2.9,5.4-4.3,8.2-1.3,2.2-3.1,5.5-4.3,7.7-3.2,5.7-5.7,10.3-8.7,16.11-5.2,9.9-10.2,19.5-15.2,29.2a47,47,0,0,1-11.1-3.1,18.61,18.61,0,0,1,1.4-2.5c3.5-6.3,7.2-12.6,10.7-18.9.6-2.61-.5-7.71-.7-9.71-.4-3.9-.8-7.7-1.5-11.6a131.06,131.06,0,0,0-3-14.4,127.94,127.94,0,0,1,12.1-5.6,7.72,7.72,0,0,1,.2,1.5c1.1,6,1.8,12.2,2.7,18.3.1.9.3,1.9.5,2.9,2.9-5.5,5.5-11.1,8.4-16.6,1.5-2.8,2.8-5.8,4.5-8.7a77.9,77.9,0,0,1,10.5,3.3C1043.38,848.93,1042.48,850.33,1041.88,851.53Z" transform="translate(-289.79 -164.32)"/><path class="cls-1" d="M1068.68,886.54a66.19,66.19,0,0,1-3.4,9.4,50.9,50.9,0,0,1-4.6,7.4,34.43,34.43,0,0,1-6.8,6.4,13.72,13.72,0,0,1-7.7,2.5,17.53,17.53,0,0,1-3.3-.4c-9-1.7-13.4-11.5-10.6-20.7,2-6.31,4.4-12.71,8.6-18.41,3.3-4.6,9.4-10.2,14.9-10.9,4.7-.6,8,1.8,10.3,4.9a17.8,17.8,0,0,1,2.8,8C1069.38,878.83,1069.88,881.43,1068.68,886.54Zm-10.6-.61c.2-1.1.4-2.2.6-3.39.4-2.71-1.5-10.51-5.8-8.21-3.5,1.9-5.9,6.8-7.4,10a22,22,0,0,0-2.1,5.71,14,14,0,0,0-.1,5c.3,2.3,2.3,7.2,5.5,6s5.6-6,6.9-8.71A54.14,54.14,0,0,0,1058.08,885.93Z" transform="translate(-289.79 -164.32)"/><path class="cls-1" d="M1094.48,913c-1.1-2-1-5.2-.9-7.5-4.1,2.8-8.5,5.5-13,5.8-2.8.2-5.8-.2-7.3-2.3-1.3-2.1-.9-6.1-.5-8.5.9-4.9,1.7-8.8,2.7-12.71,1.8-7.2,3.4-14.6,6-21.6a30,30,0,0,1,1.5-3.6,78.94,78.94,0,0,1,10.8,1.1,263.57,263.57,0,0,0-9.6,33c-.1.7-.7,3.1.6,3.2a4.13,4.13,0,0,0,1.8-.7,47.84,47.84,0,0,0,8.9-6.6l3.4-17.11c1.2-5.6,2.6-11.3,2.7-12.2a47.2,47.2,0,0,1,11.7-2.1c-.3,1.2-1.7,6.5-2.9,11.8-2.3,10.4-2.4,10.1-3.5,15.41a48.61,48.61,0,0,0-1.3,8.1c-.1,1.9-.4,3.6-.5,5.4a18.46,18.46,0,0,0,.9,6C1104.48,909.54,1098.58,911.94,1094.48,913Z" transform="translate(-289.79 -164.32)"/><path class="cls-1" d="M1136.78,878.23a60.2,60.2,0,0,0-7.4,5.81c-.5,2-.9,4.09-1.3,6.2-1.6,6.9-2.5,13.8-3.9,20.6-4.2.9-9.3,1.5-11.7,1.8.3-1.5.7-3.1,1.1-4.5,1.2-5.2,2.7-10.5,3.9-15.81,1.5-6.79,2.9-13.6,4.3-20.4.6-2.7,1.3-5.3,1.9-8,2.3-.4,6.2-1.1,10.1-1.5q-.3,1.2-.6,2.7c-.4,1.5-.7,3.1-1.1,4.6,1.8-1.3,3.7-2.6,5.5-3.8,2.5-1.7,5.5-4.1,8.3-5a21.33,21.33,0,0,1,2.5,10.4A90.89,90.89,0,0,0,1136.78,878.23Z" transform="translate(-289.79 -164.32)"/><path class="cls-1" d="M1209,903.74c-1.5,1.9-7.6,5.8-9.9,7.1-3,1.7-5.7,2-8.7,2.4-4.1.5-9-1.6-12-4.4-3.6-3.5-5.7-7.6-7-13.2a18.68,18.68,0,0,1,0-9.1,35.06,35.06,0,0,1,2.2-6.71,124.81,124.81,0,0,1,7.3-14.1,72.52,72.52,0,0,1,9-11.5,42.07,42.07,0,0,1,13.3-9.1,12.32,12.32,0,0,1,7.1-.4c1.8.6,4.4,1.8,4.5,5.5a44.21,44.21,0,0,1-1.5,13.3c-.2.9-.5,2.5-.9,4.6-.7,3.2-1.6,7.4-2.9,11.6-3.5.2-8.5.3-10.9.6,1.3-4.8,2.5-10.4,3.5-14.5.7-2.2,2-9.7-1.7-7.3a25.07,25.07,0,0,0-6.1,5.2c-3.4,4-6.6,9.6-9.2,14.4a34.28,34.28,0,0,0-3.1,7.8c-.5,2.2-.6,5.81.3,7.51,1.7,3.4,3.6,7.3,6.7,8.7,2.7,1.1,5.6.1,8.5-1.8a42,42,0,0,0,5.7-4.2A25.58,25.58,0,0,1,1209,903.74Z" transform="translate(-289.79 -164.32)"/><path class="cls-1" d="M1225.78,911c-4.1.8-9.2,1.3-11.7,1.6.3-1.3.8-2.7,1.1-4,1.1-4.6,2.6-9.3,3.6-13.9,1.2-6,2.5-12,3.7-18,.5-2.3,1-4.6,1.6-7,2.4-.4,6.2-.9,10.2-1.3q-.3,1.05-.6,2.4c-.3,1.3-.6,2.5-.8,3.7-1.3,6.2-2.3,12.21-3.8,18.41C1227.78,899,1227,905,1225.78,911Zm13.5-60.71c-.2,0-4.5.6-6.9,1.1a71.87,71.87,0,0,0-7.6,2.3l-.5,10.2,3.6-1c1.1-.4,10.1-2.1,10.1-2.1C1238.28,859.53,1239.28,850.33,1239.28,850.33Z" transform="translate(-289.79 -164.32)"/><path class="cls-1" d="M1280.48,864c-1.8,2.7-6,10.2-7.5,12.9-3.3,5.4-5.8,11.2-8.5,16.71-1.6,3.3-3,6.5-4.4,9.8l-2.9,7.6c-1.6.3-5.6.4-7.2.6-1.9.3-4.1.2-5.9.7,0-3.1.3-6.3.4-9.5,0-6,.19-12.1.4-18.1.1-3.41-.1-6.51-.21-9.81,0-2.3-.5-6.8-.39-10.4.89-.4,11.3-3.1,11.3-3.2a86.31,86.31,0,0,1,.2,14.3c-.1,4.1,0,11.61-.3,15.7,1.4-3.9,4.9-10.5,6.3-14.2,1.1-2.6,2.4-5,3.6-7.5.5-1.1,4-8.2,5-9.9A71.35,71.35,0,0,1,1280.48,864Z" transform="translate(-289.79 -164.32)"/><path class="cls-1" d="M1289.88,911c-4.11.8-9.21,1.3-11.71,1.6.3-1.3.8-2.7,1.1-4,1.1-4.6,2.6-9.3,3.6-13.9,1.2-6,2.5-12,3.7-18,.5-2.3,1-4.6,1.6-7,2.41-.4,6.21-.9,10.21-1.3-.21.7-.4,1.5-.6,2.4-.3,1.3-.61,2.5-.8,3.7-1.31,6.2-2.31,12.21-3.81,18.41C1291.88,899,1291.08,905,1289.88,911Zm13.5-60.71c-.2,0-4.5.6-6.9,1.1a71.87,71.87,0,0,0-7.6,2.3l-.5,10.2,3.59-1c1.11-.4,10.11-2.1,10.11-2.1C1302.38,859.53,1303.38,850.33,1303.38,850.33Z" transform="translate(-289.79 -164.32)"/><path class="cls-1" d="M1312.07,910.24c-4.2,1.1-9.5,2-11.9,2.4.4-2.1,1-4.3,1.4-6.1,1.6-7.2,3.7-14.4,5.2-21.61,1.9-9.3,4-18.6,5.9-27.9.8-3.5,1.5-7.2,2.3-10.7,2.5-.6,6.4-1.6,10.6-2.2-.3,1.2-.6,2.4-.8,3.7-.6,2.3-1.1,4.7-1.6,7-2,9.1-3.5,18-5.5,27.21C1315.47,891.54,1314.07,900.84,1312.07,910.24Z" transform="translate(-289.79 -164.32)"/><path class="cls-1" d="M1382.57,907.24a60.35,60.35,0,0,1-10.8,7.2c-.6-.9-1.2-2-1.8-3a73.36,73.36,0,0,1-4.7-13.9,77.11,77.11,0,0,1-1.7-8.8c-.5.2-2.9,1.3-3.5,1.5-.8,3.9-1.6,7.8-2.4,11.6-.2,1.1-.5,2.5-.8,4a39.9,39.9,0,0,1-1.4,5.3,83,83,0,0,1-8.7.5,27.25,27.25,0,0,1-3.1-.1c1.1-3.9,2.4-7.6,3.3-11.9.6-2.9.9-4.3,1.5-6.6,1.1-4.91,2.1-9.81,3.2-14.71,1.3-6.4,2-12.8,3.2-19.2a27.41,27.41,0,0,0,.5-2.8c-1.1,0-2.3-.1-3.6,0,1-5.4,2.6-11.5,2.6-11.5,1,.1,2,0,4.1,0,1.2,0,2.7,0,4.7.1a45.51,45.51,0,0,1,10,1.4c6.5,2.1,10.6,4.5,12.9,8.3a23.26,23.26,0,0,1,2.7,4.8,15.74,15.74,0,0,1,1,7.1,19.33,19.33,0,0,1-6.1,10.4,45.26,45.26,0,0,1-9.7,7,41.93,41.93,0,0,0,3.1,12.91C1378.67,900.34,1380.07,904.24,1382.57,907.24Zm-15.7-50.51a37,37,0,0,1-.8,4.8c-.4,1.9-.9,4-1.4,6-.9,3.7-1.7,7.3-2.3,11a27.63,27.63,0,0,0,5.3-2.3c3.6-1.6,9.6-4.3,10.7-8.4,1-3.8-3.3-7.6-6-9.1A14.51,14.51,0,0,0,1366.87,856.73Z" transform="translate(-289.79 -164.32)"/><path class="cls-1" d="M1400.57,911c-4.1.8-9.2,1.3-11.7,1.6.3-1.3.8-2.7,1.1-4,1.1-4.6,2.6-9.3,3.6-13.9,1.2-6,2.5-12,3.7-18,.5-2.3,1-4.6,1.6-7,2.4-.4,6.2-.9,10.2-1.3q-.3,1.05-.6,2.4c-.3,1.3-.6,2.5-.8,3.7-1.3,6.2-2.3,12.21-3.8,18.41C1402.57,899,1401.77,905,1400.57,911Zm13.5-60.71c-.2,0-4.5.6-6.9,1.1a71.87,71.87,0,0,0-7.6,2.3l-.5,10.2,3.6-1c1.1-.4,10.1-2.1,10.1-2.1C1413.07,859.53,1414.07,850.33,1414.07,850.33Z" transform="translate(-289.79 -164.32)"/><path class="cls-1" d="M1455.87,863.73a60.06,60.06,0,0,0-3.6,7.2c-1,2.7-1.6,4.9-2.8,9.3-1.8,6.31-2.6,10.1-3.8,15.11-.4,1.8-.7,3.6-1.2,5.7-.5,2.4-.9,4.4-1.4,6.7a14.41,14.41,0,0,1-3.9,7c-3.7,4.6-11.1,10-16.4,11.2-4.7,1.2-8.4-2.6-11.1-5.4a8.7,8.7,0,0,1-1.8-3.6,83.79,83.79,0,0,1,8-7c.3.4.5.9.8,1.3a12,12,0,0,0,3.5,3.6c1.5,1.1,4.2-.8,5.9-1.9,4.1-2.8,5.3-4,6.1-8.6.3-1.7.6-3.5.9-5.2-2.8,1.5-5.6,2.9-8.6,4.4a15.9,15.9,0,0,1-6.8,1.7c-1.8,0-3.4-.4-4.4-1.7-2.5-2.9-1.5-7.6-.6-11.4a48,48,0,0,1,3.3-10.91,41.87,41.87,0,0,1,6.1-11.1c3.2-3.9,6.3-6.5,11.1-7.2a15,15,0,0,1,6.3.4,21.12,21.12,0,0,1,3.3,1.8,27.34,27.34,0,0,1,2.2-4.1C1449.27,861.13,1453.57,862.63,1455.87,863.73Zm-22.2,25.81c1.6-.91,3.1-1.8,4.3-2.5,1-3.5,2.2-7.21,3.1-10.81-1.8-1.2-3.9-3.1-5.6-2.6-2.4.7-3.6,2.3-4.7,4.2a45.38,45.38,0,0,0-5.3,12.41c-.6,2.5-.2,3.2,2.6,2.2A49.8,49.8,0,0,0,1433.67,889.54Z" transform="translate(-289.79 -164.32)"/><path class="cls-1" d="M1475.07,915.24c-.1-.6-.2-1-.3-1.5-.6-4.6.1-10.7,1.2-15.7,1.2-6.8,3.1-13.91,3.8-20.41-1.7.2-4.7,2.9-5.7,4-1.7,1.91-3.8,3.7-5,5.7-1.5,7.61-2.8,15.31-4.4,22.91-4.2,1.1-9.3,2-11.7,2.4.4-2.1.9-4.3,1.4-6.1,1.6-7.2,3.6-14.4,5.1-21.61l6-27.9c.7-3.5,1.6-7.2,2.3-10.7a105.65,105.65,0,0,1,10.4-2.2c-.3,1.2-.5,2.4-.8,3.7-.6,2.4-1.1,5-1.7,7.4-1.2,5.4-2.2,10.8-3.2,16.2a22.64,22.64,0,0,1,2.8-2.5,63.8,63.8,0,0,1,8.2-5.3,13.1,13.1,0,0,1,6.1-1.5,4.06,4.06,0,0,1,3.5,3.8,19.26,19.26,0,0,1-.4,5.3c-.5,2.3-1.3,4.6-1.8,7-.9,4.6-2.7,9.4-3.4,14.1a82.14,82.14,0,0,0-1.3,11.81c0,2.7-.2,4.7.4,6.5A58.42,58.42,0,0,1,1475.07,915.24Z" transform="translate(-289.79 -164.32)"/><path class="cls-1" d="M1502.37,912.24c-.1-7.6,1.6-15.8,3.2-23.5.2-.91.4-1.91.7-3.11.1-.5.5-2.2,1-4.6-2.6.9-4.7,1.8-6.9,2.6a86.46,86.46,0,0,1-2-9.5,61.41,61.41,0,0,1,11.3-4.1c1.2-5.5,2.9-14,2.9-14l11.3-2.1c-.3,1.2-1.9,8.2-3.1,13.6,1.7-.3,3.3-.6,4.9-.8a41.7,41.7,0,0,1,4.4-.5,79.3,79.3,0,0,1,.1,9.9c-4,.8-7.8,1.4-11.7,2.2-.9,3.9-1.1,4.6-1.3,5.71-.5,1.89-1,3.79-1.5,5.9a95.91,95.91,0,0,0-2.4,19.1C1511.17,910.44,1506.67,911.64,1502.37,912.24Z" transform="translate(-289.79 -164.32)"/><path class="cls-1" d="M1565.47,898.74c-1.2,5.1-6.5,10.4-11.7,12.5a26.11,26.11,0,0,1-7.9,1.7c-2.9.2-8.1-.1-10.1-1.1a11.94,11.94,0,0,1-5.7-6.2,9,9,0,0,1,.1-4.6,16.54,16.54,0,0,1,2.6-6.3,53.34,53.34,0,0,1,9.9.9c-1,2.2-1.8,3.7-.3,5.5.5.8,2.3,1.4,4.5,1.4a11,11,0,0,0,6.4-1.9c2-1.7-3.1-4.7-5.8-6.5a62.42,62.42,0,0,1-8.4-6.81,8.35,8.35,0,0,1-2.5-8.4,14.91,14.91,0,0,1,1.4-3.7c4-6.8,13-14.9,22.3-14.9,3.1,0,6.4,1,7.2,4.4,1,3.8-1.1,10.3-2.2,15a22.77,22.77,0,0,1-5.6.6c-2.1,0-3.8-.2-4.8-.2.6-2.8,1.6-5.7,1.7-8.6-1.9,0-7.2,3.1-8.2,5.7-.9,2.3,3.5,5.7,6.3,7.9,1.7,1.11,3.3,2.3,4.9,3.5C1562.87,891.64,1566.57,893.33,1565.47,898.74Z" transform="translate(-289.79 -164.32)"/><path class="cls-2" d="M1321.82,175.73c7.9,1.48,23.67-2.23,24.67-.87s-14.77,2.23-23.9,3.39c5.78,2,19.72-.38,19.53,1.65s-15.9.35-23.24,1.48c4.15,1.5,15.39,1.51,14,3.15-.73.87-15.43-.31-51.33,10.46-20.9,6.27-39.08,10.85-44.12,13.44-1.61,9.37,8.36,9,10.52,15.15-6.46,2.42-17.16,2.5-20.26.67s-2.83-4-2.65-4.94c-10.55-2.3-11-2.63-17.62-13.9-4.52-7.71-27.06-8.55-37.66-12.7-2.09-.82-15.51-5-17.69-5.55-6.77-1.77-6.77-3.51-13.65-5.22-7.09-1.77-13.12-2.14-14.54-2.88s7.17-.48,9-1.53c-2.72-1.79-13.3-.89-17.8-1.24,2.54-2.54,9-1.54,12.8-2.54-4.94-1.88-15.74-.38-16.15-1.94s6.56.39,12.12.53c-6.11-2.09-14.19-3.44-14.19-5.13s7,2.26,11.11,2.41c-1.74-2.47-8.87-3.64-7.93-5.1s9.27,5.17,15.74,5.76c-1.35-2.49-4.34-3.59-5.89-5.91,5.26,1.68,8.54,6.73,15,8.16,6.73,1.48,21.64.41,28.1,1.4,22,3.34,14.76,2.86,38.89,19.37,1.85,1.27,5.13.26,7.06-1.29,6.07-.14,9.15,1.81,12.9,4.53,14.39-1.48,23.36-10.47,39.65-16.5,9.71-3.59,20.69-2.7,30.44-4.14s21.67-9.1,24.87-9.2-6.39,3.88-8.91,6.62c6.5.34,14-2.76,20.15-5.68,1.63-.77,3.65-2.74,5-1.54-5.19,3.34-11.6,5.24-17.38,7.88,8.83-.32,25.2-7,26.58-6.12S1332.87,172.78,1321.82,175.73Z" transform="translate(-289.79 -164.32)"/><path class="cls-3" d="M1469.68,508.06c9.09,1,35.91,11.56,52.85,11.62,12.55,0,25.77-6.89,37.4-11.6s21.81-15.33,22.07-27.88c.21-10.35-6.16-20.36-4.33-30.55,2.17-12.08,14.82-19.47,19.45-30.83,3.23-7.92,2.21-16.89,4-25.25,3-13.91,13.92-26.14,12.81-40.33-1.5-19.09-23.52-30.47-28.44-49-2.66-10,0-21.15-4.15-30.63-6.41-14.59-26-18.3-41.47-14.67s-29.55,12.37-45.21,15.25a63.44,63.44,0,0,1-51.53-13.61c-5-4.17-9.51-9.26-15.67-11.3-3.91-1.29-8.3-1.28-11.79-3.46-7-4.36-6.64-14.34-8.12-22.44a38.38,38.38,0,0,0-60.73-23.88c-5.61,4.2-10,9.89-15.91,13.7-12.17,7.89-27.86,6.33-42.35,6-3.21-.07-6.68,0-9.23,1.95-2.27,1.72-3.35,4.53-4.34,7.2-5,13.65-11,28-22.87,36.4-19.09,13.52-48.28,8-64.76,24.63-8.61,8.67-11.55,22.07-8.93,34s10.29,22.39,19.91,29.92c8.37,6.55,18.55,11.42,24.21,20.42,9.72,15.44,2.24,35.5,3.08,53.73,1.46,31.41,49.77,36.79,79.65,46.59s59,32.06,90.48,31.83C1427.42,505.67,1438.25,504.58,1469.68,508.06Z" transform="translate(-289.79 -164.32)"/><path class="cls-4" d="M812.78,458.91c-5.53-6.2-10.25-14.62-7.61-22.49,5.35-15.95,30.92-10.8,43.22-22.27,7-6.48,8.17-17.2,6.36-26.52s-6.12-18-8.67-27.11a74.33,74.33,0,0,1,1.38-44c1.43-4.11,3.35-8.26,6.77-11,4.6-3.63,10.92-3.92,16.77-3.89,33.42.19,70.58,4.7,96.77-16.06,11.42-9.06,19.09-21.88,27.61-33.71,16.82-23.34,38.61-44.2,65.66-54s59.9-6.68,81,12.82c6.54,6,11.85,13.42,19.12,18.54,7.54,5.31,16.66,7.81,24.94,11.88s16.32,10.61,18,19.68c3.59,19.41-22.41,32.2-25.51,51.69-2.59,16.28,13,31.12,29.38,33.14s32.4-5.4,46.35-14.18c11.76-7.4,24.83-16.33,38.33-13,12.61,3.12,20.21,15.9,24.68,28.1,5,13.55,7.85,28.19,5.71,42.46s-9.85,28.14-22.3,35.44c-20.84,12.23-47.84,3.58-71.09,10.19-18.62,5.29-33,19.76-49.39,30-24.57,15.34-53.94,21.19-82.83,23.25s-58,.61-86.85,2.73c-14.62,1.07-29.19,3.06-43.85,3.35-23.55.47-47.7-3.38-70.28,3.3-11.3,3.34-22.46,9.32-34.14,7.79-14-1.85-24.19-13.83-32.92-25C829.44,480.14,818.31,465.1,812.78,458.91Z" transform="translate(-289.79 -164.32)"/><path class="cls-5" d="M407.11,575.08H326.8v60l6.61,2.31h15.2L382,634.72v14.17L384.31,673l-2.65,6H325.81v32.76l3,10.24-4.3,57.18h-3.31l-12.55-3.31-17.19,1.32-1.65-30.07v-150l3-63.61H407.11Z" transform="translate(-289.79 -164.32)"/><path class="cls-5" d="M517.19,642.57l-1.05,4.5v27l-23.53,1.85,3.17,15.56,1.06.8,10.57,49.17-.79,3.18,9,39.25H491.28L463,675.09l-3.7.79h-8.46l-4.23-.79-2.91,1.32.8,52.84,1.58,5.82-.79,5.29,1.59,9v5l-2.65,9.78v11.23l.8,7.14H417l.79-8.46V690.65l-3.17-34.86,1.06-37.52V590l.53-4H514l2.38,3.17-.79,2.91v49.42Zm-29.34-6.34-.53-19.55H443.17v25.89l44.15,1.06Z" transform="translate(-289.79 -164.32)"/><path class="cls-5" d="M1343.56,647.07v27L1320,675.88l3.17,15.56,1.06.8,10.58,49.17-.8,3.18,9,39.25h-24.32l-28.29-108.75-3.7.79h-8.46l-4.23-.79-2.91,1.32,2.38,49.14-1.59,3.7,1.59,5.82-.8,5.29.44,10.57-1.49,13.22,1.22,11.23-.43,7.14h-28l-.43-8.46V690.65L1242,655.79l1-37.52V590l.53-4h97.83l1.58,6.08v49.42Zm-28.29-10.84-.53-19.55h-44.15v25.89l44.15,1.06Z" transform="translate(-289.79 -164.32)"/><path class="cls-5" d="M628.07,772.29l-10.32-.53-4,.79H535V760.66l-2.11-9.26V578.76l-2.38-1.06h90.15l5.56,2.12v28L622,606H571.22l-10.84.53-1.58,1.58v18.51l1.32,10V654.9l2.11,1.85h26.44l17.19-1.85.53,11.37-1.06,1.06,1.32,18.77H558.8L562,703.28V725l-.79,8.46,1.05,11.37h65.84Z" transform="translate(-289.79 -164.32)"/><path class="cls-5" d="M734.51,770.48l.8,11.63h-92l-4.23-87V630.88l-1.32-8.2V593.34h92l1.06,3.17v12.43l-.79,2.64,3.17,13.75H714.68l-45.47,2.38L667.09,629l-3.17,6.34,3.17,33.85,16.4-1.06,9.51,1.06,17.72,3.7-1,10.84,1,11.1v5.55l-43.63,2.38L666,705.44l-1.32,9.25v7.4l1.32,2.65v23l3.17,1.59H712.3l6.35-1.86,19-3.17Z" transform="translate(-289.79 -164.32)"/><path class="cls-5" d="M854.81,755.92l-2.12,1.85-8.19,10.84-5.82,9.25-21.15-1.05-67.68-1.06V760.41l-1.59-13.48,1.85.26,6.88,1.06,9-.53V617.12l-1.32-5.82-16.12,1.32-.8-3.7V593.59l-1.06-14,89.63,4.76,4.76,7.67,13.75,17.18Zm-63.6-140.77,3.7,46.27,1.58,10.84-2.38.79L797,699.49v18.77l-2.64,34.64h30.67l-1.85-16.66V614.09H806.28Z" transform="translate(-289.79 -164.32)"/><path class="cls-5" d="M978.21,782.81H876.68V659.87l-3.17-17.45V620.74l1.32-3.17V589l29.08,1.32h72.6s-.13,18.34-.44,43c0,2.29,1.94,3.63,1.91,6,0,2-2.06,5-2.08,7-.32,22-.77,46.94-1.39,68C973,765,978.21,782.81,978.21,782.81Zm-30.67-26V671.18l-2.65-48.91L943,619.09H902.59l2.91,44.69v93.06Z" transform="translate(-289.79 -164.32)"/><path class="cls-5" d="M995.65,661.78V635.87l1.59-5.29-1.32-2.64,4-43.89h25.64l7.14,20.36,2.91,2.9,8.91,32.79,2.12,6.87,4.23-15.86,21.68-47.86,20.28.8,2.12,1.58,1.92,10V765.15l-4.76,15.07h-22.47l-3.7-26.44v-42.3l2.11-42.3L1051.17,716l-3.7,15.07-4,1.05L1040.3,730,1038,716.51l-4-11.37L1031.87,693l-5.81-19,2.11,31.73v72.7l-2.91,1.85-4.49,1.59h-20.36l-1.58-3.44V762.25L997,759.6V743.74l-.52-15.34V717.56l-.57-15.86Z" transform="translate(-289.79 -164.32)"/><path class="cls-5" d="M1456.76,772.49l-10.31-.53-4,.8h-78.79v-11.9l-2.11-9.25V579l87.77-1.06,5.56,2.12v28l-4.23-1.85h-50.77l-10.84.53-1.58,1.59v18.51l1.32,10v18.25l2.12,1.85h26.43l17.19-1.85.53,11.36-1.06,1.06,1.32,18.77h-47.85l3.17,17.19v21.68l-.79,8.46,1.06,11.37h65.83Z" transform="translate(-289.79 -164.32)"/><path class="cls-5" d="M1565.65,767.09l.8,11.63h-92l-4.23-87V627.49l-1.32-8.19V590h92l1,3.17v12.43l2.38,16.39h-18.51l-45.47,2.38-2.12,1.32-3.17,6.35,3.17,36.29,16.4-1.06,9.52,1.06,17.71,1.25v10.84l-.83,7.4.83,3.7V697l-43.63,2.38-1,2.64-1.33,9.25v7.41l1.33,25.64,3.17,1.59h43.1l6.34-1.85,19-3.18Z" transform="translate(-289.79 -164.32)"/><path class="cls-6" d="M1583.61,764.75h-4.92V763h12v1.78h-4.94v14.4h-2.12Z" transform="translate(-289.79 -164.32)"/><path class="cls-6" d="M1606.1,772c-.12-2.25-.26-5-.24-7h-.07c-.55,1.89-1.22,3.91-2,6.14l-2.86,7.85h-1.58l-2.62-7.7c-.76-2.28-1.41-4.37-1.87-6.29h0c0,2-.16,4.73-.31,7.15l-.43,6.94h-2l1.13-16.18h2.66l2.76,7.82c.67,2,1.22,3.77,1.63,5.45h.07c.41-1.63,1-3.41,1.71-5.45l2.88-7.82h2.66l1,16.18h-2Z" transform="translate(-289.79 -164.32)"/><path class="cls-2" d="M1558.75,435.42l-57.83,6.65-35.8,29.07L1417.38,465l-48.84,6.12h0l34.15-35.49.29-.79,50.51-18.3,16.32-2.38,29.24,4.08,10.88,1.7-5.78-4.08L1481,410.1l17.34-11.9,5.78-15.64-8.5,12.58-21.42,12.92h-16.32l-49.28,11.65,14.26-38.23,42.23-25.7,54.16,6.43,36.26,3.21,23.18,11.93-20-16.52-35.34-5.05,29.37-24.33,8.27-40s-11.48,35-12.4,36.37-29.37,22.49-29.37,22.49l-54.16-7.34-42.23,27.54-4.62-32.06,1.86-2.83L1472.92,314l-53.25,14.23.23-48.19-4.73,36.87-.09-.61-41.76-34.89L1360.46,253l7.35-39.24L1354,252.51l15.37,32.81-42-38.78-40.4.29,39,5.22,39,37.63,40.4,35.81,1.31,18.13-12.33,22.26L1343,386.07,1310,426l.92-55.54-22.49-34.89-4.59-46.35,6.89-15.15-11.94,15.15,2.76,41.31-20.66-34.43-25.7-1.38,22.95,6.43L1280.6,342l21.11,32.59L1286.5,454,1246,513.8,1215.14,543l-21.45,8.25-19.58-9.16-19.28-78,9.64-34.88s4.84-11.58,9.62-22.68l34-5.78,42.68,1.38,35.8,12.39-32.58-17-38.56-2.3,36.26-25.7,10.56-38.1-16.07,35.35-38.09,24.78-29.6,4.88c2.47-5.55,4.39-9.65,4.81-9.93,1.38-.91,31-20.88,31-20.88l-35.57,18.13-6.44,13.71-9.9,1.63-2.94-20.85-24.78-12.62,19.27,16.29,2.16,18.22-37,6.11,15.61-81.7,9.63-43.15,28.69-17-33.28,12.39-10.09,47.74-15.15-47.28L1091,261.69l-14.23-29.38,1.92-25.25-7,27.31,13.31,27.32-35.34-6L1022,269.26l28.61-7.57,36.72,5.5,21.11,14.23,15.15,43.15-12.85,79.63-10.12,23.27-20-59.76-4.29-52.78,10.1-20.66-15.15,17.45s1.38,47.27,0,49.11-15.14-22.95-15.14-22.95L1035,327.32,1053.85,342l17.44,25.7,24.4,71.17-15.06,34.65-21.27-69.33-66.1-72.75L993,279.13l-8,52.32H950.58L937.87,326l10.41,11.47L985,339.26,1021,376l30.14,33s6.65,40.74,12.88,59.67L1013.46,454,952,431.52l-45.9-62-9.49-31.44L899,369.55l-35.63-15.38L897.79,376l29.49,43.92-40.5,8.86-20.36-2.41,19.44,7.92L930,423.89l11,16.35,64.55,28s-70.06-8.73-72.52-8.73-67.64,9.41-67.64,9.41l-22.62-6.65-7.57-5.51,5.74,12.16,28.45,8,59.67-8,71.61,8,79.86,22,45.9,42.84,41.11,50,1.65,10.39,1.81,6.89-.71,6,2.28,26.76,2,13.22L1170,694.73l.52,6.18-2.36,9.89-3.67,32.05-1.89,5.77.74,4.22-1.6,14-11.55,18.9-15.67,10.8-28,7.75,29.84-1.61,18.37-10.07L1145,806l-11.67,9.85,19.1-9.54L1164,793l1.57-5.46,2.51,5.79-7.75,18,11.56-14.94,2.67-9.92,2.67,11.44,4.2,11.83,4.58,6.11-3.43-11.45L1181,794l4.69-7.24,1.32,3.71,2.82,15.07,7.18,6.13-3-9.18V791.38l1.26-3.36,6.39,7.31,5.26,12.67,12.74,9.67-8.34-15L1209.75,786l13.58,17,16.34,12.85-12.07-17.17-.6-8.21,9.67,8.53,18.33,5.33-16.35-10-10.34-12.57L1220,767.92l-1.68-8.06,1-5.8-3.29-5.25-3.83-18.4,1.65-11.89V655.4l1.32-12.23,3.59-30.74-.47-6.44,1.89-5.78,12.42-29.28,27.83-27.88,29.38-37.64,83.54-18.36,41.76-9.18,50,5.51,79.4,18.82L1473.38,476l29.37-24.71Zm-442.47-19.05,40.89-6.95.87,7.41-3.21,12.39L1142,466.86l-32.13-11.94-4.21-12.56ZM1092.41,477l-.82-.24,9.29-22.72,3.46,10.1,35.8,18.36,8.89,39.67Zm191.17,6.66,65.63-89.28,45.22-19.74,13.14-19.94,1.55,21.32-15.61,51.4-28.46,32.13Z" transform="translate(-289.79 -164.32)"/></svg>