<svg id="Freedom_Tree" data-name="Freedom Tree" xmlns="http://www.w3.org/2000/svg" viewBox="0 0 1087.18 212.93"><defs><style>.cls-1{fill:#fff;}</style></defs><title>FreedomTreeLogoTextOnly</title><path class="cls-1" d="M480.5,438.77H412.24v51l5.62,2h12.92l28.37-2.25v12l2,20.5-2.25,5.06H411.4v27.85l2.53,8.71-3.66,48.59h-2.81l-10.67-2.81-14.61,1.13L380.78,585V457.45l2.53-54.07H480.5Z" transform="translate(-380.78 -403.38)"/><path class="cls-1" d="M574.07,496.14l-.9,3.82v22.93l-20,1.57,2.7,13.23.9.67,9,41.8-.68,2.7,7.64,33.36H552.05l-24-92.43-3.14.67h-7.19l-3.6-.67-2.47,1.12.67,44.91,1.35,4.95-.67,4.49,1.34,7.64v4.27l-2.24,8.32V609l.67,6.07H488.9l.67-7.19V537l-2.69-29.63.9-31.89V451.44l.45-3.37h83.15l2,2.7-.68,2.47v42Zm-24.94-5.39-.45-16.61H511.15v22l37.53.9Z" transform="translate(-380.78 -403.38)"/><path class="cls-1" d="M1276.48,500v22.93l-20,1.57,2.7,13.23.9.67,9,41.8-.68,2.7,7.64,33.36h-20.67l-24-92.43-3.14.67H1221l-3.6-.67-2.47,1.12,2,41.77-1.35,3.14,1.35,4.95-.67,4.49.36,9-1.26,11.24,1,9.54-.37,6.07h-23.82l-.37-7.19V537l-1.65-29.63.9-31.89V451.44l.45-3.37h83.15l1.34,5.17v42Zm-24-9.21-.45-16.61h-37.53v22l37.53.9Z" transform="translate(-380.78 -403.38)"/><path class="cls-1" d="M668.31,606.41l-8.76-.46-3.37.68h-67V596.52l-1.8-7.87V441.9l-2-.9H662l4.72,1.8v23.82l-3.59-1.57H620l-9.22.45-1.35,1.35v15.73l1.13,8.54v15.51l1.8,1.57h22.47l14.61-1.57.45,9.66-.9.9,1.12,15.95H609.43l2.7,14.61v18.43l-.67,7.19.9,9.66h55.95Z" transform="translate(-380.78 -403.38)"/><path class="cls-1" d="M758.79,604.86l.68,9.89H681.26l-3.59-73.93V486.21l-1.13-7V454.29h78.21l.9,2.7v10.56L755,469.8l2.7,11.69H741.94l-38.65,2-1.8,1.12-2.7,5.4,2.7,28.76,13.93-.9,8.09.9,15.06,3.15-.87,9.21.87,9.44v4.72l-37.08,2-.9,2.25-1.12,7.87v6.29l1.12,2.24v19.56l2.7,1.35h36.63l5.39-1.58,16.18-2.69Z" transform="translate(-380.78 -403.38)"/><path class="cls-1" d="M861.05,592.49l-1.8,1.57-7,9.22-4.94,7.86-18-.9-57.53-.9v-13l-1.35-11.46,1.57.22,5.85.9,7.64-.45v-111l-1.13-4.95-13.71,1.13-.67-3.15v-13l-.9-11.92,76.18,4.05,4.05,6.52,11.69,14.6ZM807,472.84l3.15,39.33,1.35,9.21-2,.67,2.47,22.48v16l-2.25,29.44h26.07l-1.57-14.16V471.94H819.79Z" transform="translate(-380.78 -403.38)"/><path class="cls-1" d="M965.93,615.35H879.64V510.85L876.94,496V477.59l1.12-2.7V450.62l24.72,1.12h61.71s-.11,15.59-.37,36.55c0,1.95,1.65,3.08,1.62,5.11,0,1.68-1.75,4.22-1.77,5.94-.27,18.69-.65,39.91-1.18,57.8C961.51,600.21,965.93,615.35,965.93,615.35Zm-26.06-22.08V520.46l-2.25-41.57-1.58-2.7H901.66l2.47,38v79.1Z" transform="translate(-380.78 -403.38)"/><path class="cls-1" d="M980.76,512.47v-22l1.35-4.5L981,483.7l3.43-37.3h21.8l6.07,17.3,2.47,2.47,7.58,27.87,1.8,5.84,3.59-13.48,18.43-40.68,17.24.68,1.8,1.35,1.63,8.54V600.34l-4,12.81h-19.1l-3.15-22.47v-36l1.8-36L1028,558.54l-3.15,12.81-3.37.9-2.73-1.8-2-11.46-3.37-9.67-1.8-10.33-4.94-16.18,1.79,27v61.8l-2.47,1.58-3.82,1.35h-17.3l-1.35-2.93v-13.7l-1.57-2.25V582.13l-.45-13v-9.21L981,546.4Z" transform="translate(-380.78 -403.38)"/><path class="cls-1" d="M1372.7,606.58l-8.76-.45-3.37.67h-67V596.69l-1.8-7.87V442.08l74.61-.9,4.72,1.79V466.8l-3.6-1.58h-43.15l-9.21.45-1.35,1.35v15.73l1.13,8.54V506.8l1.79,1.57h22.48l14.6-1.57.45,9.66-.9.9,1.13,16h-40.68l2.7,14.6v18.43l-.67,7.19.89,9.67h56Z" transform="translate(-380.78 -403.38)"/><path class="cls-1" d="M1465.26,602l.68,9.89h-78.21l-3.59-73.93V483.33l-1.13-7V451.41h78.21l.9,2.7v10.56l2,13.94h-15.73l-38.65,2-1.8,1.12-2.7,5.4L1408,518l13.93-.9,8.09.9,15.06,1.07v9.21l-.71,6.29.71,3.15v4.72l-37.08,2-.9,2.25-1.13,7.87v6.29l1.13,21.8,2.7,1.35h36.63l5.39-1.58,16.18-2.69Z" transform="translate(-380.78 -403.38)"/><path class="cls-1" d="M1210.35,435.15h-42.56V616l-22.12-2-5,2.24-5.32-.28V557l-.56-2.53,1.12-1.67-2.24-24.92-1.12-1.41,2.8-6.71V435.15H1093V403.43h116.76v6.44l-.84,2.52,1.4,2.8Z" transform="translate(-380.78 -403.38)"/></svg>