<svg id="App_Icon_Mask" data-name="App Icon Mask" xmlns="http://www.w3.org/2000/svg" xmlns:xlink="http://www.w3.org/1999/xlink" viewBox="0 0 955.33 787.31"><defs><style>.cls-1{fill:none;}.cls-2{clip-path:url(#clip-path);}.cls-3{fill:#fff;}.cls-3,.cls-4,.cls-5{fill-rule:evenodd;}.cls-4{fill:#ff8821;}.cls-5{fill:#ffc029;}</style><clipPath id="clip-path" transform="translate(-464.54 -286)"><rect class="cls-1" x="701" y="286" width="512" height="512" rx="112.51" ry="112.51"/></clipPath></defs><title>FreedomTreeAppIcon</title><rect x="236.46" width="512" height="512" rx="112.51" ry="112.51"/><g class="cls-2"><path class="cls-3" d="M1075.05,315.85c9.33,1.75,27.93-2.62,29.11-1s-17.42,2.63-28.2,4c6.83,2.39,23.27-.45,23,1.95s-18.76.41-27.42,1.75c4.89,1.76,18.15,1.77,16.51,3.71-.86,1-18.2-.37-60.57,12.34-24.65,7.4-46.11,12.8-52,15.86-1.9,11.06,9.86,10.58,12.41,17.88-7.62,2.85-20.24,2.95-23.9.78s-3.35-4.74-3.13-5.82c-12.45-2.72-13-3.11-20.79-16.41-5.34-9.1-31.94-10.09-44.44-15-2.47-1-18.3-5.88-20.87-6.55-8-2.08-8-4.14-16.11-6.16-8.37-2.08-15.48-2.52-17.16-3.4s8.46-.56,10.61-1.8c-3.21-2.11-15.7-1.05-21-1.47,3-3,10.58-1.82,15.11-3-5.83-2.2-18.58-.44-19.06-2.28s7.75.46,14.31.63c-7.22-2.47-16.75-4.07-16.75-6.06s8.24,2.67,13.11,2.85c-2-2.92-10.46-4.3-9.36-6s10.94,6.1,18.58,6.8c-1.59-2.94-5.12-4.24-7-7,6.22,2,10.08,7.94,17.76,9.63,7.93,1.74,25.53.49,33.15,1.65,25.93,3.95,17.42,3.38,45.89,22.86,2.19,1.49,6,.31,8.33-1.53,7.16-.16,10.79,2.14,15.22,5.34,17-1.73,27.57-12.35,46.79-19.46,11.46-4.24,24.4-3.19,35.91-4.88s25.57-10.74,29.35-10.86-7.54,4.58-10.52,7.81c7.67.41,16.54-3.26,23.78-6.7,1.92-.91,4.31-3.23,6-1.82-6.13,3.95-13.69,6.18-20.51,9.3,10.43-.38,29.74-8.22,31.36-7.22S1088.09,312.38,1075.05,315.85Z" transform="translate(-464.54 -286)"/><path class="cls-4" d="M1249.52,708c10.73,1.21,42.37,13.65,62.36,13.71,14.81,0,30.41-8.13,44.14-13.69s25.72-18.08,26-32.89c.26-12.22-7.26-24-5.1-36,2.56-14.25,17.49-23,23-36.38,3.8-9.34,2.6-19.93,4.76-29.79,3.59-16.41,16.43-30.85,15.11-47.6-1.77-22.51-27.75-35.94-33.55-57.77-3.14-11.81,0-25-4.9-36.15-7.56-17.21-30.63-21.59-48.93-17.31s-34.87,14.6-53.35,18a74.86,74.86,0,0,1-60.8-16.06c-5.86-4.92-11.23-10.92-18.49-13.33-4.61-1.53-9.79-1.52-13.91-4.09-8.24-5.14-7.84-16.91-9.58-26.48a45.28,45.28,0,0,0-71.66-28.17c-6.62,4.95-11.84,11.67-18.78,16.17-14.35,9.31-32.86,7.46-50,7.08-3.78-.08-7.87,0-10.89,2.31-2.67,2-4,5.34-5.11,8.49-6,16.11-13,33-27,42.95-22.52,15.95-57,9.48-76.4,29.06-10.16,10.24-13.63,26-10.54,40.13s12.14,26.41,23.49,35.29c9.88,7.73,21.88,13.48,28.56,24.1,11.47,18.22,2.65,41.89,3.64,63.4,1.72,37.06,58.73,43.42,94,55s69.66,37.83,106.76,37.55C1199.65,705.17,1212.44,703.89,1249.52,708Z" transform="translate(-464.54 -286)"/><path class="cls-5" d="M474.41,650c-6.52-7.31-12.1-17.24-9-26.53,6.32-18.82,36.49-12.75,51-26.29,8.19-7.64,9.64-20.29,7.5-31.28s-7.22-21.2-10.22-32A87.7,87.7,0,0,1,515.33,482c1.69-4.85,3.95-9.75,8-12.93,5.42-4.28,12.88-4.63,19.79-4.59,39.43.22,83.28,5.55,114.18-18.95,13.48-10.69,22.53-25.82,32.58-39.78,19.84-27.54,45.55-52.15,77.47-63.7S838,334.13,863,357.14c7.72,7.11,14,15.83,22.56,21.87,8.9,6.27,19.66,9.22,29.43,14s19.25,12.53,21.23,23.23c4.24,22.9-26.44,38-30.09,61-3.06,19.21,15.36,36.72,34.66,39.1S979,510,995.46,499.63c13.88-8.74,29.31-19.27,45.23-15.34,14.88,3.68,23.84,18.76,29.12,33.16,5.86,16,9.27,33.26,6.74,50.1s-11.62,33.21-26.31,41.82c-24.59,14.43-56.45,4.23-83.88,12-22,6.25-38.9,23.32-58.28,35.42-29,18.1-63.65,25-97.74,27.43S742,685,707.86,687.46c-17.25,1.26-34.44,3.61-51.74,3.95-27.78.55-56.28-4-82.93,3.89-13.33,4-26.5,11-40.28,9.19-16.55-2.17-28.55-16.31-38.85-29.45C494.06,675,480.93,657.3,474.41,650Z" transform="translate(-464.54 -286)"/><path class="cls-3" d="M1354.62,622.27l-68.24,7.86-42.24,34.29-56.33-7.21-57.63,7.21h0l40.3-41.88.34-.92,59.59-21.6,19.26-2.81,34.5,4.82,12.84,2-6.82-4.81-27.28-6.82,20.46-14,6.82-18.46-10,14.85L1254.89,590h-19.26l-58.14,13.75,16.82-45.1,49.83-30.33,63.9,7.58,42.79,3.79,27.35,14.08-23.56-19.5-41.7-6,34.66-28.71,9.75-47.25s-13.54,41.29-14.62,42.92S1308,521.81,1308,521.81l-63.9-8.67-49.83,32.5-5.45-37.83,2.2-3.33L1253.34,479l-62.82,16.79.27-56.87-5.59,43.51-.1-.72-49.28-41.16L1120.65,407l8.67-46.31-16.25,45.77,18.14,38.72-49.55-45.76-47.67.33,46,6.16,46,44.42,47.66,42.24,1.55,21.39-14.55,26.27-60.66,23.83-39,47.12,1.09-65.53-26.54-41.16-5.42-54.71,8.13-17.87-14.08,17.87,3.25,48.75-24.38-40.62-30.33-1.63,27.08,7.59,26.54,48.2,24.92,38.45-17.95,93.7-47.85,70.55-36.36,34.5L923.87,759l-23.11-10.8L878,656.12,889.39,615s5.7-13.66,11.34-26.76l40.11-6.82L991.21,583l42.24,14.62-38.45-20-45.5-2.71,42.79-30.33,12.46-44.95-19,41.7-44.95,29.25-34.92,5.76c2.91-6.55,5.18-11.39,5.67-11.72,1.63-1.08,36.56-24.64,36.56-24.64l-42,21.39-7.6,16.18-11.68,1.93-3.47-24.61L854.18,540l22.75,19.23,2.55,21.49-43.71,7.21,18.41-96.4,11.38-50.91,33.85-20-39.27,14.62-11.91,56.33-17.88-55.79-27.62-18.41-16.79-34.66,2.26-29.79L780,385.05l15.71,32.23-41.7-7-32.68,16,33.76-8.93,43.33,6.5,24.91,16.79,17.87,50.91-15.16,94L814.09,612.9l-23.63-70.51L785.4,480.1l11.92-24.37-17.88,20.58s1.63,55.79,0,57.95-17.87-27.08-17.87-27.08l-24.91-12.45,22.2,17.33,20.58,30.33,28.79,84-17.77,40.88-25.1-81.8-78-85.85-.27-61.74-9.48,61.74H637l-15-6.5,12.28,13.54,43.33,2.17,42.43,43.33,35.56,39s7.85,48.07,15.21,70.41L711.2,644.21l-72.57-26.54-54.16-73.12-11.2-37.1,2.88,37.1-42-18.14,40.62,25.73L609.52,604l-47.8,10.45-24-2.84,22.94,9.34,52-12.25,13,19.29,76.17,33s-82.67-10.29-85.57-10.29-79.81,11.1-79.81,11.1L509.73,654l-8.94-6.5,6.77,14.35,33.58,9.48,70.41-9.48L696,671.29l94.23,26,54.16,50.54,48.51,59,1.95,12.26,2.14,8.12-.85,7.07,2.69,31.56,2.34,15.6-5.36,46.8.61,7.29-2.78,11.68L889.35,985l-2.23,6.81.88,5-1.89,16.47-13.63,22.31L854,1048.33l-33,9.16,35.21-1.9,21.67-11.89-11.47,15.85-13.76,11.61,22.53-11.25,13.65-15.7,1.85-6.44,3,6.83-9.13,21.24,13.63-17.64,3.16-11.7,3.15,13.5,4.95,14,5.4,7.2-4-13.5-1.87-12.27,5.53-8.55,1.56,4.38L919.3,1059l8.47,7.22-3.51-10.82V1042.3l1.48-4,7.54,8.63,6.21,15,15,11.4-9.84-17.7-1.86-19.67,16,20.07,19.28,15.15-14.24-20.26-.71-9.68,11.41,10.07,21.63,6.29-19.29-11.74L964.72,1031l-9.83-16.39-2-9.51,1.16-6.83-3.88-6.2-4.52-21.71,1.94-14V881.84l1.56-14.43,4.24-36.27-.56-7.6,2.24-6.81,14.65-34.55,32.84-32.9,34.66-44.41,98.58-21.67,49.28-10.83,59,6.5,93.69,22.21-83.95-30.87,34.67-29.16ZM832.52,599.8l48.25-8.2,1,8.74L878,615l-15.16,44.41-37.91-14.08-5-14.82Zm-28.16,71.49-1-.28,11-26.8,4.09,11.91,42.24,21.67,10.49,46.8Zm225.57,7.87,77.44-105.36,53.36-23.29,15.5-23.53,1.83,25.16-18.41,60.66-33.58,37.91Z" transform="translate(-464.54 -286)"/></g></svg>