<svg xmlns="http://www.w3.org/2000/svg" viewBox="0 0 1324.26 774.69"><defs><style>.cls-1,.cls-3{fill:#ff8821;}.cls-2,.cls-5{fill:#8a7538;}.cls-2,.cls-3,.cls-4{fill-rule:evenodd;}.cls-4{fill:#ffc029;}.cls-6{fill:#929497;}</style></defs><title>FreedomTreeLogoTag</title><g id="Tag_Line" data-name="Tag Line"><path class="cls-1" d="M311.63,897c-1.2,6.48-3.24,17.16-4.2,23.76a113.08,113.08,0,0,1-12.6,1.92c.72-7.56,2.76-18.24,4-25.32.24-1.92.72-4.08,1.08-6.12-1.68.6-3,1-4.2,1.32-.36-4.44-.6-9.24-.6-12a36.36,36.36,0,0,1,7.68-2.64c.48-2.4,1.08-4.8,1.68-7,1.8-7,3-13,6.72-19.2,3.12-5.4,11.16-13.2,17.4-12.12a27.81,27.81,0,0,1,14.52,7.92,88,88,0,0,1-8.28,10.68c-2.64-1.32-5.52-3.84-8.28-3.84a5.39,5.39,0,0,0-4.32,2.4c-4,5-4.8,12.36-5.64,17.76,3.36-.84,6.72-1.68,10.32-2.4a23.67,23.67,0,0,1,4.2-.48,76,76,0,0,1-1.2,12.6c-4.08.48-12.6,1.68-16.32,3.24C313,890.38,312.35,893.26,311.63,897Z" transform="translate(-289.79 -164.32)"/><path class="cls-1" d="M363,881.5a73.33,73.33,0,0,0-8.88,7c-.6,2.4-1.08,4.92-1.56,7.44-1.92,8.28-3,16.56-4.68,24.72-5,1.08-11.16,1.8-14,2.16.36-1.8.84-3.72,1.32-5.4,1.44-6.24,3.24-12.6,4.68-19,1.8-8.16,3.48-16.32,5.16-24.48.72-3.24,1.56-6.36,2.28-9.6,2.76-.48,7.44-1.32,12.12-1.8q-.36,1.44-.72,3.24c-.48,1.8-.84,3.72-1.32,5.52,2.16-1.56,4.44-3.12,6.6-4.56,3-2,6.6-4.92,10-6a25.59,25.59,0,0,1,3,12.48C372.23,875.74,367.31,878.26,363,881.5Z" transform="translate(-289.79 -164.32)"/><path class="cls-1" d="M411.11,905.26c.48,2.28.84,7.68,1.32,11.88-2.28,1.08-4.92,2.16-7.2,3a49.34,49.34,0,0,1-11.76,2.76,21.8,21.8,0,0,1-3.84.36,20.75,20.75,0,0,1-6.72-1.08,8.73,8.73,0,0,1-5.28-5.4A30.41,30.41,0,0,1,375,906.34a23,23,0,0,1,.48-7c.36-1.56.84-3.36,1.56-5.64a72.93,72.93,0,0,1,6.48-13.92c1.92-2.76,4.08-5.64,6.24-8.16a41.45,41.45,0,0,1,6.72-6.24,16,16,0,0,1,8.28-3.6c2-.24,3.72.36,5.52.72,6.24,1.8,10.2,10.2,8.64,17.28a146.9,146.9,0,0,1-5.52,19l-25.68,2.76c.12,1.56.12,3.6.24,4.2.72,2.4,2,4.68,4.44,5.16C394.55,911.14,398.15,911,411.11,905.26Zm-19.44-16.32,13-1.08a28.25,28.25,0,0,0,1.92-6.12,4.43,4.43,0,0,0-3.72-4.92c-2.16-.48-5.88,3-7.44,5.28A45.85,45.85,0,0,0,391.67,888.94Z" transform="translate(-289.79 -164.32)"/><path class="cls-1" d="M461.63,905.26c.48,2.28.84,7.68,1.32,11.88-2.28,1.08-4.92,2.16-7.2,3A49.34,49.34,0,0,1,444,922.9a21.8,21.8,0,0,1-3.84.36,20.75,20.75,0,0,1-6.72-1.08,8.73,8.73,0,0,1-5.28-5.4,30.41,30.41,0,0,1-2.64-10.44,23,23,0,0,1,.48-7c.36-1.56.84-3.36,1.56-5.64A72.93,72.93,0,0,1,434,879.82c1.92-2.76,4.08-5.64,6.24-8.16a41.45,41.45,0,0,1,6.72-6.24,16,16,0,0,1,8.28-3.6c2-.24,3.72.36,5.52.72,6.24,1.8,10.2,10.2,8.64,17.28a146.9,146.9,0,0,1-5.52,19l-25.68,2.76c.12,1.56.12,3.6.24,4.2.72,2.4,2,4.68,4.44,5.16C445.07,911.14,448.67,911,461.63,905.26Zm-19.44-16.32,13-1.08a28.25,28.25,0,0,0,1.92-6.12,4.43,4.43,0,0,0-3.72-4.92c-2.16-.48-5.88,3-7.44,5.28A45.85,45.85,0,0,0,442.19,888.94Z" transform="translate(-289.79 -164.32)"/><path class="cls-1" d="M526.54,925.9c-.12-.72-.24-1.2-.36-1.8-.72-5.52.12-12.84,1.44-18.84,1.44-8.16,3.72-16.68,4.56-24.48-2,.24-5.64,3.48-6.84,4.8-2,2.28-4.56,4.44-6,6.84-1.8,9.12-3.36,18.36-5.28,27.48-5,1.32-11.15,2.4-14,2.88.49-2.52,1.08-5.16,1.69-7.32,1.92-8.64,4.31-17.28,6.11-25.92q3.62-16.74,7.2-33.48c.84-4.2,1.92-8.64,2.76-12.84a126.78,126.78,0,0,1,12.48-2.64c-.36,1.44-.6,2.88-1,4.44-.72,2.88-1.32,6-2,8.88-1.44,6.48-2.64,13-3.84,19.44a27.16,27.16,0,0,1,3.36-3,76.56,76.56,0,0,1,9.84-6.36,15.72,15.72,0,0,1,7.32-1.8c2.28.12,4.08,2.4,4.2,4.56a23.11,23.11,0,0,1-.48,6.36c-.6,2.76-1.56,5.52-2.16,8.4-1.08,5.52-3.24,11.28-4.08,16.92a98.23,98.23,0,0,0-1.56,14.16c0,3.24-.24,5.64.48,7.8A70.1,70.1,0,0,1,526.54,925.9Z" transform="translate(-289.79 -164.32)"/><path class="cls-1" d="M588.82,905.26c.48,2.28.84,7.68,1.32,11.88-2.28,1.08-4.92,2.16-7.2,3a49.34,49.34,0,0,1-11.76,2.76,21.8,21.8,0,0,1-3.84.36,20.75,20.75,0,0,1-6.72-1.08,8.73,8.73,0,0,1-5.28-5.4,30.41,30.41,0,0,1-2.64-10.44,23,23,0,0,1,.48-7c.36-1.56.84-3.36,1.56-5.64a72.93,72.93,0,0,1,6.48-13.92c1.92-2.76,4.08-5.64,6.24-8.16a41.45,41.45,0,0,1,6.72-6.24,16,16,0,0,1,8.28-3.6c2-.24,3.72.36,5.52.72,6.24,1.8,10.2,10.2,8.64,17.28a146.9,146.9,0,0,1-5.52,19l-25.68,2.76c.12,1.56.12,3.6.24,4.2.72,2.4,2,4.68,4.44,5.16C572.26,911.14,575.86,911,588.82,905.26Zm-19.44-16.32,13-1.08a28.25,28.25,0,0,0,1.92-6.12,4.43,4.43,0,0,0-3.72-4.92c-2.16-.48-5.88,3-7.44,5.28A45.85,45.85,0,0,0,569.38,888.94Z" transform="translate(-289.79 -164.32)"/><path class="cls-1" d="M615.7,919.9c-5,1.32-11.4,2.4-14.28,2.88.48-2.52,1.2-5.16,1.68-7.32,1.92-8.64,4.44-17.28,6.24-25.92,2.28-11.16,4.8-22.32,7.08-33.48,1-4.2,1.8-8.64,2.76-12.84,3-.72,7.68-1.92,12.72-2.64-.36,1.44-.72,2.88-1,4.44-.72,2.76-1.32,5.64-1.92,8.4-2.4,10.92-4.2,21.6-6.6,32.64C619.78,897.46,618.1,908.62,615.7,919.9Z" transform="translate(-289.79 -164.32)"/><path class="cls-1" d="M675.7,889.54c-5.4,10.2-16.92,19.8-28.56,23.16-1.44,6.12-2,11-3.48,16.2-.12.6-1.2,5.4-1.8,7.68a68.52,68.52,0,0,1-13.08,1.08c.72-5,4.44-18.48,5.16-21.12,0,0,2.4-9.84,4.44-19.2,1.08-5.16,1.56-10,2.64-14.88a43.85,43.85,0,0,0,1.2-7.8c-.12,0-2.4.12-4.2.12a72,72,0,0,1,4-13.56c1.68,0,3.84-.12,5.76-.12s3.6.12,4.2.12c3.84.36,6.84.72,10.2,2.16,6.84,3.24,11.64,7.8,13.92,15.36C677.14,882.34,677.74,885.7,675.7,889.54Zm-12.12-4.08c-.72-2.52-3.36-5.52-5.16-7a24.1,24.1,0,0,0-4.2-2.28c-.48,1.92-.72,4-1.2,5.88-.84,4.08-3,16.68-3,16.68C652.78,897.82,665.62,890.5,663.58,885.46Z" transform="translate(-289.79 -164.32)"/><path class="cls-1" d="M728.62,897c-1.2,6.48-3.24,17.16-4.2,23.76a113.08,113.08,0,0,1-12.6,1.92c.72-7.56,2.76-18.24,4-25.32.24-1.92.72-4.08,1.08-6.12-1.68.6-3,1-4.2,1.32-.36-4.44-.6-9.24-.6-12a36.36,36.36,0,0,1,7.68-2.64c.48-2.4,1.08-4.8,1.68-7,1.8-7,3-13,6.72-19.2,3.12-5.4,11.16-13.2,17.4-12.12a27.81,27.81,0,0,1,14.52,7.92,88,88,0,0,1-8.28,10.68c-2.64-1.32-5.52-3.84-8.28-3.84a5.39,5.39,0,0,0-4.32,2.4c-4,5-4.8,12.36-5.64,17.76,3.36-.84,6.72-1.68,10.32-2.4a23.67,23.67,0,0,1,4.2-.48,76,76,0,0,1-1.2,12.6c-4.08.48-12.6,1.68-16.32,3.24C729.94,890.38,729.34,893.26,728.62,897Z" transform="translate(-289.79 -164.32)"/><path class="cls-1" d="M797.38,891.46a78.38,78.38,0,0,1-4.08,11.28,61.08,61.08,0,0,1-5.52,8.88,41.32,41.32,0,0,1-8.16,7.68,16.46,16.46,0,0,1-9.24,3,21,21,0,0,1-4-.48c-10.8-2-16.08-13.8-12.72-24.84,2.4-7.56,5.28-15.24,10.32-22.08,4-5.52,11.28-12.24,17.88-13.08,5.64-.72,9.6,2.16,12.36,5.88a21.37,21.37,0,0,1,3.36,9.6C798.22,882.22,798.82,885.34,797.38,891.46Zm-12.72-.72c.24-1.32.48-2.64.72-4.08.48-3.24-1.8-12.6-7-9.84-4.2,2.28-7.08,8.16-8.88,12a26.33,26.33,0,0,0-2.52,6.84,16.81,16.81,0,0,0-.12,6c.36,2.76,2.76,8.64,6.6,7.2s6.72-7.2,8.28-10.44A66.58,66.58,0,0,0,784.66,890.74Z" transform="translate(-289.79 -164.32)"/><path class="cls-1" d="M830.74,881.5a73.33,73.33,0,0,0-8.88,7c-.6,2.4-1.08,4.92-1.56,7.44-1.92,8.28-3,16.56-4.68,24.72-5,1.08-11.16,1.8-14,2.16.36-1.8.84-3.72,1.32-5.4,1.44-6.24,3.24-12.6,4.68-19,1.8-8.16,3.48-16.32,5.16-24.48.72-3.24,1.56-6.36,2.28-9.6,2.76-.48,7.44-1.32,12.12-1.8q-.36,1.44-.72,3.24c-.48,1.8-.84,3.72-1.32,5.52,2.16-1.56,4.44-3.12,6.6-4.56,3-2,6.6-4.92,10-6a25.59,25.59,0,0,1,3,12.48C840,875.74,835.06,878.26,830.74,881.5Z" transform="translate(-289.79 -164.32)"/><path class="cls-1" d="M914,910.06a44.15,44.15,0,0,1-7,7.2c-4.92,4-7.8,6.12-13.56,5.64a20.78,20.78,0,0,1-15-8.16c-3.72-4.32-5.16-11.4-3.36-17.4,4.68-14.4,10.8-23.52,24.12-33.48,2.16-1.68,7.8-3.36,10.32-3.48s5.28,1.8,7,3.48c3,3.12,3.24,8.4,2.52,12.72-.24,2.4-.72,5-1.2,7.44a45.3,45.3,0,0,1-1.8,6.72,82.47,82.47,0,0,1-12.12.6c.36-1.8,1.8-6.6,2-8.28s1-6.72-.24-8c-2,0-4.32,1.56-5.4,2.4-5.16,4.08-11.4,15-12.24,19.92-.36,3.12.24,7.68,3,10.08,1.56,1.32,4.44,2.52,6.6,1.92s3.24-1.68,4.92-3.12c.72-.72,2.4-2.64,3.72-4A47.37,47.37,0,0,1,914,910.06Z" transform="translate(-289.79 -164.32)"/><path class="cls-1" d="M937.54,920.86c-4.92,1-11,1.56-14,1.92.36-1.56,1-3.24,1.32-4.8,1.32-5.52,3.12-11.16,4.32-16.68,1.44-7.2,3-14.4,4.44-21.6.6-2.76,1.2-5.52,1.92-8.4,2.88-.48,7.44-1.08,12.24-1.56q-.36,1.26-.72,2.88c-.36,1.56-.72,3-1,4.44-1.56,7.44-2.76,14.64-4.56,22.08C939.94,906.46,939,913.66,937.54,920.86ZM953.74,848c-.24,0-5.4.72-8.28,1.32a86.25,86.25,0,0,0-9.12,2.76l-.6,12.24,4.32-1.2c1.32-.48,12.12-2.52,12.12-2.52C952.54,859.06,953.74,848,953.74,848Z" transform="translate(-289.79 -164.32)"/><path class="cls-1" d="M1005.46,864.46c-2.17,3.24-7.21,12.24-9,15.48-4,6.48-7,13.44-10.2,20-1.92,4-3.6,7.8-5.28,11.76l-3.48,9.12c-1.92.36-6.72.48-8.64.72-2.28.36-4.92.24-7.08.84,0-3.72.36-7.56.48-11.4,0-7.2.24-14.52.48-21.72.12-4.08-.12-7.8-.24-11.76,0-2.76-.6-8.16-.48-12.48,1.08-.48,13.56-3.72,13.56-3.84a103.58,103.58,0,0,1,.24,17.16c-.12,4.92,0,13.92-.36,18.84,1.68-4.68,5.88-12.6,7.56-17,1.32-3.12,2.88-6,4.32-9,.6-1.32,4.8-9.84,6-11.88A85.62,85.62,0,0,1,1005.46,864.46Z" transform="translate(-289.79 -164.32)"/><path class="cls-1" d="M1019,920.86c-4.92,1-11,1.56-14,1.92.36-1.56,1-3.24,1.32-4.8,1.32-5.52,3.12-11.16,4.32-16.68,1.44-7.2,3-14.4,4.44-21.6.6-2.76,1.2-5.52,1.92-8.4,2.88-.48,7.44-1.08,12.24-1.56q-.36,1.26-.72,2.88c-.36,1.56-.72,3-1,4.44-1.56,7.44-2.76,14.64-4.56,22.08C1021.42,906.46,1020.46,913.66,1019,920.86Zm16.2-72.84c-.24,0-5.4.72-8.28,1.32a86.25,86.25,0,0,0-9.12,2.76l-.6,12.24,4.32-1.2c1.32-.48,12.12-2.52,12.12-2.52C1034,859.06,1035.22,848,1035.22,848Z" transform="translate(-289.79 -164.32)"/><path class="cls-1" d="M1047.94,919.9c-5,1.32-11.4,2.4-14.28,2.88.48-2.52,1.2-5.16,1.68-7.32,1.92-8.64,4.44-17.28,6.24-25.92,2.28-11.16,4.8-22.32,7.08-33.48,1-4.2,1.8-8.64,2.76-12.84,3-.72,7.67-1.92,12.71-2.64-.36,1.44-.71,2.88-1,4.44-.72,2.76-1.32,5.64-1.92,8.4-2.4,10.92-4.2,21.6-6.59,32.64C1052,897.46,1050.33,908.62,1047.94,919.9Z" transform="translate(-289.79 -164.32)"/><path class="cls-1" d="M1116.81,881.5a73.33,73.33,0,0,0-8.88,7c-.6,2.4-1.08,4.92-1.56,7.44-1.92,8.28-3,16.56-4.68,24.72-5,1.08-11.16,1.8-14,2.16.36-1.8.84-3.72,1.32-5.4,1.44-6.24,3.24-12.6,4.68-19,1.8-8.16,3.48-16.32,5.16-24.48.72-3.24,1.56-6.36,2.28-9.6,2.76-.48,7.44-1.32,12.12-1.8q-.36,1.44-.72,3.24c-.48,1.8-.84,3.72-1.32,5.52,2.16-1.56,4.44-3.12,6.6-4.56,3-2,6.6-4.92,10-6a25.59,25.59,0,0,1,3,12.48C1126.05,875.74,1121.13,878.26,1116.81,881.5Z" transform="translate(-289.79 -164.32)"/><path class="cls-1" d="M1146.33,920.86c-4.92,1-11,1.56-14,1.92.36-1.56,1-3.24,1.32-4.8,1.32-5.52,3.12-11.16,4.32-16.68,1.44-7.2,3-14.4,4.44-21.6.6-2.76,1.2-5.52,1.92-8.4,2.88-.48,7.44-1.08,12.24-1.56q-.36,1.26-.72,2.88c-.36,1.56-.72,3-1,4.44-1.56,7.44-2.76,14.64-4.56,22.08C1148.73,906.46,1147.77,913.66,1146.33,920.86Zm16.2-72.84c-.24,0-5.4.72-8.28,1.32a86.25,86.25,0,0,0-9.12,2.76l-.6,12.24,4.32-1.2c1.32-.48,12.12-2.52,12.12-2.52C1161.33,859.06,1162.53,848,1162.53,848Z" transform="translate(-289.79 -164.32)"/><path class="cls-1" d="M1215,864.1a72.08,72.08,0,0,0-4.32,8.64c-1.2,3.24-1.92,5.88-3.36,11.16-2.16,7.56-3.12,12.12-4.56,18.12-.48,2.16-.84,4.32-1.44,6.84-.6,2.88-1.08,5.28-1.68,8a17.29,17.29,0,0,1-4.68,8.4c-4.44,5.52-13.32,12-19.68,13.44-5.64,1.44-10.08-3.12-13.32-6.48a10.45,10.45,0,0,1-2.16-4.32,100.55,100.55,0,0,1,9.6-8.4c.36.48.6,1.08,1,1.56a14.42,14.42,0,0,0,4.2,4.32c1.8,1.32,5-1,7.08-2.28,4.92-3.36,6.36-4.8,7.32-10.32.36-2,.72-4.2,1.08-6.24-3.36,1.8-6.72,3.48-10.32,5.28a19.08,19.08,0,0,1-8.16,2c-2.16,0-4.08-.48-5.28-2-3-3.48-1.8-9.12-.72-13.68a57.66,57.66,0,0,1,4-13.08c2-4.92,3.72-8.76,7.32-13.32,3.84-4.68,7.56-7.8,13.32-8.64a18,18,0,0,1,7.56.48,25.34,25.34,0,0,1,4,2.16,32.8,32.8,0,0,1,2.64-4.92C1207.05,861,1212.21,862.78,1215,864.1Zm-26.64,31c1.92-1.08,3.72-2.16,5.16-3,1.2-4.2,2.64-8.64,3.72-13-2.16-1.44-4.68-3.72-6.72-3.12-2.88.84-4.32,2.76-5.64,5a33.59,33.59,0,0,0-3.84,7.44,34,34,0,0,0-2.52,7.44c-.72,3-.24,3.84,3.12,2.64A59.76,59.76,0,0,0,1188.33,895.06Z" transform="translate(-289.79 -164.32)"/><path class="cls-1" d="M1240.29,925.9c-.12-.72-.24-1.2-.36-1.8-.72-5.52.12-12.84,1.44-18.84,1.44-8.16,3.72-16.68,4.56-24.48-2,.24-5.64,3.48-6.84,4.8-2,2.28-4.56,4.44-6,6.84-1.8,9.12-3.36,18.36-5.28,27.48-5,1.32-11.16,2.4-14,2.88.48-2.52,1.08-5.16,1.68-7.32,1.92-8.64,4.32-17.28,6.12-25.92l7.2-33.48c.84-4.2,1.92-8.64,2.76-12.84a126.78,126.78,0,0,1,12.48-2.64c-.36,1.44-.6,2.88-1,4.44-.72,2.88-1.32,6-2,8.88-1.44,6.48-2.64,13-3.84,19.44a27.16,27.16,0,0,1,3.36-3,76.56,76.56,0,0,1,9.84-6.36,15.72,15.72,0,0,1,7.32-1.8c2.28.12,4.08,2.4,4.2,4.56a23.11,23.11,0,0,1-.48,6.36c-.6,2.76-1.56,5.52-2.16,8.4-1.08,5.52-3.24,11.28-4.08,16.92a98.23,98.23,0,0,0-1.56,14.16c0,3.24-.24,5.64.48,7.8A70.1,70.1,0,0,1,1240.29,925.9Z" transform="translate(-289.79 -164.32)"/><path class="cls-1" d="M1275.33,922.3c-.12-9.12,1.92-19,3.84-28.2.24-1.08.48-2.28.84-3.72.12-.6.6-2.64,1.2-5.52-3.12,1.08-5.64,2.16-8.28,3.12a103.76,103.76,0,0,1-2.4-11.4c4.08-2.16,9.36-3.72,13.56-4.92,1.44-6.6,3.48-16.8,3.48-16.8l13.56-2.52c-.36,1.44-2.28,9.84-3.72,16.32,2-.36,4-.72,5.88-1a50,50,0,0,1,5.28-.6,95.16,95.16,0,0,1,.12,11.88c-4.8,1-9.36,1.68-14,2.64-1.08,4.68-1.32,5.52-1.56,6.84-.6,2.28-1.2,4.56-1.8,7.08a115.09,115.09,0,0,0-2.88,22.92C1285.89,920.14,1280.49,921.58,1275.33,922.3Z" transform="translate(-289.79 -164.32)"/><path class="cls-1" d="M1353.33,906.1c-1.44,6.12-7.8,12.48-14,15a31.33,31.33,0,0,1-9.48,2c-3.48.24-9.72-.12-12.12-1.32a14.33,14.33,0,0,1-6.84-7.44c-.48-1.2-.36-3.24.12-5.52a19.84,19.84,0,0,1,3.12-7.56,64,64,0,0,1,11.88,1.08c-1.2,2.64-2.16,4.44-.36,6.6.6,1,2.76,1.68,5.4,1.68a13.15,13.15,0,0,0,7.68-2.28c2.4-2-3.72-5.64-7-7.8a74.83,74.83,0,0,1-10.08-8.16c-3.24-2.76-3.72-6.72-3-10.08a17.89,17.89,0,0,1,1.68-4.44c4.8-8.16,15.6-17.88,26.76-17.88,3.72,0,7.68,1.2,8.64,5.28,1.2,4.56-1.32,12.36-2.64,18a27.32,27.32,0,0,1-6.72.72c-2.52,0-4.56-.24-5.76-.24.72-3.36,1.92-6.84,2-10.32-2.28,0-8.64,3.72-9.84,6.84-1.08,2.76,4.2,6.84,7.56,9.48,2,1.32,4,2.76,5.88,4.2C1350.21,897.58,1354.65,899.62,1353.33,906.1Z" transform="translate(-289.79 -164.32)"/><path class="cls-1" d="M1413.33,924.1c-.24-5.88,1.68-14.28,2.52-20.16,1.2-7.8,3.36-15.6,4.44-23.76.6-3.48-4.44,1.68-6,2.88a35.45,35.45,0,0,0-8.4,10.32c-2.16,10.08-3.36,18.6-5.16,27.24-5,1-11,1.8-14,2.16.36-1.92,1.08-3.84,1.44-5.64,1.44-6.48,3.48-13.08,4.92-19.8q2.7-12.6,5.4-25.56c.72-3.24,1.44-6.48,2.16-9.84,2.88-.6,7.44-1.32,12.24-1.92-1.44,4.56-2.16,9.36-3.12,13.92a55.42,55.42,0,0,1,7.32-7c4-3.12,9.72-7.2,14.16-6.48,1.67.24,4.2,1.8,4.67,3.72.84,3.48-1.08,9.12-1.8,12.48-.71,4-1.79,7.8-2.75,11.76-.6,2.28-1.21,4.56-1.8,7.08a109.73,109.73,0,0,0-2.64,24.12C1424.25,920.74,1419.21,922.06,1413.33,924.1Z" transform="translate(-289.79 -164.32)"/><path class="cls-1" d="M1485.69,891.46a78.38,78.38,0,0,1-4.08,11.28,61.08,61.08,0,0,1-5.52,8.88,41.32,41.32,0,0,1-8.16,7.68,16.46,16.46,0,0,1-9.24,3,21,21,0,0,1-4-.48c-10.8-2-16.08-13.8-12.72-24.84,2.4-7.56,5.28-15.24,10.32-22.08,4-5.52,11.28-12.24,17.88-13.08,5.64-.72,9.6,2.16,12.36,5.88a21.37,21.37,0,0,1,3.36,9.6C1486.53,882.22,1487.13,885.34,1485.69,891.46Zm-12.72-.72c.24-1.32.48-2.64.72-4.08.48-3.24-1.8-12.6-7-9.84-4.2,2.28-7.08,8.16-8.88,12a26.33,26.33,0,0,0-2.52,6.84,16.81,16.81,0,0,0-.12,6c.36,2.76,2.76,8.64,6.6,7.2s6.72-7.2,8.28-10.44A66.58,66.58,0,0,0,1473,890.74Z" transform="translate(-289.79 -164.32)"/><path class="cls-1" d="M1563.57,863.38c-.84,1.56-1.92,3.48-2.28,4.08-.48,1.08-1.2,2.16-1.8,3.36-1.32,2.52-1.68,3.36-2.88,5.76-3.12,5.4-4.92,10-7.68,16.44-2.28,4.92-4.56,10.2-6.36,15.12a51.32,51.32,0,0,0-2,5.52c-.6,1.68-1.08,3.48-1.92,5.52l-15,1.2c0-.6.12-1.44.12-2a25.11,25.11,0,0,1,.12-3.12,66.77,66.77,0,0,0,.12-7c0-3.6.12-4.44-.12-8.16a14.52,14.52,0,0,1-.12-2.28,34.73,34.73,0,0,0-3.48,5.4c-1.2,2.28-1.08,2-2.88,5.16-2.28,4.08-3.84,8.28-6,12.48-2.64.36-5.64,1-8,1.08s-4.92.6-7.32.84c.6-3.72,1-7.56,1.32-11.28.12-1.92.24-3.84.48-5.64.48-5.28.84-9.48,1.2-15.72.12-3,.6-7.68.84-14,.24-3.6.36-7.32.24-10.68a60.36,60.36,0,0,1,7.56-2.28c2.16-.48,4.44-.84,6.6-1.32,0,2.16-.24,3.84-.24,5.52-.12,2.4-.36,4.68-.6,7.32-.48,4-.72,8.16-1,12.12-.24,2-.36,4-.48,5.88a48.62,48.62,0,0,0-.6,5c1.8-4,4.32-8.76,6.24-13,2.16-4.44,4.32-11.88,6.36-16.2,3.12-.6,9.12-.84,12.84-1.2a48.18,48.18,0,0,0-.24,5.88c-.12,3.36-.84,7.68-1,11,0,2.64-.24,7.68-.12,10.56.84-2.16,2.16-5.28,3.12-7.68,1.32-2.76,2.16-4.56,3.24-7.44,2.64-7,5.64-13.68,9-20.64,1.2.36,2.64.84,3.72,1.2a32,32,0,0,1,3.48,1.08A51.15,51.15,0,0,1,1563.57,863.38Z" transform="translate(-289.79 -164.32)"/></g><g id="Bird"><path class="cls-2" d="M1321.82,175.73c7.9,1.48,23.67-2.23,24.67-.87s-14.77,2.23-23.9,3.39c5.78,2,19.72-.38,19.53,1.65s-15.9.35-23.24,1.48c4.15,1.5,15.39,1.51,14,3.15-.73.87-15.43-.31-51.33,10.46-20.9,6.27-39.08,10.85-44.12,13.44-1.61,9.37,8.36,9,10.52,15.15-6.46,2.42-17.16,2.5-20.26.67s-2.83-4-2.65-4.94c-10.55-2.3-11-2.63-17.62-13.9-4.52-7.71-27.06-8.55-37.66-12.7-2.09-.82-15.51-5-17.69-5.55-6.77-1.77-6.77-3.51-13.65-5.22-7.09-1.77-13.12-2.14-14.54-2.88s7.17-.48,9-1.53c-2.72-1.79-13.3-.89-17.8-1.24,2.54-2.54,9-1.54,12.8-2.54-4.94-1.88-15.74-.38-16.15-1.94s6.56.39,12.12.53c-6.11-2.09-14.19-3.44-14.19-5.13s7,2.26,11.11,2.41c-1.74-2.47-8.87-3.64-7.93-5.1s9.27,5.17,15.74,5.76c-1.35-2.49-4.34-3.59-5.89-5.91,5.26,1.68,8.54,6.73,15,8.16,6.73,1.48,21.64.41,28.1,1.4,22,3.34,14.76,2.86,38.89,19.37,1.85,1.27,5.13.26,7.06-1.29,6.07-.14,9.15,1.81,12.9,4.53,14.39-1.48,23.36-10.47,39.65-16.5,9.71-3.59,20.69-2.7,30.44-4.14s21.67-9.1,24.87-9.2-6.39,3.88-8.91,6.62c6.5.34,14-2.76,20.15-5.68,1.63-.77,3.65-2.74,5-1.54-5.19,3.34-11.6,5.24-17.38,7.88,8.83-.32,25.2-7,26.58-6.12S1332.87,172.78,1321.82,175.73Z" transform="translate(-289.79 -164.32)"/></g><g id="New_Leaves" data-name="New Leaves"><path class="cls-3" d="M1469.68,508.06c9.09,1,35.91,11.56,52.85,11.62,12.55,0,25.77-6.89,37.4-11.6s21.81-15.33,22.07-27.88c.21-10.35-6.16-20.36-4.33-30.55,2.17-12.08,14.82-19.47,19.45-30.83,3.23-7.92,2.21-16.89,4-25.25,3-13.91,13.92-26.14,12.81-40.33-1.5-19.09-23.52-30.47-28.44-49-2.66-10,0-21.15-4.15-30.63-6.41-14.59-26-18.3-41.47-14.67s-29.55,12.37-45.21,15.25a63.44,63.44,0,0,1-51.53-13.61c-5-4.17-9.51-9.26-15.67-11.3-3.91-1.29-8.3-1.28-11.79-3.46-7-4.36-6.64-14.34-8.12-22.44a38.38,38.38,0,0,0-60.73-23.88c-5.61,4.2-10,9.89-15.91,13.7-12.17,7.89-27.86,6.33-42.35,6-3.21-.07-6.68,0-9.23,1.95-2.27,1.72-3.35,4.53-4.34,7.2-5,13.65-11,28-22.87,36.4-19.09,13.52-48.28,8-64.76,24.63-8.61,8.67-11.55,22.07-8.93,34s10.29,22.39,19.91,29.92c8.37,6.55,18.55,11.42,24.21,20.42,9.72,15.44,2.24,35.5,3.08,53.73,1.46,31.41,49.77,36.79,79.65,46.59s59,32.06,90.48,31.83C1427.42,505.67,1438.25,504.58,1469.68,508.06Z" transform="translate(-289.79 -164.32)"/><path class="cls-4" d="M812.78,458.91c-5.53-6.2-10.25-14.62-7.61-22.49,5.35-15.95,30.92-10.8,43.22-22.27,7-6.48,8.17-17.2,6.36-26.52s-6.12-18-8.67-27.11a74.33,74.33,0,0,1,1.38-44c1.43-4.11,3.35-8.26,6.77-11,4.6-3.63,10.92-3.92,16.77-3.89,33.42.19,70.58,4.7,96.77-16.06,11.42-9.06,19.09-21.88,27.61-33.71,16.82-23.34,38.61-44.2,65.66-54s59.9-6.68,81,12.82c6.54,6,11.85,13.42,19.12,18.54,7.54,5.31,16.66,7.81,24.94,11.88s16.32,10.61,18,19.68c3.59,19.41-22.41,32.2-25.51,51.69-2.59,16.28,13,31.12,29.38,33.14s32.4-5.4,46.35-14.18c11.76-7.4,24.83-16.33,38.33-13,12.61,3.12,20.21,15.9,24.68,28.1,5,13.55,7.85,28.19,5.71,42.46s-9.85,28.14-22.3,35.44c-20.84,12.23-47.84,3.58-71.09,10.19-18.62,5.29-33,19.76-49.39,30-24.57,15.34-53.94,21.19-82.83,23.25s-58,.61-86.85,2.73c-14.62,1.07-29.19,3.06-43.85,3.35-23.55.47-47.7-3.38-70.28,3.3-11.3,3.34-22.46,9.32-34.14,7.79-14-1.85-24.19-13.83-32.92-25C829.44,480.14,818.31,465.1,812.78,458.91Z" transform="translate(-289.79 -164.32)"/></g><g id="Freedom_Tree" data-name="Freedom Tree"><path class="cls-5" d="M407.11,575.08H326.8v60l6.61,2.31h15.2L382,634.72v14.17L384.31,673l-2.65,6H325.81v32.76l3,10.24-4.3,57.18h-3.31l-12.55-3.31-17.19,1.32-1.65-30.07v-150l3-63.61H407.11Z" transform="translate(-289.79 -164.32)"/><path class="cls-5" d="M517.19,642.57l-1.05,4.5v27l-23.53,1.85,3.17,15.56,1.06.8,10.57,49.17-.79,3.18,9,39.25H491.28L463,675.09l-3.7.79h-8.46l-4.23-.79-2.91,1.32.8,52.84,1.58,5.82-.79,5.29,1.59,9v5l-2.65,9.78v11.23l.8,7.14H417l.79-8.46V690.65l-3.17-34.86,1.06-37.52V590l.53-4H514l2.38,3.17-.79,2.91v49.42Zm-29.34-6.34-.53-19.55H443.17v25.89l44.15,1.06Z" transform="translate(-289.79 -164.32)"/><path class="cls-5" d="M1343.56,647.07v27L1320,675.88l3.17,15.56,1.06.8,10.58,49.17-.8,3.18,9,39.25h-24.32l-28.29-108.75-3.7.79h-8.46l-4.23-.79-2.91,1.32,2.38,49.14-1.59,3.7,1.59,5.82-.8,5.29.44,10.57-1.49,13.22,1.22,11.23-.43,7.14h-28l-.43-8.46V690.65L1242,655.79l1-37.52V590l.53-4h97.83l1.58,6.08v49.42Zm-28.29-10.84-.53-19.55h-44.15v25.89l44.15,1.06Z" transform="translate(-289.79 -164.32)"/><path class="cls-5" d="M628.07,772.29l-10.32-.53-4,.79H535V760.66l-2.11-9.26V578.76l-2.38-1.06h90.15l5.56,2.12v28L622,606H571.22l-10.84.53-1.58,1.58v18.51l1.32,10V654.9l2.11,1.85h26.44l17.19-1.85.53,11.37-1.06,1.06,1.32,18.77H558.8L562,703.28V725l-.79,8.46,1.05,11.37h65.84Z" transform="translate(-289.79 -164.32)"/><path class="cls-5" d="M734.51,770.48l.8,11.63h-92l-4.23-87V630.88l-1.32-8.2V593.34h92l1.06,3.17v12.43l-.79,2.64,3.17,13.75H714.68l-45.47,2.38L667.09,629l-3.17,6.34,3.17,33.85,16.4-1.06,9.51,1.06,17.72,3.7-1,10.84,1,11.1v5.55l-43.63,2.38L666,705.44l-1.32,9.25v7.4l1.32,2.65v23l3.17,1.59H712.3l6.35-1.86,19-3.17Z" transform="translate(-289.79 -164.32)"/><path class="cls-5" d="M854.81,755.92l-2.12,1.85-8.19,10.84-5.82,9.25-21.15-1.05-67.68-1.06V760.41l-1.59-13.48,1.85.26,6.88,1.06,9-.53V617.12l-1.32-5.82-16.12,1.32-.8-3.7V593.59l-1.06-14,89.63,4.76,4.76,7.67,13.75,17.18Zm-63.6-140.77,3.7,46.27,1.58,10.84-2.38.79L797,699.49v18.77l-2.64,34.64h30.67l-1.85-16.66V614.09H806.28Z" transform="translate(-289.79 -164.32)"/><path class="cls-5" d="M978.21,782.81H876.68V659.87l-3.17-17.45V620.74l1.32-3.17V589l29.08,1.32h72.6s-.13,18.34-.44,43c0,2.29,1.94,3.63,1.91,6,0,2-2.06,5-2.08,7-.32,22-.77,46.94-1.39,68C973,765,978.21,782.81,978.21,782.81Zm-30.67-26V671.18l-2.65-48.91L943,619.09H902.59l2.91,44.69v93.06Z" transform="translate(-289.79 -164.32)"/><path class="cls-5" d="M995.65,661.78V635.87l1.59-5.29-1.32-2.64,4-43.89h25.64l7.14,20.36,2.91,2.9,8.91,32.79,2.12,6.87,4.23-15.86,21.68-47.86,20.28.8,2.12,1.58,1.92,10V765.15l-4.76,15.07h-22.47l-3.7-26.44v-42.3l2.11-42.3L1051.17,716l-3.7,15.07-4,1.05L1040.3,730,1038,716.51l-4-11.37L1031.87,693l-5.81-19,2.11,31.73v72.7l-2.91,1.85-4.49,1.59h-20.36l-1.58-3.44V762.25L997,759.6V743.74l-.52-15.34V717.56l-.57-15.86Z" transform="translate(-289.79 -164.32)"/><path class="cls-5" d="M1456.76,772.49l-10.31-.53-4,.8h-78.79v-11.9l-2.11-9.25V579l87.77-1.06,5.56,2.12v28l-4.23-1.85h-50.77l-10.84.53-1.58,1.59v18.51l1.32,10v18.25l2.12,1.85h26.43l17.19-1.85.53,11.36-1.06,1.06,1.32,18.77h-47.85l3.17,17.19v21.68l-.79,8.46,1.06,11.37h65.83Z" transform="translate(-289.79 -164.32)"/><path class="cls-5" d="M1565.65,767.09l.8,11.63h-92l-4.23-87V627.49l-1.32-8.19V590h92l1,3.17v12.43l2.38,16.39h-18.51l-45.47,2.38-2.12,1.32-3.17,6.35,3.17,36.29,16.4-1.06,9.52,1.06,17.71,1.25v10.84l-.83,7.4.83,3.7V697l-43.63,2.38-1,2.64-1.33,9.25v7.41l1.33,25.64,3.17,1.59h43.1l6.34-1.85,19-3.18Z" transform="translate(-289.79 -164.32)"/><path class="cls-6" d="M1583.61,764.75h-4.92V763h12v1.78h-4.94v14.4h-2.12Z" transform="translate(-289.79 -164.32)"/><path class="cls-6" d="M1606.1,772c-.12-2.25-.26-5-.24-7h-.07c-.55,1.89-1.22,3.91-2,6.14l-2.86,7.85h-1.58l-2.62-7.7c-.76-2.28-1.41-4.37-1.87-6.29h0c0,2-.16,4.73-.31,7.15l-.43,6.94h-2l1.13-16.18h2.66l2.76,7.82c.67,2,1.22,3.77,1.63,5.45h.07c.41-1.63,1-3.41,1.71-5.45l2.88-7.82h2.66l1,16.18h-2Z" transform="translate(-289.79 -164.32)"/></g><g id="Tree"><path class="cls-2" d="M1558.75,435.42l-57.83,6.65-35.8,29.07L1417.38,465l-48.84,6.12h0l34.15-35.49.29-.79,50.51-18.3,16.32-2.38,29.24,4.08,10.88,1.7-5.78-4.08L1481,410.1l17.34-11.9,5.78-15.64-8.5,12.58-21.42,12.92h-16.32l-49.28,11.65,14.26-38.23,42.23-25.7,54.16,6.43,36.26,3.21,23.18,11.93-20-16.52-35.34-5.05,29.37-24.33,8.27-40s-11.48,35-12.4,36.37-29.37,22.49-29.37,22.49l-54.16-7.34-42.23,27.54-4.62-32.06,1.86-2.83L1472.92,314l-53.25,14.23.23-48.19-4.73,36.87-.09-.61-41.76-34.89L1360.46,253l7.35-39.24L1354,252.51l15.37,32.81-42-38.78-40.4.29,39,5.22,39,37.63,40.4,35.81,1.31,18.13-12.33,22.26L1343,386.07,1310,426l.92-55.54-22.49-34.89-4.59-46.35,6.89-15.15-11.94,15.15,2.76,41.31-20.66-34.43-25.7-1.38,22.95,6.43L1280.6,342l21.11,32.59L1286.5,454,1246,513.8,1215.14,543l-21.45,8.25-19.58-9.16-19.28-78,9.64-34.88s4.84-11.58,9.62-22.68l34-5.78,42.68,1.38,35.8,12.39-32.58-17-38.56-2.3,36.26-25.7,10.56-38.1-16.07,35.35-38.09,24.78-29.6,4.88c2.47-5.55,4.39-9.65,4.81-9.93,1.38-.91,31-20.88,31-20.88l-35.57,18.13-6.44,13.71-9.9,1.63-2.94-20.85-24.78-12.62,19.27,16.29,2.16,18.22-37,6.11,15.61-81.7,9.63-43.15,28.69-17-33.28,12.39-10.09,47.74-15.15-47.28L1091,261.69l-14.23-29.38,1.92-25.25-7,27.31,13.31,27.32-35.34-6L1022,269.26l28.61-7.57,36.72,5.5,21.11,14.23,15.15,43.15-12.85,79.63-10.12,23.27-20-59.76-4.29-52.78,10.1-20.66-15.15,17.45s1.38,47.27,0,49.11-15.14-22.95-15.14-22.95L1035,327.32,1053.85,342l17.44,25.7,24.4,71.17-15.06,34.65-21.27-69.33-66.1-72.75L993,279.13l-8,52.32H950.58L937.87,326l10.41,11.47L985,339.26,1021,376l30.14,33s6.65,40.74,12.88,59.67L1013.46,454,952,431.52l-45.9-62-9.49-31.44L899,369.55l-35.63-15.38L897.79,376l29.49,43.92-40.5,8.86-20.36-2.41,19.44,7.92L930,423.89l11,16.35,64.55,28s-70.06-8.73-72.52-8.73-67.64,9.41-67.64,9.41l-22.62-6.65-7.57-5.51,5.74,12.16,28.45,8,59.67-8,71.61,8,79.86,22,45.9,42.84,41.11,50,1.65,10.39,1.81,6.89-.71,6,2.28,26.76,2,13.22L1170,694.73l.52,6.18-2.36,9.89-3.67,32.05-1.89,5.77.74,4.22-1.6,14-11.55,18.9-15.67,10.8-28,7.75,29.84-1.61,18.37-10.07L1145,806l-11.67,9.85,19.1-9.54L1164,793l1.57-5.46,2.51,5.79-7.75,18,11.56-14.94,2.67-9.92,2.67,11.44,4.2,11.83,4.58,6.11-3.43-11.45L1181,794l4.69-7.24,1.32,3.71,2.82,15.07,7.18,6.13-3-9.18V791.38l1.26-3.36,6.39,7.31,5.26,12.67,12.74,9.67-8.34-15L1209.75,786l13.58,17,16.34,12.85-12.07-17.17-.6-8.21,9.67,8.53,18.33,5.33-16.35-10-10.34-12.57L1220,767.92l-1.68-8.06,1-5.8-3.29-5.25-3.83-18.4,1.65-11.89V655.4l1.32-12.23,3.59-30.74-.47-6.44,1.89-5.78,12.42-29.28,27.83-27.88,29.38-37.64,83.54-18.36,41.76-9.18,50,5.51,79.4,18.82L1473.38,476l29.37-24.71Zm-442.47-19.05,40.89-6.95.87,7.41-3.21,12.39L1142,466.86l-32.13-11.94-4.21-12.56ZM1092.41,477l-.82-.24,9.29-22.72,3.46,10.1,35.8,18.36,8.89,39.67Zm191.17,6.66,65.63-89.28,45.22-19.74,13.14-19.94,1.55,21.32-15.61,51.4-28.46,32.13Z" transform="translate(-289.79 -164.32)"/></g></svg>