<svg xmlns="http://www.w3.org/2000/svg" viewBox="0 0 1328.96 753.58"><defs><style>.cls-1,.cls-3{fill:#ff8821;}.cls-2,.cls-5{fill:#8a7538;}.cls-2,.cls-3,.cls-4{fill-rule:evenodd;}.cls-4{fill:#ffc029;}</style></defs><title>FreedomTreeLogoTag</title><g id="Tag_Line" data-name="Tag Line"><path class="cls-1" d="M309.84,843c-.66,3.51-1.43,6.59-2.2,9.79-.22,1.31-.55,2.63-.77,4-.77,3.18-1.43,6.16-2,9.34,4.18-.88,9.79-2,14.74-2.75a81.8,81.8,0,0,1-.77,11.33s-9.13,1.33-16.17,2.75a11,11,0,0,0-.33,1.66c-1.54,7.25-2.53,14.41-4.29,21.67a47.08,47.08,0,0,1-13,2.08c.33-1.64,1-3.51,1.32-5.17,1.32-5.38,3-10.88,4.07-16.5,1.54-7,3.08-14.08,4.62-21.23.44-2.31,1-4.72,1.43-7s1-4.73,1.43-7.14c-1.87.43-3.63,1-5.39,1.31a99.62,99.62,0,0,1,.44-11c8.47-3.19,20.13-4.84,23.87-5.39,4.84-.77,9.57-1.87,14.41-2.63.88-.12,1.65-.23,2.53-.33a42.09,42.09,0,0,1-.77,4.83c-.44,2-1.1,4.51-1.87,6.83C324,840.54,317,841.19,309.84,843Z" transform="translate(-285.09 -164.32)"/><path class="cls-1" d="M353.51,865.17a69.26,69.26,0,0,0-8.14,6.38c-.55,2.2-1,4.52-1.43,6.83-1.76,7.58-2.75,15.17-4.29,22.66-4.62,1-10.23,1.65-12.87,2,.33-1.64.77-3.4,1.21-4.94,1.32-5.73,3-11.56,4.29-17.39,1.65-7.47,3.19-15,4.73-22.43.66-3,1.43-5.83,2.09-8.8,2.53-.45,6.82-1.22,11.11-1.66-.22.88-.44,1.88-.66,3-.44,1.66-.77,3.41-1.21,5.07,2-1.44,4.07-2.87,6.05-4.19,2.75-1.87,6.05-4.51,9.13-5.5a23.49,23.49,0,0,1,2.75,11.44A101.15,101.15,0,0,0,353.51,865.17Z" transform="translate(-285.09 -164.32)"/><path class="cls-1" d="M399.49,887c.44,2.08.77,7,1.21,10.88-2.09,1-4.51,2-6.6,2.75a44.29,44.29,0,0,1-10.78,2.53,20,20,0,0,1-3.52.34,19,19,0,0,1-6.16-1,8,8,0,0,1-4.84-5,27.76,27.76,0,0,1-2.42-9.56,21.06,21.06,0,0,1,.44-6.38c.33-1.44.77-3.08,1.43-5.18a67.14,67.14,0,0,1,5.94-12.76,93.88,93.88,0,0,1,5.72-7.47,37.62,37.62,0,0,1,6.16-5.73,14.67,14.67,0,0,1,7.59-3.3,15.49,15.49,0,0,1,5.06.66c5.72,1.66,9.35,9.35,7.92,15.84A134.66,134.66,0,0,1,401.58,881L378,883.54c.11,1.43.11,3.3.22,3.86.66,2.19,1.87,4.29,4.07,4.72C384.31,892.34,387.61,892.24,399.49,887Zm-17.82-15,11.88-1a25.69,25.69,0,0,0,1.76-5.61,4.06,4.06,0,0,0-3.41-4.51c-2-.43-5.39,2.75-6.82,4.84A41.55,41.55,0,0,0,381.67,872Z" transform="translate(-285.09 -164.32)"/><path class="cls-1" d="M447.67,887c.44,2.08.77,7,1.21,10.88-2.09,1-4.51,2-6.6,2.75a44.29,44.29,0,0,1-10.78,2.53,20,20,0,0,1-3.52.34,19,19,0,0,1-6.16-1,8,8,0,0,1-4.84-5,27.76,27.76,0,0,1-2.42-9.56,21.06,21.06,0,0,1,.44-6.38c.33-1.44.77-3.08,1.43-5.18a67.14,67.14,0,0,1,5.94-12.76,93.88,93.88,0,0,1,5.72-7.47,37.62,37.62,0,0,1,6.16-5.73,14.67,14.67,0,0,1,7.59-3.3,15.49,15.49,0,0,1,5.06.66c5.72,1.66,9.35,9.35,7.92,15.84A134.66,134.66,0,0,1,449.76,881l-23.54,2.53c.11,1.43.11,3.3.22,3.86.66,2.19,1.87,4.29,4.07,4.72C432.49,892.34,435.79,892.24,447.67,887Zm-17.82-15,11.88-1a25.69,25.69,0,0,0,1.76-5.61,4.06,4.06,0,0,0-3.41-4.51c-2-.43-5.39,2.75-6.82,4.84A41.55,41.55,0,0,0,429.85,872Z" transform="translate(-285.09 -164.32)"/><path class="cls-1" d="M510.92,900.38c.66-2.31,1-4,1.43-5.62,1.32-5.27,2.75-10.55,4-15.72-4,.66-9,1.54-13,2.3-.44,2.09-.77,4.19-1.1,6.16-.66,3.75-1.32,7.82-2.2,11.67-.22,1.32-.44,2.53-.66,3.62a40.45,40.45,0,0,1-7.81.88,15.29,15.29,0,0,1-4.51-.55,35.13,35.13,0,0,1,.77-5.38c.66-3.3,1.65-7,2.42-9.91,1.32-4.83,2.42-9.57,3.41-14.41,1.32-5.5,2.75-11.21,4-16.83.44-1.76.66-3.41,1-5.17.88-4.73,1.87-9.46,2.75-14.08.22-1.21.44-2.63.77-3.84A101,101,0,0,1,515.21,832c-.11,1.21-.33,2.52-.55,3.84-.44,2.2-1,4.18-1.54,6.16-1.21,5.06-2.53,10.12-4,15.29-1.21,4.18-2,8.47-3,12.66,3.08-.66,7.81-1.77,12.65-2.53,1.21-5.72,2.31-11.45,3.52-17,.66-3.08,1.32-6.16,1.87-9.24s1.43-6.05,1.87-9c.11-1.09.33-2.2.44-3.41,3.08-.55,8.36-1.43,12.21-1.76a39.48,39.48,0,0,1-.88,3.85c-.55,3.41-1.32,6.61-2.42,11.11-.33,1.87-.77,3.52-1.1,5.29-1.54,7.25-3,14.51-4.51,21.88-.22,1.21-.44,2.54-.77,3.75-1.76,8.46-3,16.83-4.84,25.19A134.46,134.46,0,0,1,510.92,900.38Z" transform="translate(-285.09 -164.32)"/><path class="cls-1" d="M572.52,887c.44,2.08.77,7,1.21,10.88-2.09,1-4.51,2-6.6,2.75a44.29,44.29,0,0,1-10.78,2.53,20,20,0,0,1-3.52.34,19,19,0,0,1-6.16-1,8,8,0,0,1-4.84-5,27.76,27.76,0,0,1-2.42-9.56,21.06,21.06,0,0,1,.44-6.38c.33-1.44.77-3.08,1.43-5.18a67.14,67.14,0,0,1,5.94-12.76,93.88,93.88,0,0,1,5.72-7.47,37.62,37.62,0,0,1,6.16-5.73,14.67,14.67,0,0,1,7.59-3.3,15.49,15.49,0,0,1,5.06.66c5.72,1.66,9.35,9.35,7.92,15.84A134.66,134.66,0,0,1,574.61,881l-23.54,2.53c.11,1.43.11,3.3.22,3.86.66,2.19,1.87,4.29,4.07,4.72C557.34,892.34,560.64,892.24,572.52,887ZM554.7,872l11.88-1a25.69,25.69,0,0,0,1.76-5.61,4.06,4.06,0,0,0-3.41-4.51c-2-.43-5.39,2.75-6.82,4.84A41.55,41.55,0,0,0,554.7,872Z" transform="translate(-285.09 -164.32)"/><path class="cls-1" d="M599,900.38c-4.62,1.2-10.45,2.2-13.09,2.63.44-2.3,1.1-4.72,1.54-6.71,1.76-7.92,4.07-15.84,5.72-23.76,2.09-10.23,4.4-20.46,6.49-30.69.88-3.85,1.65-7.92,2.53-11.77,2.75-.66,7-1.76,11.66-2.41-.33,1.31-.66,2.63-.88,4.06-.66,2.53-1.21,5.17-1.76,7.7-2.2,10-3.85,19.81-6,29.92C602.77,879.8,601.23,890,599,900.38Z" transform="translate(-285.09 -164.32)"/><path class="cls-1" d="M655.9,872.54c-4.95,9.35-15.51,18.16-26.18,21.24-1.32,5.6-1.87,10.12-3.19,14.84-.11.55-1.1,5-1.65,7a62.81,62.81,0,0,1-12,1c.66-4.62,4.07-16.95,4.73-19.37,0,0,2.2-9,4.07-17.59,1-4.74,1.43-9.14,2.42-13.65a40.08,40.08,0,0,0,1.1-7.14c-.11,0-2.2.1-3.85.1A66,66,0,0,1,625,846.58c1.54,0,3.52-.11,5.28-.11s3.3.11,3.85.11a29.46,29.46,0,0,1,9.35,2c6.27,3,10.67,7.15,12.76,14.08C657.22,866,657.77,869,655.9,872.54Zm-11.11-3.74c-.66-2.3-3.08-5-4.73-6.38a22.09,22.09,0,0,0-3.85-2.09c-.44,1.76-.66,3.63-1.1,5.39-.77,3.74-2.75,15.29-2.75,15.29C634.89,880.13,646.66,873.42,644.79,868.8Z" transform="translate(-285.09 -164.32)"/><path class="cls-1" d="M708.14,879.37c-1.1,5.93-3,15.72-3.85,21.78a106.1,106.1,0,0,1-11.55,1.76c.66-6.94,2.53-16.73,3.63-23.21.22-1.77.66-3.74,1-5.62-1.54.55-2.75.88-3.85,1.21-.33-4.07-.55-8.46-.55-11a33.3,33.3,0,0,1,7-2.41c.44-2.21,1-4.41,1.54-6.38,1.65-6.38,2.75-11.88,6.16-17.61,2.86-4.95,10.23-12.1,15.95-11.1A25.41,25.41,0,0,1,737,834a79.9,79.9,0,0,1-7.59,9.79c-2.42-1.21-5.06-3.52-7.59-3.52a5,5,0,0,0-4,2.2c-3.63,4.62-4.4,11.33-5.17,16.28,3.08-.77,6.16-1.54,9.46-2.2a22.68,22.68,0,0,1,3.85-.43,69.72,69.72,0,0,1-1.1,11.55c-3.74.43-11.55,1.54-15,3C709.35,873.32,708.8,876,708.14,879.37Z" transform="translate(-285.09 -164.32)"/><path class="cls-1" d="M773,874.3a71,71,0,0,1-3.74,10.34,55.56,55.56,0,0,1-5.06,8.15,38.47,38.47,0,0,1-7.48,7,15.17,15.17,0,0,1-8.47,2.75,18.49,18.49,0,0,1-3.63-.45c-9.9-1.87-14.74-12.64-11.66-22.76,2.2-6.94,4.84-14,9.46-20.25,3.63-5.06,10.34-11.21,16.39-12,5.17-.66,8.8,2,11.33,5.39a19.58,19.58,0,0,1,3.08,8.81C773.81,865.83,774.36,868.7,773,874.3Zm-11.66-.66c.22-1.21.44-2.42.66-3.73.44-3-1.65-11.56-6.38-9-3.85,2.09-6.49,7.49-8.14,11a24.2,24.2,0,0,0-2.31,6.28,15.41,15.41,0,0,0-.11,5.5c.33,2.52,2.53,7.92,6,6.59s6.16-6.59,7.59-9.57A59.68,59.68,0,0,0,761.38,873.64Z" transform="translate(-285.09 -164.32)"/><path class="cls-1" d="M805.49,865.17a69.26,69.26,0,0,0-8.14,6.38c-.55,2.2-1,4.52-1.43,6.83-1.76,7.58-2.75,15.17-4.29,22.66-4.62,1-10.23,1.65-12.87,2,.33-1.64.77-3.4,1.21-4.94,1.32-5.73,3-11.56,4.29-17.39,1.65-7.47,3.19-15,4.73-22.43.66-3,1.43-5.83,2.09-8.8,2.53-.45,6.82-1.22,11.11-1.66-.22.88-.44,1.88-.66,3-.44,1.66-.77,3.41-1.21,5.07,2-1.44,4.08-2.87,6.06-4.19,2.74-1.87,6-4.51,9.12-5.5a23.49,23.49,0,0,1,2.75,11.44A101.87,101.87,0,0,0,805.49,865.17Z" transform="translate(-285.09 -164.32)"/><path class="cls-1" d="M892.83,893.22c-1.65,2.1-8.36,6.39-10.89,7.82-3.3,1.87-6.27,2.2-9.57,2.63-4.51.56-9.9-1.75-13.2-4.84-4-3.84-6.27-8.36-7.7-14.51a20.59,20.59,0,0,1,0-10,38.47,38.47,0,0,1,2.42-7.37,138.15,138.15,0,0,1,8-15.51,80.23,80.23,0,0,1,9.9-12.65,46.28,46.28,0,0,1,14.63-10,13.64,13.64,0,0,1,7.81-.44c2,.66,4.84,2,5,6.06A48.57,48.57,0,0,1,897.56,849c-.22,1-.55,2.75-1,5.06-.77,3.52-1.76,8.15-3.19,12.77-3.85.21-9.35.33-12,.66,1.43-5.28,2.75-11.45,3.85-16,.77-2.42,2.2-10.67-1.87-8a27.57,27.57,0,0,0-6.71,5.72c-3.74,4.4-7.26,10.57-10.12,15.84a38.08,38.08,0,0,0-3.41,8.58c-.55,2.43-.66,6.39.33,8.25,1.87,3.74,4,8,7.37,9.57,3,1.21,6.16.12,9.35-2a47.07,47.07,0,0,0,6.27-4.62A28.08,28.08,0,0,1,892.83,893.22Z" transform="translate(-285.09 -164.32)"/><path class="cls-1" d="M915.27,901.25c-4.51.88-10.12,1.44-12.87,1.76.33-1.43.88-3,1.21-4.39,1.21-5.07,2.86-10.24,4-15.29,1.32-6.61,2.75-13.21,4.07-19.8.55-2.53,1.1-5.07,1.76-7.7,2.64-.45,6.82-1,11.22-1.44-.22.78-.44,1.65-.66,2.65-.33,1.42-.66,2.75-.88,4.06-1.43,6.82-2.53,13.43-4.18,20.24C917.47,888.05,916.59,894.66,915.27,901.25Zm14.85-66.77c-.22,0-5,.66-7.59,1.21a81.63,81.63,0,0,0-8.36,2.53l-.55,11.23,4-1.11c1.21-.43,11.11-2.3,11.11-2.3C929,844.6,930.12,834.48,930.12,834.48Z" transform="translate(-285.09 -164.32)"/><path class="cls-1" d="M979.4,849.55c-2,3-6.6,11.22-8.25,14.2-3.63,5.93-6.38,12.32-9.35,18.37-1.76,3.63-3.3,7.14-4.84,10.78l-3.19,8.35c-1.76.33-6.16.45-7.92.67-2.09.33-4.51.21-6.49.77,0-3.41.33-6.94.44-10.45,0-6.61.22-13.32.44-19.91.11-3.75-.11-7.16-.22-10.79,0-2.53-.55-7.48-.44-11.44,1-.43,12.43-3.41,12.43-3.52a95,95,0,0,1,.22,15.73c-.11,4.52,0,12.77-.33,17.27,1.54-4.29,5.39-11.54,6.93-15.62,1.21-2.86,2.64-5.5,4-8.25.55-1.21,4.4-9,5.5-10.88A77.08,77.08,0,0,1,979.4,849.55Z" transform="translate(-285.09 -164.32)"/><path class="cls-1" d="M993.7,901.25c-4.51.88-10.12,1.44-12.87,1.76.33-1.43.88-3,1.21-4.39,1.21-5.07,2.86-10.24,4-15.29,1.32-6.61,2.75-13.21,4.07-19.8.55-2.53,1.1-5.07,1.76-7.7,2.64-.45,6.82-1,11.22-1.44-.22.78-.44,1.65-.66,2.65-.33,1.42-.66,2.75-.88,4.06-1.43,6.82-2.53,13.43-4.18,20.24C995.9,888.05,995,894.66,993.7,901.25Zm14.85-66.77c-.22,0-4.95.66-7.59,1.21a81.63,81.63,0,0,0-8.36,2.53l-.55,11.23,4-1.11c1.21-.43,11.11-2.3,11.11-2.3C1007.45,844.6,1008.55,834.48,1008.55,834.48Z" transform="translate(-285.09 -164.32)"/><path class="cls-1" d="M1022.08,900.38c-4.62,1.2-10.45,2.2-13.09,2.63.44-2.3,1.1-4.72,1.54-6.71,1.76-7.92,4.07-15.84,5.72-23.76,2.09-10.23,4.4-20.46,6.49-30.69.88-3.85,1.65-7.92,2.53-11.77,2.75-.66,7-1.76,11.66-2.41-.33,1.31-.66,2.63-.88,4.06-.66,2.53-1.21,5.17-1.76,7.7-2.2,10-3.85,19.81-6,29.92C1025.82,879.8,1024.28,890,1022.08,900.38Z" transform="translate(-285.09 -164.32)"/><path class="cls-1" d="M1107.55,897.08a66.94,66.94,0,0,1-11.88,7.92c-.66-1-1.32-2.21-2-3.3a80.94,80.94,0,0,1-5.17-15.29,84.56,84.56,0,0,1-1.87-9.69c-.55.23-3.19,1.44-3.85,1.66-.88,4.29-1.76,8.58-2.64,12.75-.22,1.21-.55,2.75-.88,4.41a44.3,44.3,0,0,1-1.54,5.83,91.28,91.28,0,0,1-9.57.55,27.49,27.49,0,0,1-3.41-.12c1.21-4.29,2.64-8.35,3.63-13.09.66-3.18,1-4.72,1.65-7.25,1.21-5.39,2.31-10.79,3.52-16.17,1.43-7,2.2-14.08,3.52-21.12a30.34,30.34,0,0,0,.55-3.09c-1.21,0-2.53-.11-4,0,1.1-5.94,2.86-12.65,2.86-12.65,1.1.11,2.2,0,4.51,0,1.32,0,3,0,5.17.11a50.67,50.67,0,0,1,11,1.54c7.15,2.31,11.66,5,14.19,9.13a25.39,25.39,0,0,1,3,5.29,17.27,17.27,0,0,1,1.1,7.8c-1,5.07-3.74,8.58-6.71,11.45-2.75,2.53-7.15,6-10.67,7.7a46.14,46.14,0,0,0,3.41,14.18C1103.26,889.49,1104.8,893.78,1107.55,897.08Zm-17.27-55.56a40.67,40.67,0,0,1-.88,5.28c-.44,2.09-1,4.41-1.54,6.61-1,4.06-1.87,8-2.53,12.09a30.39,30.39,0,0,0,5.83-2.53c4-1.76,10.56-4.72,11.77-9.24,1.1-4.18-3.63-8.35-6.6-10A16.13,16.13,0,0,0,1090.28,841.52Z" transform="translate(-285.09 -164.32)"/><path class="cls-1" d="M1131.31,901.25c-4.51.88-10.12,1.44-12.87,1.76.33-1.43.88-3,1.21-4.39,1.21-5.07,2.86-10.24,4-15.29,1.32-6.61,2.75-13.21,4.07-19.8.55-2.53,1.1-5.07,1.76-7.7,2.64-.45,6.82-1,11.22-1.44-.22.78-.44,1.65-.66,2.65-.33,1.42-.66,2.75-.88,4.06-1.43,6.82-2.53,13.43-4.18,20.24C1133.51,888.05,1132.63,894.66,1131.31,901.25Zm14.85-66.77c-.22,0-5,.66-7.59,1.21a81.63,81.63,0,0,0-8.36,2.53l-.55,11.23,4-1.11c1.21-.43,11.11-2.3,11.11-2.3C1145.06,844.6,1146.16,834.48,1146.16,834.48Z" transform="translate(-285.09 -164.32)"/><path class="cls-1" d="M1196.1,849.22a63.2,63.2,0,0,0-4,7.92c-1.1,3-1.76,5.4-3.08,10.24-2,6.92-2.86,11.11-4.18,16.61-.44,2-.77,4-1.32,6.26-.56,2.65-1,4.84-1.54,7.37a15.84,15.84,0,0,1-4.29,7.71c-4.07,5-12.21,11-18,12.32-5.17,1.31-9.24-2.86-12.21-5.94a9.52,9.52,0,0,1-2-4,93.11,93.11,0,0,1,8.79-7.71c.33.45.55,1,.88,1.44a13.49,13.49,0,0,0,3.86,4c1.64,1.21,4.62-.89,6.49-2.1,4.51-3.08,5.83-4.39,6.71-9.46.33-1.87.66-3.84,1-5.71-3.07,1.65-6.15,3.19-9.46,4.83a17.28,17.28,0,0,1-7.47,1.88c-2,0-3.74-.44-4.84-1.88-2.75-3.18-1.65-8.36-.66-12.54a52.85,52.85,0,0,1,3.63-12c1.87-4.51,3.41-8,6.71-12.21,3.51-4.29,6.92-7.14,12.21-7.92a16.24,16.24,0,0,1,6.92.45,22.06,22.06,0,0,1,3.64,2,29.19,29.19,0,0,1,2.42-4.51C1188.83,846.37,1193.57,848,1196.1,849.22Zm-24.42,28.39c1.76-1,3.4-2,4.73-2.76,1.09-3.85,2.42-7.92,3.41-11.88-2-1.31-4.29-3.41-6.16-2.85-2.64.76-4,2.52-5.17,4.62a31.19,31.19,0,0,0-3.53,6.81,31.87,31.87,0,0,0-2.3,6.83c-.66,2.74-.22,3.51,2.86,2.41A56.38,56.38,0,0,0,1171.68,877.61Z" transform="translate(-285.09 -164.32)"/><path class="cls-1" d="M1221.17,905.88c-.11-.67-.22-1.1-.33-1.65-.66-5.06.11-11.77,1.32-17.27,1.32-7.49,3.41-15.29,4.18-22.45-1.87.23-5.17,3.2-6.27,4.41-1.87,2.08-4.18,4.07-5.5,6.26-1.65,8.36-3.08,16.83-4.84,25.2-4.62,1.2-10.23,2.2-12.87,2.63.44-2.3,1-4.72,1.54-6.71,1.76-7.92,4-15.84,5.61-23.76l6.6-30.69c.77-3.85,1.76-7.92,2.53-11.77a113.76,113.76,0,0,1,11.44-2.41c-.33,1.31-.55,2.63-.88,4.06-.66,2.65-1.21,5.5-1.87,8.15-1.32,5.93-2.42,11.87-3.52,17.82a24.9,24.9,0,0,1,3.08-2.75,70.18,70.18,0,0,1,9-5.83,14.3,14.3,0,0,1,6.71-1.66,4.48,4.48,0,0,1,3.85,4.18,21.16,21.16,0,0,1-.44,5.83c-.55,2.53-1.43,5.07-2,7.7-1,5.07-3,10.34-3.74,15.51a90,90,0,0,0-1.43,13c0,3-.22,5.16.44,7.15A64.26,64.26,0,0,1,1221.17,905.88Z" transform="translate(-285.09 -164.32)"/><path class="cls-1" d="M1255.16,902.58c-.11-8.37,1.76-17.38,3.52-25.86.22-1,.44-2.09.77-3.4.11-.56.55-2.43,1.1-5.07-2.86,1-5.17,2-7.59,2.87a95.11,95.11,0,0,1-2.2-10.45,66.12,66.12,0,0,1,12.43-4.51c1.32-6.06,3.19-15.41,3.19-15.41s7.7-1.42,12.43-2.31c-.33,1.32-2.09,9-3.41,15,1.87-.33,3.63-.66,5.39-.89a45.87,45.87,0,0,1,4.84-.55,87.36,87.36,0,0,1,.11,10.9c-4.4.88-8.58,1.54-12.87,2.42-1,4.29-1.21,5.05-1.43,6.26-.55,2.09-1.1,4.19-1.65,6.49a105.68,105.68,0,0,0-2.64,21C1264.84,900.59,1259.89,901.92,1255.16,902.58Z" transform="translate(-285.09 -164.32)"/><path class="cls-1" d="M1328.53,887.72c-1.32,5.61-7.15,11.45-12.87,13.76a28.69,28.69,0,0,1-8.69,1.86c-3.19.23-8.91-.1-11.11-1.21a13.07,13.07,0,0,1-6.27-6.81,9.93,9.93,0,0,1,.11-5.07,18.15,18.15,0,0,1,2.86-6.92,57.83,57.83,0,0,1,10.89,1c-1.1,2.42-2,4.06-.33,6,.55.88,2.53,1.54,5,1.54a12.05,12.05,0,0,0,7-2.09c2.2-1.87-3.41-5.18-6.38-7.15a68.65,68.65,0,0,1-9.24-7.49c-3-2.52-3.41-6.15-2.75-9.23a16.11,16.11,0,0,1,1.54-4.07c4.4-7.49,14.3-16.4,24.53-16.4,3.41,0,7,1.1,7.92,4.85,1.1,4.17-1.21,11.33-2.42,16.5a25,25,0,0,1-6.16.66c-2.31,0-4.18-.23-5.28-.23.66-3.08,1.76-6.26,1.87-9.46-2.09,0-7.92,3.41-9,6.28-1,2.52,3.85,6.26,6.93,8.68,1.87,1.21,3.63,2.53,5.39,3.86C1325.67,879.92,1329.74,881.79,1328.53,887.72Z" transform="translate(-285.09 -164.32)"/><path class="cls-1" d="M1404.54,897.41a32.11,32.11,0,0,0-3.63,1.64c-1.43.56-2.2.66-3.74,1.21-2.2.78-4.07,1.32-6.38,2.1-.77-4.85-.33-7.48-1.1-13.1a60.58,60.58,0,0,0-1.54-7.92c-.44-2.09-.88-4.62-1.43-6.71a40,40,0,0,0-3.41-9l-1,4.29c-1.21,5.17-1.76,10.34-2.86,15.62-1,4.62-1.76,9.35-2.64,15.29-1.54.33-3.19.76-5,1.1-2.64.44-5.28.77-7.92,1.09a27.92,27.92,0,0,1,.88-4.94c.22-1.21,4.4-17.49,4.73-19.25,1-4.29,2.09-8.58,3-12.65.33-1.33.44-2.64.77-4,.77-5,1.54-10,2.09-15,.22-1.87.33-3.63.55-5.5,0-.56.11-1.54.22-2.54,1.76-.77,3.74-1.21,5.39-1.75,3.3-1,7.15-1.66,10.34-2.32a123.29,123.29,0,0,0,1.1,13.32c.22,3,.77,5.93,1.21,8.79.44,1.87.66,3.42,1.32,6.17a21.75,21.75,0,0,1,1.1,3.18c.77-2.85,1.21-4.84,1.65-6.93s.88-4.5,1.65-7.92,1.32-6.71,2.09-10.12c.33-1.42,1.76-10.88,2.53-13,2,0,4-.11,6.16-.22A55.59,55.59,0,0,1,1417,828c-1.65,5.5-2.75,11-4,16.6s-2.31,11.33-4,17.49c-.22,1.21-.55,2.42-.77,3.63-.55,2.86-1.21,5.83-1.65,8.58C1405.42,881.89,1404.21,889.71,1404.54,897.41Z" transform="translate(-285.09 -164.32)"/><path class="cls-1" d="M1460,874.3a71,71,0,0,1-3.74,10.34,55.56,55.56,0,0,1-5.06,8.15,38.47,38.47,0,0,1-7.48,7,15.17,15.17,0,0,1-8.47,2.75,18.49,18.49,0,0,1-3.63-.45c-9.9-1.87-14.74-12.64-11.66-22.76,2.2-6.94,4.84-14,9.46-20.25,3.63-5.06,10.34-11.21,16.39-12,5.17-.66,8.8,2,11.33,5.39a19.58,19.58,0,0,1,3.08,8.81C1460.75,865.83,1461.3,868.7,1460,874.3Zm-11.66-.66c.22-1.21.44-2.42.66-3.73.44-3-1.65-11.56-6.38-9-3.85,2.09-6.49,7.49-8.14,11a24.2,24.2,0,0,0-2.31,6.28,15.41,15.41,0,0,0-.11,5.5c.33,2.52,2.53,7.92,6,6.59s6.16-6.59,7.59-9.57A59.68,59.68,0,0,0,1448.32,873.64Z" transform="translate(-285.09 -164.32)"/><path class="cls-1" d="M1533.24,848.56c-.77,1.44-1.76,3.19-2.09,3.74-.44,1-1.1,2-1.65,3.08-1.21,2.32-1.54,3.08-2.64,5.29-2.86,5-4.51,9.12-7,15.07-2.09,4.51-4.18,9.34-5.83,13.85a47.19,47.19,0,0,0-1.87,5.07c-.55,1.54-1,3.18-1.76,5.05l-13.75,1.11c0-.56.11-1.32.11-1.87a23.1,23.1,0,0,1,.11-2.87,61,61,0,0,0,.11-6.37c0-3.3.11-4.08-.11-7.49a13.25,13.25,0,0,1-.11-2.09,32.82,32.82,0,0,0-3.19,5c-1.1,2.09-1,1.88-2.64,4.74-2.09,3.73-3.52,7.59-5.5,11.43-2.42.33-5.17.88-7.37,1s-4.51.54-6.71.76c.55-3.4.88-6.93,1.21-10.34.11-1.75.22-3.51.44-5.17.44-4.83.77-8.68,1.1-14.41.11-2.75.55-7,.77-12.87.22-3.3.33-6.71.22-9.79a55.33,55.33,0,0,1,6.93-2.09c2-.43,4.07-.76,6-1.21,0,2-.22,3.53-.22,5.07-.11,2.19-.33,4.28-.55,6.71-.44,3.63-.66,7.47-.88,11.1-.22,1.87-.33,3.63-.44,5.4a43.91,43.91,0,0,0-.55,4.62c1.65-3.64,4-8,5.72-11.89,2-4.06,4-10.89,5.83-14.85,2.86-.54,8.36-.77,11.77-1.09a44.09,44.09,0,0,0-.22,5.38c-.11,3.09-.77,7-.88,10.13,0,2.41-.22,7-.11,9.67.77-2,2-4.84,2.86-7,1.21-2.53,2-4.17,3-6.81,2.42-6.39,5.17-12.55,8.25-18.93,1.1.33,2.42.78,3.41,1.11a29.8,29.8,0,0,1,3.19,1A46.88,46.88,0,0,1,1533.24,848.56Z" transform="translate(-285.09 -164.32)"/><path class="cls-1" d="M1551.17,889.71a20.31,20.31,0,0,1-.66,4.4,63.29,63.29,0,0,1-1.87,6.81c-1.1.23-7.37,1.11-8.47,1.21-2.42.33-4.84.56-7.37,1a33.27,33.27,0,0,1-3.63.55c.22-3.51,1-7.8,1.21-10.22,4.4-.78,8.58-2.32,13.09-2.75C1544.24,890.58,1550.4,889.71,1551.17,889.71Zm14.19-57.21c-2,5.94-4.29,11.88-6,18-2.31,7.81-4.84,15.74-7.15,23.33-.88,3.08-1.87,6.16-2.75,9.13-2.86.21-7.15.66-11.88.66,3.85-10.57,6.27-21.12,9.57-31.91,2.53-7.81,4.29-15.73,6.6-23.65,4.73-.43,10.67-.77,13.42-.77C1566.68,829.09,1565.91,830.85,1565.36,832.5Z" transform="translate(-285.09 -164.32)"/></g><g id="Bird"><path class="cls-2" d="M1321.82,175.73c7.9,1.48,23.67-2.23,24.67-.87s-14.77,2.23-23.9,3.39c5.78,2,19.72-.38,19.53,1.65s-15.9.35-23.24,1.48c4.15,1.5,15.39,1.51,14,3.15-.73.87-15.43-.31-51.33,10.46-20.9,6.27-39.08,10.85-44.12,13.44-1.61,9.37,8.36,9,10.52,15.15-6.46,2.42-17.16,2.5-20.26.67s-2.83-4-2.65-4.94c-10.55-2.3-11-2.63-17.62-13.9-4.52-7.71-27.06-8.55-37.66-12.7-2.09-.82-15.51-5-17.69-5.55-6.77-1.77-6.77-3.51-13.65-5.22-7.09-1.77-13.12-2.14-14.54-2.88s7.17-.48,9-1.53c-2.72-1.79-13.3-.89-17.8-1.24,2.54-2.54,9-1.54,12.8-2.54-4.94-1.88-15.74-.38-16.15-1.94s6.56.39,12.12.53c-6.11-2.09-14.19-3.44-14.19-5.13s7,2.26,11.11,2.41c-1.74-2.47-8.87-3.64-7.93-5.1s9.27,5.17,15.74,5.76c-1.35-2.49-4.34-3.59-5.89-5.91,5.26,1.68,8.54,6.73,15,8.16,6.73,1.48,21.64.41,28.1,1.4,22,3.34,14.76,2.86,38.89,19.37,1.85,1.27,5.13.26,7.06-1.29,6.07-.14,9.15,1.81,12.9,4.53,14.39-1.48,23.36-10.47,39.65-16.5,9.71-3.59,20.69-2.7,30.44-4.14s21.67-9.1,24.87-9.2-6.39,3.88-8.91,6.62c6.5.34,14-2.76,20.15-5.68,1.63-.77,3.65-2.74,5-1.54-5.19,3.34-11.6,5.24-17.38,7.88,8.83-.32,25.2-7,26.58-6.12S1332.87,172.78,1321.82,175.73Z" transform="translate(-285.09 -164.32)"/></g><g id="New_Leaves" data-name="New Leaves"><path class="cls-3" d="M1469.68,508.06c9.09,1,35.91,11.56,52.85,11.62,12.55,0,25.77-6.89,37.4-11.6s21.81-15.33,22.07-27.88c.21-10.35-6.16-20.36-4.33-30.55,2.17-12.08,14.82-19.47,19.45-30.83,3.23-7.92,2.21-16.89,4-25.25,3-13.91,13.92-26.14,12.81-40.33-1.5-19.09-23.52-30.47-28.44-49-2.66-10,0-21.15-4.15-30.63-6.41-14.59-26-18.3-41.47-14.67s-29.55,12.37-45.21,15.25a63.44,63.44,0,0,1-51.53-13.61c-5-4.17-9.51-9.26-15.67-11.3-3.91-1.29-8.3-1.28-11.79-3.46-7-4.36-6.64-14.34-8.12-22.44a38.38,38.38,0,0,0-60.73-23.88c-5.61,4.2-10,9.89-15.91,13.7-12.17,7.89-27.86,6.33-42.35,6-3.21-.07-6.68,0-9.23,1.95-2.27,1.72-3.35,4.53-4.34,7.2-5,13.65-11,28-22.87,36.4-19.09,13.52-48.28,8-64.76,24.63-8.61,8.67-11.55,22.07-8.93,34s10.29,22.39,19.91,29.92c8.37,6.55,18.55,11.42,24.21,20.42,9.72,15.44,2.24,35.5,3.08,53.73,1.46,31.41,49.77,36.79,79.65,46.59s59,32.06,90.48,31.83C1427.42,505.67,1438.25,504.58,1469.68,508.06Z" transform="translate(-285.09 -164.32)"/><path class="cls-4" d="M812.78,458.91c-5.53-6.2-10.25-14.62-7.61-22.49,5.35-15.95,30.92-10.8,43.22-22.27,7-6.48,8.17-17.2,6.36-26.52s-6.12-18-8.67-27.11a74.33,74.33,0,0,1,1.38-44c1.43-4.11,3.35-8.26,6.77-11,4.6-3.63,10.92-3.92,16.77-3.89,33.42.19,70.58,4.7,96.77-16.06,11.42-9.06,19.09-21.88,27.61-33.71,16.82-23.34,38.61-44.2,65.66-54s59.9-6.68,81,12.82c6.54,6,11.85,13.42,19.12,18.54,7.54,5.31,16.66,7.81,24.94,11.88s16.32,10.61,18,19.68c3.59,19.41-22.41,32.2-25.51,51.69-2.59,16.28,13,31.12,29.38,33.14s32.4-5.4,46.35-14.18c11.76-7.4,24.83-16.33,38.33-13,12.61,3.12,20.21,15.9,24.68,28.1,5,13.55,7.85,28.19,5.71,42.46s-9.85,28.14-22.3,35.44c-20.84,12.23-47.84,3.58-71.09,10.19-18.62,5.29-33,19.76-49.39,30-24.57,15.34-53.94,21.19-82.83,23.25s-58,.61-86.85,2.73c-14.62,1.07-29.19,3.06-43.85,3.35-23.55.47-47.7-3.38-70.28,3.3-11.3,3.34-22.46,9.32-34.14,7.79-14-1.85-24.19-13.83-32.92-25C829.44,480.14,818.31,465.1,812.78,458.91Z" transform="translate(-285.09 -164.32)"/></g><g id="Freedom_Tree" data-name="Freedom Tree"><path class="cls-5" d="M404.11,578.08H323.8v62l6.61,2.31h15.2L379,639.72v14.17L381.31,678l-2.65,6H322.81v27.76l3,10.24-4.3,57.18h-3.31l-12.55-3.31-17.19,1.32-1.65-30.07v-150l3-60.61H404.11Z" transform="translate(-285.09 -164.32)"/><path class="cls-5" d="M517.19,642.57l-1.05,4.5v27l-23.53,1.85,3.17,15.56,1.06.8,10.57,49.17-.79,3.18,9,39.25H491.28L463,675.09l-3.7.79h-8.46l-4.23-.79-2.91,1.32.8,52.84,1.58,5.82-.79,5.29,1.59,9v5l-2.65,9.78v11.23l.8,7.14H417l.79-8.46V690.65l-3.17-34.86,1.06-37.52V590l.53-4H514l2.38,3.17-.79,2.91v49.42Zm-29.34-6.34-.53-19.55H443.17v25.89l44.15,1.06Z" transform="translate(-285.09 -164.32)"/><path class="cls-5" d="M1343.56,647.07v27L1320,675.88l3.17,15.56,1.06.8,10.58,49.17-.8,3.18,9,39.25h-24.32l-28.29-108.75-3.7.79h-8.46l-4.23-.79-2.91,1.32,2.38,49.14-1.59,3.7,1.59,5.82-.8,5.29.44,10.57-1.49,13.22,1.22,11.23-.43,7.14h-28l-.43-8.46V690.65L1242,655.79l1-37.52V590l.53-4h97.83l1.58,6.08v49.42Zm-28.29-10.84-.53-19.55h-44.15v25.89l44.15,1.06Z" transform="translate(-285.09 -164.32)"/><path class="cls-5" d="M628.07,772.29l-10.32-.53-4,.79H535V760.66l-2.11-9.26V578.76l-2.38-1.06h90.15l5.56,2.12v28L622,606H571.22l-10.84.53-1.58,1.58v18.51l1.32,10V654.9l2.11,1.85h26.44l17.19-1.85.53,11.37-1.06,1.06,1.32,18.77H558.8L562,703.28V725l-.79,8.46,1.05,11.37h65.84Z" transform="translate(-285.09 -164.32)"/><path class="cls-5" d="M734.51,766.48l.8,11.63h-92l-4.23-87V626.88l-1.32-8.2V589.34h92l1.06,3.17v12.43l-.79,2.64,3.17,13.75H714.68l-45.47,2.38L667.09,625l-3.17,6.34,3.17,33.85,16.4-1.06,9.51,1.06,17.72,3.7-1,10.84,1,11.1v5.55l-43.63,2.38L666,701.44l-1.32,9.25v7.4l1.32,2.65v23l3.17,1.59H712.3l6.35-1.86,19-3.17Z" transform="translate(-285.09 -164.32)"/><path class="cls-5" d="M854.81,756.92l-2.12,1.85-8.19,10.84-5.82,9.25-21.15-1.05-67.68-1.06V761.41l-1.59-13.48,1.85.26,6.88,1.06,9-.53V618.12l-1.32-5.82-16.12,1.32-.8-3.7V594.59l-1.06-14,89.63,4.76,4.76,7.67,13.75,17.18Zm-27.76-4.08-3.7-46.27-1.59-10.84,2.38-.79-2.91-26.44V649.73l2.65-34.64H793.21l1.85,16.66V753.9H812Z" transform="translate(-285.09 -164.32)"/><path class="cls-5" d="M978.21,779.81H876.68V656.87l-3.17-17.45V617.74l1.32-3.17V586l29.08,1.32h70.6v124Zm-30.67-27V667.18l-2.65-48.91L943,615.09H902.59l2.91,44.69v93.06Z" transform="translate(-285.09 -164.32)"/><path class="cls-5" d="M1096.69,701.7l.22,10.84-.79,5,.57,5.29-.57,5.55-.53,15.34V759.6l-1.85,2.65v16.12l-1.59,3.44H1071.8l-4.5-1.59-2.91-1.85v-72.7l2.12-31.73-5.82,19-2.11,12.17-4,11.37L1052.27,730l-3.21,2.11-4-1.05-3.7-15.07-16.92-46.8,2.12,42.3v42.3l-3.71,26.44h-22.47l-4.76-15.07V595.68l1.93-10,2.11-1.58,20.29-.8,21.68,47.86,4.23,15.86,2.11-6.87,8.92-32.79,2.9-2.9,7.14-20.36h25.65l4,43.89-1.32,2.64,1.58,5.29v25.91l-.26,7.4Z" transform="translate(-285.09 -164.32)"/><path class="cls-5" d="M1456.76,772.49l-10.31-.53-4,.8h-78.79v-11.9l-2.11-9.25V579l87.77-1.06,5.56,2.12v28l-4.23-1.85h-50.77l-10.84.53-1.58,1.59v18.51l1.32,10v18.25l2.12,1.85h26.43l17.19-1.85.53,11.36-1.06,1.06,1.32,18.77h-47.85l3.17,17.19v21.68l-.79,8.46,1.06,11.37h65.83Z" transform="translate(-285.09 -164.32)"/><path class="cls-5" d="M1565.65,767.09l.8,11.63h-92l-4.23-87V627.49l-1.32-8.19V590h92l1,3.17v12.43l2.38,16.39h-18.51l-45.47,2.38-2.12,1.32-3.17,6.35,3.17,36.29,16.4-1.06,9.52,1.06,17.71,1.25v10.84l-.83,7.4.83,3.7V697l-43.63,2.38-1,2.64-1.33,9.25v7.41l1.33,25.64,3.17,1.59h43.1l6.34-1.85,19-3.18Z" transform="translate(-285.09 -164.32)"/></g><g id="Tree"><path class="cls-2" d="M1558.75,435.42l-57.83,6.65-35.8,29.07L1417.38,465l-48.84,6.12h0l34.15-35.49.29-.79,50.51-18.3,16.32-2.38,29.24,4.08,10.88,1.7-5.78-4.08L1481,410.1l17.34-11.9,5.78-15.64-8.5,12.58-21.42,12.92h-16.32l-49.28,11.65,14.26-38.23,42.23-25.7,54.16,6.43,36.26,3.21,23.18,11.93-20-16.52-35.34-5.05,29.37-24.33,8.27-40s-11.48,35-12.4,36.37-29.37,22.49-29.37,22.49l-54.16-7.34-42.23,27.54-4.62-32.06,1.86-2.83L1472.92,314l-53.25,14.23.23-48.19-4.73,36.87-.09-.61-41.76-34.89L1360.46,253l7.35-39.24L1354,252.51l15.37,32.81-42-38.78-40.4.29,39,5.22,39,37.63,40.4,35.81,1.31,18.13-12.33,22.26L1343,386.07,1310,426l.92-55.54-22.49-34.89-4.59-46.35,6.89-15.15-11.94,15.15,2.76,41.31-20.66-34.43-25.7-1.38,22.95,6.43L1280.6,342l21.11,32.59L1286.5,454,1246,513.8,1215.14,543l-21.45,12.25-19.58-13.16-19.28-78,9.64-34.88s4.84-11.58,9.62-22.68l34-5.78,42.68,1.38,35.8,12.39-32.58-17-38.56-2.3,36.26-25.7,10.56-38.1-16.07,35.35-38.09,24.78-29.6,4.88c2.47-5.55,4.39-9.65,4.81-9.93,1.38-.91,31-20.88,31-20.88l-35.57,18.13-6.44,13.71-9.9,1.63-2.94-20.85-24.78-12.62,19.27,16.29,2.16,18.22-37,6.11,15.61-81.7,9.63-43.15,28.69-17-33.28,12.39-10.09,47.74-15.15-47.28L1091,261.69l-14.23-29.38,1.92-25.25-7,27.31,13.31,27.32-35.34-6L1022,269.26l28.61-7.57,36.72,5.5,21.11,14.23,15.15,43.15-12.85,79.63-10.12,23.27-20-59.76-4.29-52.78,10.1-20.66-15.15,17.45s1.38,47.27,0,49.11-15.14-22.95-15.14-22.95L1035,327.32,1053.85,342l17.44,25.7,24.4,71.17-15.06,34.65-21.27-69.33-66.1-72.75L993,279.13l-8,52.32H950.58L937.87,326l10.41,11.47L985,339.26,1021,376l30.14,33s6.65,40.74,12.88,59.67L1013.46,454,952,431.52l-45.9-62-9.49-31.44L899,369.55l-35.63-15.38L897.79,376l29.49,43.92-40.5,8.86-20.36-2.41,19.44,7.92L930,423.89l11,16.35,64.55,28s-70.06-8.73-72.52-8.73-67.64,9.41-67.64,9.41l-22.62-6.65-7.57-5.51,5.74,12.16,28.45,8,59.67-8,71.61,8,79.86,22,45.9,42.84,41.11,41,1.65,19.39,1.81,6.89-.71,6,2.28,26.76,2,13.22L1170,694.73l.52,6.18-2.36,9.89-3.67,32.05-1.89,5.77.74,4.22-3.49,30.45h63.38l-4.88-23.43,1-5.8-3.29-5.25-3.83-18.4,1.65-11.89V655.4l1.32-12.23,3.59-30.74-.47-6.44,1.89-5.78,3.42-29.28,36.83-27.88,29.38-37.64,83.54-18.36,41.76-9.18,50,5.51,79.4,18.82L1473.38,476l29.37-24.71Zm-442.47-19.05,40.89-6.95.87,7.41-3.21,12.39L1142,466.86l-32.13-11.94-4.21-12.56ZM1092.41,477l-.82-.24,9.29-22.72,3.46,10.1,35.8,18.36,8.89,39.67Zm191.17,6.66,65.63-89.28,45.22-19.74,13.14-19.94,1.55,21.32-15.61,51.4-28.46,32.13Z" transform="translate(-285.09 -164.32)"/></g></svg>