<svg id="Freedom_Tree" data-name="Freedom Tree" xmlns="http://www.w3.org/2000/svg" viewBox="0 0 1379.54 230.4"><defs><style>.cls-1{fill:#1a0d00;}.cls-2{fill:#fff;}.cls-3{fill:#ff8821;}.cls-3,.cls-4{fill-rule:evenodd;}.cls-4{fill:#ffc029;}</style></defs><title>FreedomTreeTextBug</title><path class="cls-1" d="M308.8,450c14.36-5.2,31.8-3.55,43,6.8,3.47,3.2,6.29,7.13,10.15,9.85s8.84,4.14,13.24,6.31,8.66,5.63,9.55,10.45c.8,4.28-1.13,8-3.77,11.54,8.87-4.46,20.9-3.51,29.27-9.44,6.31-4.47,9.46-12.07,12.14-19.33a8.12,8.12,0,0,1,2.3-3.82c1.36-1,3.2-1.07,4.91-1,7.69.17,16,1,22.48-3.19,3.13-2,5.47-5,8.45-7.28a20.38,20.38,0,0,1,32.25,12.68c.78,4.3.6,9.6,4.31,11.92,1.86,1.15,4.19,1.15,6.26,1.84a17.52,17.52,0,0,1,6,3.91v-5.79a50.63,50.63,0,0,0-50.63-50.63H329.57a50.64,50.64,0,0,0-50.52,47.29C287.15,462.46,297,454.26,308.8,450Zm31.71-15c-.92-1.31-4.71-1.93-4.21-2.71s4.92,2.75,8.36,3.06c-.72-1.32-2.31-1.91-3.13-3.14,2.79.89,4.53,3.58,8,4.33s11.49.22,14.93.75c11.66,1.77,7.83,1.52,20.64,10.29,1,.67,2.73.13,3.75-.69,3.23-.08,4.86,1,6.85,2.4,7.64-.78,12.41-5.56,21.06-8.76,5.15-1.91,11-1.43,16.16-2.19s11.5-4.84,13.21-4.89-3.4,2.06-4.74,3.51c3.45.19,7.45-1.46,10.7-3,.87-.41,1.94-1.45,2.68-.82-2.76,1.78-6.16,2.78-9.23,4.19,4.69-.17,13.38-3.7,14.11-3.25s-6.5,2.61-12.36,4.17c4.19.79,12.56-1.18,13.09-.46s-7.84,1.19-12.68,1.8c3.07,1.08,10.47-.2,10.37.88s-8.45.19-12.34.79c2.2.79,8.17.8,7.43,1.67-.39.46-8.19-.17-27.26,5.55-11.09,3.33-20.75,5.76-23.42,7.14-.86,5,4.43,4.76,5.58,8-3.42,1.29-9.11,1.33-10.75.36s-1.51-2.14-1.41-2.62c-5.6-1.23-5.84-1.4-9.36-7.39-2.4-4.09-14.37-4.54-20-6.74-1.11-.43-8.23-2.65-9.39-2.95-3.59-.93-3.59-1.86-7.24-2.77s-7-1.13-7.73-1.53,3.81-.25,4.78-.81c-1.45-.95-7.07-.47-9.46-.66,1.36-1.35,4.76-.82,6.8-1.35-2.62-1-8.36-.2-8.57-1s3.48.21,6.44.29c-3.25-1.11-7.54-1.83-7.54-2.73S338.32,434.91,340.51,435Z" transform="translate(-278.94 -424.8)"/><path class="cls-1" d="M397,576.14c-9.25,3.09-16.57,10.33-24.89,15.52a69.15,69.15,0,0,1-12,5.91l8.69,35.22,10.4,4.86,11.39-4.38L407,617.74,424,592.59C412.19,589.33,400.22,585.23,397,576.14Z" transform="translate(-278.94 -424.8)"/><path class="cls-1" d="M355.52,622.17,350.8,601.1l-.75-.38a123.27,123.27,0,0,1-17.73,2.94Z" transform="translate(-278.94 -424.8)"/><path class="cls-1" d="M432.08,594.76l-5.12,7,14.1-4.17c-.85-.31-1.7-.62-2.56-.9C436.5,596,434.33,595.37,432.08,594.76Z" transform="translate(-278.94 -424.8)"/><path class="cls-1" d="M319.12,609.88l-18.51-5.11c-6.2.09-12.4.23-18.58.69-1,.07-2,.15-3.07.24a50.63,50.63,0,0,0,50.61,49.5h32.48l-18.56-22.57Z" transform="translate(-278.94 -424.8)"/><path class="cls-1" d="M486.55,613.55c-8.78.07-17.23-3.17-25.57-7l-30.73,6.75-15.6,20-14.77,14.8-3,7.12h61.85a50.65,50.65,0,0,0,49.86-41.77C502.1,613.26,496.12,613.48,486.55,613.55Z" transform="translate(-278.94 -424.8)"/><path class="cls-2" d="M342.15,436.44c-3-.08-6.66-1.12-6.44-.29s6,0,8.57,1c-2,.53-5.44,0-6.8,1.35,2.39.19,8-.29,9.46.66-1,.56-5.53.42-4.78.81s4,.59,7.73,1.53,3.65,1.84,7.24,2.77c1.16.3,8.28,2.52,9.39,2.95,5.63,2.2,17.6,2.65,20,6.74,3.52,6,3.76,6.16,9.36,7.39-.1.48-.24,1.64,1.41,2.62s7.33.93,10.75-.36c-1.15-3.28-6.44-3.07-5.58-8,2.67-1.38,12.33-3.81,23.42-7.14,19.07-5.72,26.87-5.09,27.26-5.55.74-.87-5.23-.88-7.43-1.67,3.89-.6,12.24.29,12.34-.79s-7.3.2-10.37-.88c4.84-.61,13.21-1.07,12.68-1.8s-8.9,1.25-13.09.46c5.86-1.56,13.09-3.72,12.36-4.17s-9.42,3.08-14.11,3.25c3.07-1.41,6.47-2.41,9.23-4.19-.74-.63-1.81.41-2.68.82-3.25,1.55-7.25,3.2-10.7,3,1.34-1.45,6.44-3.57,4.74-3.51s-8.07,4.13-13.21,4.89-11,.28-16.16,2.19c-8.65,3.2-13.42,8-21.06,8.76-2-1.44-3.62-2.48-6.85-2.4-1,.82-2.76,1.36-3.75.69-12.81-8.77-9-8.52-20.64-10.29-3.44-.53-11.35,0-14.93-.75s-5.19-3.44-8-4.33c.82,1.23,2.41,1.82,3.13,3.14-3.44-.31-7.87-3.83-8.36-3.06s3.29,1.4,4.21,2.71c-2.19-.08-5.9-2.18-5.9-1.28S338.9,435.33,342.15,436.44Z" transform="translate(-278.94 -424.8)"/><path class="cls-3" d="M431.1,572.49c-10.18,3.16-22.19.24-32.75,3.24-.44.12-.89.27-1.33.41,3.2,9.09,15.17,13.19,27,16.45l4.47-6.6Z" transform="translate(-278.94 -424.8)"/><path class="cls-3" d="M485.33,571.86l8.29-27.3-.82-11.32-7,10.59-24,10.48-29.73,40.45c2.25.61,4.42,1.24,6.42,1.89.86.28,1.71.59,2.56.9l29.16-8.63Z" transform="translate(-278.94 -424.8)"/><polygon class="cls-3" points="214.42 142.98 230.4 139.2 230.4 117.57 221.99 122.69 214.42 142.98"/><path class="cls-3" d="M474.61,603.54l-13.63,3c8.34,3.84,16.79,7.08,25.57,7,9.57-.07,15.55-.29,22-.12a50.77,50.77,0,0,0,.77-8.86v-4.52l-12.55-1.38Z" transform="translate(-278.94 -424.8)"/><polygon class="cls-3" points="211.26 151.44 193.13 170.29 193.13 170.29 219.06 167.04 230.4 168.5 230.4 144.15 211.42 151.03 211.26 151.44"/><polygon class="cls-3" points="219.54 99.82 221.99 116.84 230.4 111.35 230.4 94.28 220.53 98.31 219.54 99.82"/><path class="cls-3" d="M497.12,475.47c-3.71-2.32-3.53-7.62-4.31-11.92a20.38,20.38,0,0,0-32.25-12.68c-3,2.23-5.32,5.25-8.45,7.28-6.46,4.19-14.79,3.36-22.48,3.19-1.71,0-3.55,0-4.91,1a8.12,8.12,0,0,0-2.3,3.82c-2.68,7.26-5.83,14.86-12.14,19.33-8.37,5.93-20.4,5-29.27,9.44-3.7,5-8.81,9.86-9.77,15.9-1.37,8.65,6.91,16.53,15.6,17.6s17.2-2.87,24.61-7.53a93.64,93.64,0,0,1,8.19-4.83l-6.2-11.26-12.19-3.42,13.65.73,7.62,12.7a22,22,0,0,1,2.92-.85l-1-15.5,6.34-8-3.66,8,1.5,15.15a13.68,13.68,0,0,1,3.22.38c6.7,1.66,10.73,8.44,13.11,14.92,2.63,7.2,4.17,15,3,22.55a28.08,28.08,0,0,1-6.88,14.79l-.08,4.84,17.54-21.21,27.3-10.72,6.55-11.82-.7-9.63-21.45-19-20.71-20L428.79,476l21.45-.15,22.3,20.6L464.37,479l7.31-20.59-3.89,20.83,6.82,15.12,22.18,18.52,0,.32,2.52-19.58-.12,25.59,10.11-2.7V481.22a17.52,17.52,0,0,0-6-3.91C501.31,476.62,499,476.62,497.12,475.47Z" transform="translate(-278.94 -424.8)"/><path class="cls-4" d="M330,586,325,598.05l.43.13,6.87,5.48a123.27,123.27,0,0,0,17.73-2.94l-18.26-9.36Z" transform="translate(-278.94 -424.8)"/><path class="cls-4" d="M397,576.14a15,15,0,0,1-.81-4.23c-.21-4.52.55-9.26.89-13.86l-10.23-.33-18.05,3.07c-2.54,5.89-5.1,12-5.1,12l-5.12,18.53,1.54,6.21a69.15,69.15,0,0,0,12-5.91C380.45,586.47,387.77,579.23,397,576.14Z" transform="translate(-278.94 -424.8)"/><path class="cls-4" d="M300.61,604.77l-21.67-6v5.77c0,.38,0,.76,0,1.13,1-.09,2.05-.17,3.07-.24C288.21,605,294.41,604.86,300.61,604.77Z" transform="translate(-278.94 -424.8)"/><path class="cls-4" d="M397,550.38l-6.24,4.42,6.47.38A30.46,30.46,0,0,0,397,550.38Z" transform="translate(-278.94 -424.8)"/><path class="cls-4" d="M319.2,596.36l8-18.4-13-37.79L305,526.53l-10-7.8,11.21,5.6s7.31,13.16,8,12.19,0-26.08,0-26.08l8-9.26-5.36,11,2.28,28,10.63,31.74,5.37-12.36L342,517.26l-8-22.9-11.21-7.56-19.5-2.92-15.19,4,14.71-7.19,18.76,3.17-7.06-14.51,3.69-14.5-1,13.41,7.55,15.6,12.43,8.28,8,25.1,5.37-25.34,17.67-6.58-15.24,9-5.11,22.9-8.29,43.39,19.67-3.25-1.15-9.67-10.23-8.65,13.16,6.7,1.56,11.07,5.25-.87,3.42-7.28,18.89-9.62-16.45,11.09a40.93,40.93,0,0,0-2.55,5.27l15.71-2.59,9.31-6.06a16.23,16.23,0,0,0-1.6-3.41c-3-4.77-8.41-7.36-12.86-10.84-5.11-4-9.18-9.54-10.57-15.88s.17-13.45,4.74-18.06A19.7,19.7,0,0,1,381,495c2.64-3.58,4.57-7.26,3.77-11.54-.89-4.82-5.15-8.29-9.55-10.45S366,469.48,362,466.66s-6.68-6.65-10.15-9.85c-11.24-10.35-28.68-12-43-6.8-11.76,4.25-21.65,12.45-29.75,22.08-.07,1.1-.11,2.22-.11,3.34v52.24l29,31.88Z" transform="translate(-278.94 -424.8)"/><path class="cls-4" d="M310.36,593.79c-3.31-10-6.84-31.68-6.84-31.68l-16-17.55-8.57-8.75v48.51l4.59,1.67Z" transform="translate(-278.94 -424.8)"/><path class="cls-4" d="M278.94,593.39v.11l.36,0Z" transform="translate(-278.94 -424.8)"/><polygon class="cls-4" points="72.83 168.02 79.66 148.03 81.36 141.45 80.9 137.52 59.18 141.21 53.54 155.01 55.77 161.68 72.83 168.02"/><path class="cls-4" d="M396.21,571.91a15,15,0,0,0,.81,4.23c.44-.14.89-.29,1.33-.41,10.56-3,22.57-.08,32.75-3.24l5.49-28.66-11.21-17.3-5.74-10.43a93.64,93.64,0,0,0-8.19,4.83c-7.41,4.66-15.92,8.6-24.61,7.53s-17-9-15.6-17.6c1-6,6.07-10.87,9.77-15.9a19.7,19.7,0,0,0-5.12,3.64c-4.57,4.61-6.13,11.72-4.74,18.06s5.46,11.88,10.57,15.88c4.45,3.48,9.85,6.07,12.86,10.84a16.23,16.23,0,0,1,1.6,3.41l10.92-7.1,8.53-18.77L410,541.15l-13,9.23a30.46,30.46,0,0,1,.23,4.8l14,.84,17.31,9-19-6.58-12.44-.4C396.76,562.65,396,567.39,396.21,571.91Z" transform="translate(-278.94 -424.8)"/><path class="cls-4" d="M441.46,541.64l-.4,24.65a28.08,28.08,0,0,0,6.88-14.79c1.14-7.58-.4-15.35-3-22.55-2.38-6.48-6.41-13.26-13.11-14.92a13.68,13.68,0,0,0-3.22-.38l.94,9.46Z" transform="translate(-278.94 -424.8)"/><path class="cls-4" d="M425.44,514a22,22,0,0,0-2.92.85l3.35,5.58Z" transform="translate(-278.94 -424.8)"/><path class="cls-2" d="M414.65,633.28l15.6-20L461,606.54c-6.67-3.07-13.27-6.53-19.92-9L427,601.72l5.12-7c-2.6-.71-5.32-1.42-8-2.17L407,617.74l-16.36,15.53-11.39,4.38-10.4-4.86-8.69-35.22a86.08,86.08,0,0,1-10.09,3.15l.75.38,4.72,21.07-23.2-18.51c-1.39.13-2.79.25-4.18.35-9.16.65-18.35.64-27.53.76l18.51,5.11,24.37,22.75,18.56,22.57h34.81l3-7.12Z" transform="translate(-278.94 -424.8)"/><path class="cls-2" d="M428.58,513.65l-1.5-15.15,3.66-8-6.34,8,1,15.5A15.9,15.9,0,0,1,428.58,513.65Z" transform="translate(-278.94 -424.8)"/><path class="cls-2" d="M499.35,493.62l-2.52,19.58,0-.32-22.18-18.52-6.82-15.12,3.89-20.83L464.37,479l8.17,17.43-22.3-20.6-21.45.15,20.72,2.78,20.71,20,21.45,19,.7,9.63-6.55,11.82-27.3,10.72L441,571.13l.08-4.84a21.69,21.69,0,0,1-5,4,23.44,23.44,0,0,1-5,2.17L428.51,586l-4.47,6.6c2.72.75,5.44,1.46,8,2.17l29.73-40.45,24-10.48,7-10.59.82,11.32-8.29,27.3-15.11,17.06-29.16,8.63c6.65,2.46,13.25,5.92,19.92,9l13.63-3,22.18-4.87,12.55,1.38V593.3L498,591.84l-25.94,3.25h0l18.14-18.84.15-.42,19-6.88v-5l-16,3.78,7.57-20.29,8.41-5.12v-6.22l-8.41,5.49-2.45-17,1-1.51,9.87-4v-2.57l-10.11,2.7Z" transform="translate(-278.94 -424.8)"/><path class="cls-2" d="M414.9,502.15l-13.65-.73,12.19,3.42,6.2,11.26a30.2,30.2,0,0,1,2.88-1.25Z" transform="translate(-278.94 -424.8)"/><path class="cls-2" d="M328.14,604c1.39-.1,2.79-.22,4.18-.35l-6.87-5.48-.43-.13L330,586l1.84,5.37,18.26,9.36a86.08,86.08,0,0,0,10.09-3.15l-1.54-6.21,5.12-18.53s2.56-6.15,5.1-12l18.05-3.07,10.23.33c.07-1,.12-1.92.14-2.87l-6.47-.38,6.24-4.42a19.71,19.71,0,0,0-.83-3.59l-9.31,6.06-15.71,2.59a40.93,40.93,0,0,1,2.55-5.27l16.45-11.09-18.89,9.62L367.85,556l-5.25.87L361,545.78l-13.16-6.7,10.23,8.65,1.15,9.67-19.67,3.25,8.29-43.39,5.11-22.9,15.24-9-17.67,6.58-5.37,25.34-8-25.1-12.43-8.28-7.55-15.6,1-13.41-3.69,14.5,7.06,14.51-18.76-3.17-14.71,7.19,15.19-4,19.5,2.92L334,494.36l8,22.9-6.83,42.29-5.37,12.36L319.2,540.17l-2.28-28,5.36-11-8,9.26s.73,25.1,0,26.08-8-12.19-8-12.19L295,518.73l10,7.8,9.26,13.64,13,37.79-8,18.4-11.3-36.81-29-31.88v8.14l8.57,8.75,16,17.55s3.53,21.63,6.84,31.68L283.53,586l-4.59-1.67v9.07l.36.16-.36,0v5.3l21.67,6C309.79,604.65,319,604.66,328.14,604Zm10-38,21.71-3.69.46,3.93-1.7,6.58-6.83,20-17.06-6.34-2.23-6.67Z" transform="translate(-278.94 -424.8)"/><path class="cls-2" d="M428.55,565l-17.31-9-14-.84c0,1-.07,1.91-.14,2.87l12.44.4Z" transform="translate(-278.94 -424.8)"/><path class="cls-2" d="M415.63,520.92l-8.53,18.77-10.92,7.1a19.71,19.71,0,0,1,.83,3.59l13-9.23Z" transform="translate(-278.94 -424.8)"/><path class="cls-2" d="M436.59,543.83l-5.49,28.66a23.44,23.44,0,0,0,5-2.17,21.69,21.69,0,0,0,5-4l.4-24.65-11.94-18.53-.94-9.46a15.9,15.9,0,0,0-3.14.35l.43,6.43-3.35-5.58a30.2,30.2,0,0,0-2.88,1.25l5.74,10.43Z" transform="translate(-278.94 -424.8)"/><path class="cls-1" d="M640.81,475.63H572.55v51l5.62,2h12.92l28.37-2.25v12l2,20.5-2.25,5.06h-47.5v27.85l2.53,8.71-3.66,48.59h-2.81l-10.67-2.81-14.61,1.13-1.4-25.55V494.31l2.53-54.07h97.19Z" transform="translate(-278.94 -424.8)"/><path class="cls-1" d="M734.38,533l-.9,3.82v22.93l-20,1.57,2.7,13.23.9.67,9,41.8-.68,2.7L733,653.08H712.36l-24-92.43-3.14.67H678l-3.6-.67L672,561.77l.67,44.91,1.35,5-.67,4.49,1.34,7.64V628l-2.24,8.32v9.51l.67,6.07H649.21l.67-7.19V573.86l-2.69-29.63.9-31.89v-24l.45-3.37h83.15l2,2.7L733,490.1v42Zm-24.94-5.39L709,511H671.46v22l37.53.9Z" transform="translate(-278.94 -424.8)"/><path class="cls-1" d="M1436.79,536.86v22.93l-20,1.57,2.7,13.23.9.67,9,41.8-.68,2.7,7.64,33.36h-20.67l-24-92.43-3.14.67h-7.23l-3.6-.67-2.47,1.12,2,41.77-1.35,3.14,1.35,4.95-.67,4.49.36,9-1.26,11.24,1,9.54-.37,6.07h-23.82l-.37-7.19v-71l-1.65-29.63.9-31.89v-24l.45-3.37H1435l1.34,5.17v42Zm-24-9.21-.45-16.61h-37.53v22l37.53.9Z" transform="translate(-278.94 -424.8)"/><path class="cls-1" d="M828.62,643.27l-8.76-.46-3.37.68h-67V633.38l-1.8-7.87V478.76l-2-.9h76.62l4.72,1.8v23.82l-3.59-1.57H780.31l-9.22.45-1.35,1.35v15.73l1.13,8.54v15.51l1.8,1.57h22.47l14.61-1.57.45,9.66-.9.9,1.12,16H769.74l2.7,14.61V603l-.67,7.19.9,9.66h56Z" transform="translate(-278.94 -424.8)"/><path class="cls-1" d="M919.1,641.72l.68,9.89H841.57L838,577.68V523.07l-1.13-7V491.15h78.21l.9,2.7v10.56l-.65,2.25,2.7,11.69H902.25l-38.65,2-1.8,1.12-2.7,5.4,2.7,28.76,13.93-.9,8.09.9,15.06,3.15L898,568l.87,9.44v4.72l-37.08,2-.9,2.25-1.12,7.87v6.29l1.12,2.24v19.56l2.7,1.35h36.63l5.39-1.58,16.18-2.69Z" transform="translate(-278.94 -424.8)"/><path class="cls-1" d="M1021.36,629.35l-1.8,1.57-7,9.22-4.94,7.86-18-.9-57.53-.9v-13l-1.35-11.46,1.57.22,5.85.9,7.64-.45v-111l-1.13-5L931,507.59l-.67-3.15v-13l-.9-11.92,76.18,4.05,4,6.52,11.69,14.6ZM967.31,509.7,970.46,549l1.35,9.21-2,.67,2.47,22.48v16L970,626.83H996.1l-1.57-14.16V508.8H980.1Z" transform="translate(-278.94 -424.8)"/><path class="cls-1" d="M1126.24,652.21H1040V547.71l-2.7-14.85V514.45l1.12-2.7V487.48l24.72,1.12h61.71s-.11,15.59-.37,36.55c0,2,1.65,3.08,1.62,5.11,0,1.68-1.75,4.22-1.77,5.94-.27,18.69-.65,39.91-1.18,57.8C1121.82,637.07,1126.24,652.21,1126.24,652.21Zm-26.06-22.08V557.32l-2.25-41.57-1.58-2.7H1062l2.47,38v79.1Z" transform="translate(-278.94 -424.8)"/><path class="cls-1" d="M1141.07,549.33v-22l1.35-4.5-1.11-2.27,3.43-37.3h21.8l6.07,17.3,2.47,2.47,7.58,27.87,1.8,5.84,3.59-13.48,18.43-40.68,17.24.68,1.8,1.35,1.63,8.54V637.2l-4,12.81h-19.1l-3.15-22.47v-36l1.8-36-14.39,39.86-3.15,12.81-3.37.9-2.73-1.8-2-11.46-3.37-9.67-1.8-10.33L1167,559.67l1.79,27v61.8l-2.47,1.58-3.82,1.35h-17.3l-1.35-2.93v-13.7l-1.57-2.25V619l-.45-13v-9.21l-.47-13.52Z" transform="translate(-278.94 -424.8)"/><path class="cls-1" d="M1533,643.44l-8.76-.45-3.37.67h-67V633.55l-1.8-7.87V478.94l74.61-.9,4.72,1.79v23.83l-3.6-1.58h-43.15l-9.21.45-1.35,1.35v15.73l1.13,8.54v15.51l1.79,1.57h22.48l14.6-1.57.45,9.66-.9.9,1.13,16H1474.1l2.7,14.6v18.43l-.67,7.19.89,9.67h56Z" transform="translate(-278.94 -424.8)"/><path class="cls-1" d="M1625.57,638.86l.68,9.89H1548l-3.59-73.93V520.19l-1.13-7V488.27h78.21l.9,2.7v10.56l2,13.94H1608.7l-38.65,2-1.8,1.12-2.7,5.4,2.76,30.87,13.93-.9,8.09.9,15.06,1.07v9.21l-.71,6.29.71,3.15v4.72l-37.08,2-.9,2.25-1.13,7.87v6.29l1.13,21.8,2.7,1.35h36.63l5.39-1.58,16.18-2.69Z" transform="translate(-278.94 -424.8)"/><path class="cls-1" d="M1370.66,472H1328.1V652.86l-22.12-2-5,2.24-5.32-.28v-59l-.56-2.53,1.12-1.67L1294,564.74l-1.12-1.41,2.8-6.71V472h-42.35V440.29h116.76v6.44l-.84,2.52,1.4,2.8Z" transform="translate(-278.94 -424.8)"/><path class="cls-1" d="M1637.28,635.3h-4.18v-1.51h10.18v1.51h-4.2v12.24h-1.8Z" transform="translate(-278.94 -424.8)"/><path class="cls-1" d="M1656.4,641.5c-.11-1.92-.23-4.22-.21-5.94h-.06c-.47,1.61-1,3.33-1.73,5.23l-2.43,6.67h-1.35l-2.22-6.55c-.65-1.94-1.2-3.71-1.59-5.35h0c0,1.72-.15,4-.27,6.08l-.36,5.9h-1.7l1-13.75h2.27l2.34,6.65c.57,1.69,1,3.2,1.39,4.63h.06c.35-1.39.84-2.9,1.45-4.63l2.45-6.65h2.26l.86,13.75h-1.74Z" transform="translate(-278.94 -424.8)"/></svg>